<?xml version="1.0" encoding="utf-8"?>
<!-- Generator: Adobe Illustrator 26.2.1, SVG Export Plug-In . SVG Version: 6.00 Build 0)  -->
<svg version="1.1" id="Layer_1" xmlns="http://www.w3.org/2000/svg" xmlns:xlink="http://www.w3.org/1999/xlink" x="0px" y="0px"
	 viewBox="0 0 263.1 44.7" style="enable-background:new 0 0 263.1 44.7;" xml:space="preserve">
<style type="text/css">
	.st0{fill:#2D2D2D;}
	.st1{fill:#FFFFFF;}
	.st2{fill:#0789B0;}
</style>
<g>
	<g>
		<path class="st0" d="M133.6,44.7c12.3,0,22.2-9.9,22.2-22.2s-9.9-22.2-22.2-22.2c-12.1,0-22.2,9.9-22.2,22.2
			S121.5,44.7,133.6,44.7z"/>
		<path class="st1" d="M145.6,19.3l0.6,1.4L145.6,19.3l0.6,0.7l-0.4-1.1l0.4,0.7l-0.3-0.8l-1-2.1l-0.7,0.1l0.6-0.1l-0.6,0.1l0.4-0.1
			h-0.4l0.3-0.1h-0.3l-0.4-1l-0.4-0.4l-0.4,1.1l0.1,3.1l-0.6,0.4l-0.1,3.4l0.3-2.1v1.6l0.1-1.6v1.3l0.1-1.3v1.1l0.3-2l0.7,0.1
			l0.3,0.7l-0.1-1.1l0.3,0.8l-0.3-1.1l0.3,0.7l-0.1-1.1l0.8,0.3l0.3,0.7l-0.1-0.6l0.3,0.7l-0.3-0.4l0.4,0.7l-0.4-0.8l0.3-0.1
			L145.6,19.3z"/>
		<path class="st1" d="M120.5,25l-1.5,7l1.5-4.1l0.8-0.7l1.1-2.1l1.7,2.1l-0.5,4.3l-1.4,7.1l2.1-4.8l1.1-0.5l-0.1,7.8l0.8-3.9
			l1.2-3.8l0.5-1.4l0.8-6.9l3.5-2.5l1-3.5l-4.2,2.3l-2.4-0.5l-2.8,1.3l0.3-0.8l2.5-2.6l0.4-2.1l2.9-1.8l-2.2,0.8l-1.8,1.2l-3,2.9
			l-0.7-0.6l-2.3,2.8l-2.6,1.2l1.9,0.6l-4.3,4.2L120.5,25z"/>
		<path class="st1" d="M143.4,14.9l-0.7,0.4L143.4,14.9l-0.7,0.4l0.4-0.1l-0.4,0.3l0.4-0.1l-0.3,0.7L143.4,14.9z"/>
		<path class="st1" d="M134.3,15.4l2.4,1.4L134.3,15.4l2.3,1.3l-2.5-1.6l2.4,1.4l-2.5-1.6l2.5,1.4l-2.5-1.6l2.5,1.4l-2.5-1.6
			l2.7,1.4l-2.8-1.6l3.5,1.8v1.1l0.1-1l-0.1,1.3l0.1-1.1l-0.1,1.4l0.3-1.8l-4.1-2.3l-1.8,0.1l-2.1-1.1l-4,1.4l-0.8,0.8l-2,0.7
			c-0.7,0.7-3.1,3-3.1,3l2.4-1.7l-1.3,1.3l1.8-1.8l-1.3,1.3l1.7-1.7l0.7-0.1l0.4,0.1l-0.4,0.6l0.4-0.6l-0.4,0.7l0.4-0.6l-0.4,0.8
			l1.3-1.6l0.7-0.7l-0.3,0.4L126,15l-0.4,0.4L126,15l-0.3,0.3l0.4-0.4l2.8-1.1l-0.6,0.3l0.6-0.3l-0.6,0.3l0.6-0.3l-0.7,0.6l0.7-0.3
			l-0.8,0.4l1.3-0.7h0.7l0.7,0.4l-0.7-0.6l1,0.7l-0.8-0.6l1.1,0.6l-1.1-0.7l1.7,0.8l1.3-0.1l-0.7,0.1h0.6l-0.7,0.1h0.6l-0.7,0.1
			l1.1-0.1l0.1,0.3L133,15l0.3-0.1l-0.4,0.1l0.3-0.1l-0.4,0.3L133,15l-0.4,0.3l0.3-0.1l-0.3,0.6L134.3,15.4z"/>
		<path class="st1" d="M139.5,14.9l-0.7-1.1l0.6,1l-0.6-0.7l0.4,0.8l-0.4-0.6l0.4,0.6l-0.3-0.4l0.3,0.4l-1.3,1.3L139.5,14.9z"/>
		<path class="st1" d="M129.4,10.5l-3.2,2.7l0.8-0.6l-0.3,0.4l0.6-0.6l-0.4,0.6l0.8-0.6l0.4-0.1l0.7,0.1l0.1,0.6l-0.1-0.6l0.4,0.7
			l-0.1-0.6l0.3,0.6l-0.1-0.4l0.3,0.7l-0.1-0.6l0.6,0.8l-0.3-0.7h0.3l1.3,1.6h0.7l1,1l-0.7-1.1l0.3,0.4l-0.3-0.6l0.4,0.6l-0.6-0.8
			l-1-0.1l-1.3-1.8l0.6,0.6l-0.6-0.8l0.6,0.7l-0.6-0.8l0.4,0.4l-0.6-1l0.3,0.1l-0.3-0.3l0.4,0.3l-0.4-0.4l0.6,0.4L129.4,10.5z"/>
		<path class="st2" d="M153.1,22.2l2.7,2c0-0.6,0.1-1.1,0.1-1.7c0-3-0.6-5.8-1.7-8.5c-1.1-2.7-2.8-5.2-4.8-7.2
			c-2.1-2.1-4.5-3.7-7.2-4.8s-5.6-1.7-8.5-1.7c-3,0-5.8,0.6-8.5,1.7s-5.2,2.8-7.2,4.8c-2.3,2-4,4.4-5.1,7.1
			c-1.1,2.7-1.7,5.6-1.7,8.5c0,0.1,0,0.4,0,0.6l3.5-1.7l2.3-2.7l4-1.7c1-1,2.4-2.4,3.7-3.5c0.4-0.4,0.8-0.7,1.4-0.8
			c1-0.3,2.5-1,3.2-1.8h1l3.5-3l1.1,1.3l0.4,0.1l1.7,2.8l1,0.3l2,2.7l0.8-0.7l1.7,1l1-0.6l1,0.7l1.6,3.2l0.8-0.1l2.4,3.2L153.1,22.2
			z"/>
		<path class="st1" d="M131.8,21.2c0,0-1.1,2-1.1,2.1c0,0.1,0,0.8,0,0.8c0.2,1.2,0,4.7,0,4.7L133,25l2.1,2.9l-0.1,9l2.4-2.6l2.2,2.5
			l1.5,2.5l-2.7-7.8l2.5-2.5c0,0,1.1,1.6,2.6,2.7c0,0,4.6,4.2,4.6,4.4l0,0l0.6-5l2.8-2.2l1.2-1.8l-1.6,0.4l-1.8,1.2
			c0,0-2.4-0.4-2.8-0.8l0.6,2.3c0,0-0.5,3.3,0.3,3.6l-0.3-3.6l-5.6-3.9l-1.7-3l-1.6,1.7v-3.8l-3.1,2.1L131.8,21.2L131.8,21.2z"/>
	</g>
	<g>
		<path class="st2" d="M71.4,23.2c-0.5,0.5-1,0.8-1.6,1c0.6,0.1,1,0.4,1.3,0.8c0.3,0.4,0.5,0.9,0.5,1.5c0,0.2,0,0.4-0.1,0.5
			c-0.2,1-0.7,1.8-1.5,2.4c-0.8,0.6-1.8,0.9-3.1,0.9h-5.5l2.1-11.9h5.4c1.1,0,1.9,0.2,2.5,0.7c0.6,0.4,0.9,1.1,0.9,1.8
			c0,0.2,0,0.4-0.1,0.6C72.1,22.1,71.8,22.7,71.4,23.2z M68.7,26.3c0-0.3-0.1-0.6-0.4-0.8c-0.2-0.2-0.6-0.3-1-0.3h-2.1L64.7,28h2.1
			c0.5,0,0.9-0.1,1.2-0.3c0.3-0.2,0.5-0.6,0.6-1C68.6,26.5,68.7,26.4,68.7,26.3z M68.6,22.9c0.3-0.2,0.5-0.5,0.5-0.9
			c0-0.1,0-0.2,0-0.3c0-0.3-0.1-0.6-0.3-0.8c-0.2-0.2-0.5-0.3-0.9-0.3H66l-0.4,2.5h1.9C68,23.2,68.3,23.1,68.6,22.9z"/>
		<path class="st2" d="M76.8,28.1h3.8l-0.4,2.2h-6.7l2.1-11.9h2.9L76.8,28.1z"/>
		<path class="st2" d="M87.5,18.4l-1.3,7.1c0,0.3-0.1,0.5-0.1,0.6c0,0.5,0.1,0.9,0.4,1.2c0.3,0.3,0.7,0.4,1.3,0.4
			c0.7,0,1.2-0.2,1.7-0.6c0.4-0.4,0.7-0.9,0.8-1.6l1.3-7.1h2.9l-1.3,7.1c-0.2,1.1-0.6,2-1.1,2.7c-0.6,0.7-1.3,1.3-2.1,1.7
			c-0.8,0.4-1.7,0.5-2.7,0.5c-1.2,0-2.2-0.3-3-1c-0.8-0.6-1.1-1.6-1.1-2.8c0-0.4,0-0.7,0.1-1.2l1.2-7.1H87.5z"/>
		<path class="st2" d="M100,20.7l-0.4,2.5h3.9l-0.4,2.2h-3.9L98.7,28h4.4l-0.4,2.3h-7.3l2.1-11.9h7.3l-0.4,2.3H100z"/>
	</g>
	<g>
		<path class="st2" d="M170.2,19.2c0.6,0.6,1,1.3,1,2.2c0,0.3,0,0.5-0.1,0.7c-0.1,0.8-0.5,1.5-1,2.1c-0.6,0.6-1.3,1.1-2.2,1.3
			l1.9,4.7h-3.3l-1.7-4.5h-0.7l-0.8,4.5h-2.9l2.1-11.9h4.9C168.6,18.4,169.6,18.6,170.2,19.2z M168.2,21.9c0-0.4-0.1-0.6-0.3-0.8
			c-0.2-0.2-0.6-0.3-1-0.3H165l-0.5,3h1.8c0.5,0,1-0.1,1.3-0.4c0.3-0.3,0.5-0.6,0.6-1.1C168.2,22,168.2,21.9,168.2,21.9z"/>
		<path class="st2" d="M176.8,18.4l-2.1,11.9h-2.9l2.1-11.9H176.8z"/>
		<path class="st2" d="M186.6,18.9c0.8,0.4,1.4,0.9,1.8,1.6c0.4,0.7,0.6,1.5,0.6,2.5c0,0.3,0,0.7-0.1,1.2c-0.2,1.2-0.6,2.2-1.3,3.1
			c-0.7,0.9-1.5,1.6-2.6,2.1c-1,0.5-2.2,0.7-3.4,0.7h-4.5l2.1-11.9h4.5C184.8,18.4,185.8,18.6,186.6,18.9z M184.6,26.9
			c0.7-0.6,1.2-1.5,1.4-2.6c0.1-0.3,0.1-0.6,0.1-0.8c0-0.8-0.3-1.5-0.8-1.9c-0.5-0.5-1.2-0.7-2.2-0.7h-1.4l-1.2,6.9h1.4
			C183,27.8,183.9,27.5,184.6,26.9z"/>
		<path class="st2" d="M191.7,21.2c0.7-0.9,1.5-1.6,2.5-2.2c1-0.5,2.1-0.8,3.3-0.8c1.4,0,2.6,0.3,3.4,1c0.9,0.7,1.3,1.6,1.4,2.9
			h-3.2c-0.1-0.4-0.4-0.7-0.8-0.9c-0.4-0.2-0.8-0.3-1.3-0.3c-0.9,0-1.7,0.3-2.4,0.9c-0.7,0.6-1.1,1.4-1.3,2.5
			c-0.1,0.3-0.1,0.6-0.1,0.9c0,0.8,0.2,1.5,0.7,1.9c0.5,0.5,1.2,0.7,2.1,0.7c0.7,0,1.4-0.2,1.9-0.6c0.6-0.4,1-0.9,1.3-1.6h-3.7
			l0.4-2.1h6.3l-0.5,2.7c-0.3,0.7-0.8,1.4-1.4,2c-0.6,0.6-1.4,1.1-2.2,1.5c-0.9,0.4-1.8,0.6-2.8,0.6c-1,0-1.9-0.2-2.7-0.6
			s-1.4-1-1.8-1.7c-0.4-0.7-0.6-1.6-0.6-2.5c0-0.3,0-0.7,0.1-1.2C190.6,23.1,191,22.1,191.7,21.2z"/>
		<path class="st2" d="M207.7,20.7l-0.4,2.5h3.9l-0.4,2.2h-3.9l-0.5,2.7h4.4l-0.4,2.3h-7.3l2.1-11.9h7.3l-0.4,2.3H207.7z"/>
	</g>
</g>
</svg>
