<?xml version="1.0" encoding="utf-8"?>
<!-- Generator: Adobe Illustrator 26.3.1, SVG Export Plug-In . SVG Version: 6.00 Build 0)  -->
<svg version="1.1" id="Layer_1" xmlns="http://www.w3.org/2000/svg" xmlns:xlink="http://www.w3.org/1999/xlink" x="0px" y="0px"
	 viewBox="0 0 1920 965" style="enable-background:new 0 0 1920 965;" xml:space="preserve">
<style type="text/css">
	.st0{fill:#FFFFFF;filter:url(#Adobe_OpacityMaskFilter);}
	.st1{mask:url(#mask0_00000160157192907694626910000006510005370152851621_);}
	.st2{opacity:0.4;}
	.st3{fill:url(#SVGID_1_);}
	.st4{fill:url(#SVGID_00000157271463284868333120000005873456649056885141_);}
	.st5{fill:url(#SVGID_00000029766800409901900520000009611871361383443902_);}
	.st6{fill:url(#SVGID_00000113343356191508295130000003774074193570364334_);}
	.st7{fill:url(#SVGID_00000067930078641584805300000004047911243402316712_);}
	.st8{fill:url(#SVGID_00000034808923626274801680000005686360210579374231_);}
	.st9{fill:url(#SVGID_00000147211022156630572490000000834932735079240592_);}
	.st10{fill:url(#SVGID_00000054244222107344045130000007378124448356410799_);}
	.st11{fill:url(#SVGID_00000065796182025264143960000013940924471006158517_);}
	.st12{fill:url(#SVGID_00000154390715202842384100000015083163407164819857_);}
	.st13{fill:url(#SVGID_00000126300138826245595550000003835394758398732676_);}
	.st14{fill:url(#SVGID_00000054959028028492616300000009426656217379349151_);}
	.st15{fill:url(#SVGID_00000096044211840115188420000017605021729857524648_);}
	.st16{fill:url(#SVGID_00000083064738224952652970000014350395359399917216_);}
	.st17{fill:url(#SVGID_00000155848561637196126940000016588206316056759458_);}
	.st18{fill:url(#SVGID_00000175292182426085574860000010020065484385832616_);}
	.st19{fill:url(#SVGID_00000010999736462484355870000012960580192631896705_);}
	.st20{fill:url(#SVGID_00000151516893812797068570000018278456334954236290_);}
	.st21{opacity:0.5;}
	.st22{fill:url(#SVGID_00000132778642589669336500000016986286866137546932_);}
	.st23{fill:url(#SVGID_00000115478359586794263270000007019796089982459021_);}
	.st24{fill:url(#SVGID_00000034810575264085504700000015032520116548375182_);}
	.st25{fill:url(#SVGID_00000072975967132611087050000004374806382252414649_);}
	.st26{fill:url(#SVGID_00000005233104310613963850000016633321100354222231_);}
	.st27{fill:url(#SVGID_00000047768532238064052900000017152753154253768080_);}
	.st28{fill:url(#SVGID_00000005987254352123507910000017934622229251097218_);}
	.st29{fill:url(#SVGID_00000178202429485609342700000012310231827350274441_);}
	.st30{fill:url(#SVGID_00000012446673518262032650000013948438042308638353_);}
	.st31{fill:url(#SVGID_00000177468294691966430930000016219136047642944948_);}
	.st32{fill:url(#SVGID_00000059280449541246647320000001672262289648782749_);}
	.st33{fill:url(#SVGID_00000043448066224455923290000009083467294810780069_);}
	.st34{fill:url(#SVGID_00000152978446807031699380000016401945120459714717_);}
	.st35{fill:url(#SVGID_00000111882365249261988100000001369407720868326813_);}
	.st36{fill:url(#SVGID_00000112610233030322516030000009457575997969547427_);}
	.st37{fill:url(#SVGID_00000150813652484331830690000004427736250920830874_);}
	.st38{fill:url(#SVGID_00000096765426095219729940000010359428328355270333_);}
	.st39{fill:url(#SVGID_00000055704171168548095540000014625218109425481618_);}
	.st40{fill:url(#SVGID_00000154417669629030144660000012312130554070131090_);}
	.st41{fill:url(#SVGID_00000181068260108792319550000015470531468639010697_);}
	.st42{fill:url(#SVGID_00000042013060687194820020000001424661200526334600_);}
	.st43{fill:url(#SVGID_00000173870320225239713230000008234453282795907224_);}
	.st44{fill:url(#SVGID_00000180334551913782363600000009397086719679898267_);}
	.st45{fill:url(#SVGID_00000110460425305154163170000012792697040451233171_);}
	.st46{fill:url(#SVGID_00000016071208713975442440000013872697813359420594_);}
	.st47{fill:url(#SVGID_00000108271342398510727110000008688019840031095230_);}
	.st48{fill:url(#SVGID_00000116925051701445411220000016415024165110417075_);}
	.st49{opacity:0.1;}
	.st50{fill:url(#SVGID_00000119813563518237270900000009380781209726053534_);}
	.st51{fill:url(#SVGID_00000103254941576379092090000000135181237953536396_);}
	.st52{fill:url(#SVGID_00000119814059295936426930000007629622248579716488_);}
	.st53{fill:url(#SVGID_00000165206376145143900710000004751835403032765104_);}
	.st54{fill:url(#SVGID_00000124130790917818585070000003462808694313264319_);}
	.st55{fill:url(#SVGID_00000090279009129469352110000008353469618192303498_);}
</style>
<defs>
	<filter id="Adobe_OpacityMaskFilter" filterUnits="userSpaceOnUse" x="293.1" y="74.9" width="1720.2" height="729.1">
		<feColorMatrix  type="matrix" values="1 0 0 0 0  0 1 0 0 0  0 0 1 0 0  0 0 0 1 0"/>
	</filter>
</defs>
<mask maskUnits="userSpaceOnUse" x="293.1" y="74.9" width="1720.2" height="729.1" id="mask0_00000160157192907694626910000006510005370152851621_">
	<rect class="st0" width="1920" height="965"/>
</mask>
<g class="st1">
	<g class="st2">
		<linearGradient id="SVGID_1_" gradientUnits="userSpaceOnUse" x1="1080.1338" y1="605.7495" x2="1201.8652" y2="605.7495">
			<stop  offset="0" style="stop-color:#FFFFFF"/>
			<stop  offset="0.1487" style="stop-color:#FFCC66"/>
			<stop  offset="0.7075" style="stop-color:#00B454"/>
			<stop  offset="1" style="stop-color:#000000"/>
		</linearGradient>
		<path class="st3" d="M1201.9,658.5h-121.7l61-105.5L1201.9,658.5z M1081.9,657.5h118.3l-59-102.5L1081.9,657.5z"/>
		
			<linearGradient id="SVGID_00000125598767344949079000000003022269224659544216_" gradientUnits="userSpaceOnUse" x1="1020.5" y1="606.2476" x2="1109.8682" y2="606.2476">
			<stop  offset="0" style="stop-color:#FFFFFF"/>
			<stop  offset="0.1487" style="stop-color:#FFCC66"/>
			<stop  offset="0.7075" style="stop-color:#00B454"/>
			<stop  offset="1" style="stop-color:#000000"/>
		</linearGradient>
		<path style="fill:url(#SVGID_00000125598767344949079000000003022269224659544216_);" d="M1064.9,645l-0.4-0.7l-44-76v-0.8h89.4
			L1064.9,645z M1021.8,568.5l43.1,74.5l43.2-74.5H1021.8z"/>
		
			<linearGradient id="SVGID_00000170973961198583434020000011599897057802230193_" gradientUnits="userSpaceOnUse" x1="1092.5" y1="737.5" x2="1189.8662" y2="737.5">
			<stop  offset="0" style="stop-color:#FFFFFF"/>
			<stop  offset="0.1487" style="stop-color:#FFCC66"/>
			<stop  offset="0.7075" style="stop-color:#00B454"/>
			<stop  offset="1" style="stop-color:#000000"/>
		</linearGradient>
		<path style="fill:url(#SVGID_00000170973961198583434020000011599897057802230193_);" d="M1141.4,779.5h-0.7l-48.1-83.2v-0.8h97.4
			l-0.4,0.8L1141.4,779.5z M1093.8,696.5l47.2,81.6l47.1-81.6H1093.8z"/>
		
			<linearGradient id="SVGID_00000049931327503199741590000017835704180505354415_" gradientUnits="userSpaceOnUse" x1="1447.6914" y1="502.4087" x2="1493.667" y2="502.4087">
			<stop  offset="0" style="stop-color:#FFFFFF"/>
			<stop  offset="0.1487" style="stop-color:#FFCC66"/>
			<stop  offset="0.7075" style="stop-color:#00B454"/>
			<stop  offset="1" style="stop-color:#000000"/>
		</linearGradient>
		<path style="fill:url(#SVGID_00000049931327503199741590000017835704180505354415_);" d="M1493.7,522.2h-46l23-39.6L1493.7,522.2z
			 M1449.4,521.2h42.5l-21.2-36.6L1449.4,521.2z"/>
		
			<linearGradient id="SVGID_00000000208296434058793600000012629573915377973413_" gradientUnits="userSpaceOnUse" x1="1350.4453" y1="555.144" x2="1404.8105" y2="555.144">
			<stop  offset="0" style="stop-color:#FFFFFF"/>
			<stop  offset="0.1487" style="stop-color:#FFCC66"/>
			<stop  offset="0.7075" style="stop-color:#00B454"/>
			<stop  offset="1" style="stop-color:#000000"/>
		</linearGradient>
		<path style="fill:url(#SVGID_00000000208296434058793600000012629573915377973413_);" d="M1377.8,578.9l-0.4-0.8l-26.9-46.8h54.4
			v0.6l-0.1,0.2L1377.8,578.9z M1352.2,532.4l25.6,44.5l25.7-44.5H1352.2z"/>
		
			<linearGradient id="SVGID_00000055694531306810690630000012269927049076526509_" gradientUnits="userSpaceOnUse" x1="1347.1074" y1="470.752" x2="1364.9561" y2="470.752">
			<stop  offset="0" style="stop-color:#FFFFFF"/>
			<stop  offset="0.1487" style="stop-color:#FFCC66"/>
			<stop  offset="0.7075" style="stop-color:#00B454"/>
			<stop  offset="1" style="stop-color:#000000"/>
		</linearGradient>
		<path style="fill:url(#SVGID_00000055694531306810690630000012269927049076526509_);" d="M1347.1,478.5l8.9-15.5l8.9,15.5
			L1347.1,478.5z M1356,465l-7.2,12.5l14.4,0L1356,465z"/>
		
			<linearGradient id="SVGID_00000106114719858617486930000000698513906845641660_" gradientUnits="userSpaceOnUse" x1="1484.3047" y1="491.6536" x2="1507.1758" y2="491.6536">
			<stop  offset="0" style="stop-color:#FFFFFF"/>
			<stop  offset="0.1487" style="stop-color:#FFCC66"/>
			<stop  offset="0.7075" style="stop-color:#00B454"/>
			<stop  offset="1" style="stop-color:#000000"/>
		</linearGradient>
		<path style="fill:url(#SVGID_00000106114719858617486930000000698513906845641660_);" d="M1495.7,501.6l-11.4-19.9h22.9
			L1495.7,501.6z M1486,482.7l9.7,16.8l9.7-16.8H1486z"/>
		
			<linearGradient id="SVGID_00000007397856429646025840000004817545920867132570_" gradientUnits="userSpaceOnUse" x1="1380.2334" y1="588.9023" x2="1448.3857" y2="588.9023">
			<stop  offset="0" style="stop-color:#FFFFFF"/>
			<stop  offset="0.1487" style="stop-color:#FFCC66"/>
			<stop  offset="0.7075" style="stop-color:#00B454"/>
			<stop  offset="1" style="stop-color:#000000"/>
		</linearGradient>
		<path style="fill:url(#SVGID_00000007397856429646025840000004817545920867132570_);" d="M1448.4,618.4h-68.2l34.1-59
			L1448.4,618.4z M1382,617.4h64.7l-32.3-56L1382,617.4z"/>
		
			<linearGradient id="SVGID_00000126311624400696717980000012670813054119006890_" gradientUnits="userSpaceOnUse" x1="1433.8105" y1="569.0933" x2="1501.7148" y2="569.0933">
			<stop  offset="0" style="stop-color:#FFFFFF"/>
			<stop  offset="0.1487" style="stop-color:#FFCC66"/>
			<stop  offset="0.7075" style="stop-color:#00B454"/>
			<stop  offset="1" style="stop-color:#000000"/>
		</linearGradient>
		<path style="fill:url(#SVGID_00000126311624400696717980000012670813054119006890_);" d="M1467.9,598.4h-0.7l-0.1-0.2l-33.3-57.6
			v-0.8h67.9l-0.4,0.8L1467.9,598.4z M1435.1,540.8l32.5,56.2l32.4-56.2H1435.1z"/>
	</g>
	<g class="st2">
		
			<linearGradient id="SVGID_00000024703912378347206920000007947784451964798900_" gradientUnits="userSpaceOnUse" x1="598.4453" y1="675.4233" x2="720.1763" y2="675.4233">
			<stop  offset="0" style="stop-color:#FFFFFF"/>
			<stop  offset="0.1487" style="stop-color:#FFCC66"/>
			<stop  offset="0.7075" style="stop-color:#00B454"/>
			<stop  offset="1" style="stop-color:#000000"/>
		</linearGradient>
		<path style="fill:url(#SVGID_00000024703912378347206920000007947784451964798900_);" d="M659.2,728.2l-60.8-105.5h121.7
			L659.2,728.2z M600.2,623.7l59,102.5l59.2-102.5H600.2z"/>
		
			<linearGradient id="SVGID_00000022525979772746229840000002584771889028424366_" gradientUnits="userSpaceOnUse" x1="690.4419" y1="660.7524" x2="779.8101" y2="660.7524">
			<stop  offset="0" style="stop-color:#FFFFFF"/>
			<stop  offset="0.1487" style="stop-color:#FFCC66"/>
			<stop  offset="0.7075" style="stop-color:#00B454"/>
			<stop  offset="1" style="stop-color:#000000"/>
		</linearGradient>
		<path style="fill:url(#SVGID_00000022525979772746229840000002584771889028424366_);" d="M779.8,699.5h-89.4l44.9-77.5l44.4,76.7
			V699.5z M692.2,698.5h86.4L735.4,624L692.2,698.5z"/>
		
			<linearGradient id="SVGID_00000144314894867452460510000017737975892463081353_" gradientUnits="userSpaceOnUse" x1="610.4438" y1="529.5" x2="707.8101" y2="529.5">
			<stop  offset="0" style="stop-color:#FFFFFF"/>
			<stop  offset="0.1487" style="stop-color:#FFCC66"/>
			<stop  offset="0.7075" style="stop-color:#00B454"/>
			<stop  offset="1" style="stop-color:#000000"/>
		</linearGradient>
		<path style="fill:url(#SVGID_00000144314894867452460510000017737975892463081353_);" d="M707.8,571.5h-97.4l48.5-84h0.7l0.1,0.2
			l48,82.9V571.5z M612.2,570.5h94.4l-47.2-81.6L612.2,570.5z"/>
		
			<linearGradient id="SVGID_00000110436127723855922120000017326286057888203451_" gradientUnits="userSpaceOnUse" x1="306.6421" y1="764.5913" x2="352.6191" y2="764.5913">
			<stop  offset="0" style="stop-color:#FFFFFF"/>
			<stop  offset="0.1487" style="stop-color:#FFCC66"/>
			<stop  offset="0.7075" style="stop-color:#00B454"/>
			<stop  offset="1" style="stop-color:#000000"/>
		</linearGradient>
		<path style="fill:url(#SVGID_00000110436127723855922120000017326286057888203451_);" d="M329.6,784.4l-22.9-39.6h46L329.6,784.4z
			 M308.4,745.8l21.2,36.6l21.3-36.6H308.4z"/>
		
			<linearGradient id="SVGID_00000176735863322602021780000015213484479824391336_" gradientUnits="userSpaceOnUse" x1="395.5" y1="711.856" x2="449.8652" y2="711.856">
			<stop  offset="0" style="stop-color:#FFFFFF"/>
			<stop  offset="0.1487" style="stop-color:#FFCC66"/>
			<stop  offset="0.7075" style="stop-color:#00B454"/>
			<stop  offset="1" style="stop-color:#000000"/>
		</linearGradient>
		<path style="fill:url(#SVGID_00000176735863322602021780000015213484479824391336_);" d="M449.9,735.6h-54.4V735l0.1-0.2
			l26.9-46.7L449.9,735.6z M396.8,734.6h51.3l-25.6-44.5L396.8,734.6z"/>
		
			<linearGradient id="SVGID_00000110442024252706685630000006766342671267743408_" gradientUnits="userSpaceOnUse" x1="435.3535" y1="796.248" x2="453.2036" y2="796.248">
			<stop  offset="0" style="stop-color:#FFFFFF"/>
			<stop  offset="0.1487" style="stop-color:#FFCC66"/>
			<stop  offset="0.7075" style="stop-color:#00B454"/>
			<stop  offset="1" style="stop-color:#000000"/>
		</linearGradient>
		<path style="fill:url(#SVGID_00000110442024252706685630000006766342671267743408_);" d="M444.3,804l-8.9-15.5l17.9,0L444.3,804z
			 M437.1,789.5l7.2,12.5l7.2-12.5L437.1,789.5z"/>
		
			<linearGradient id="SVGID_00000131365791391756595260000009740573698232512688_" gradientUnits="userSpaceOnUse" x1="293.1348" y1="775.3467" x2="316.0054" y2="775.3467">
			<stop  offset="0" style="stop-color:#FFFFFF"/>
			<stop  offset="0.1487" style="stop-color:#FFCC66"/>
			<stop  offset="0.7075" style="stop-color:#00B454"/>
			<stop  offset="1" style="stop-color:#000000"/>
		</linearGradient>
		<path style="fill:url(#SVGID_00000131365791391756595260000009740573698232512688_);" d="M316,785.3h-22.9l11.4-19.9L316,785.3z
			 M294.9,784.3h19.4l-9.7-16.8L294.9,784.3z"/>
		
			<linearGradient id="SVGID_00000054964567890329468930000002762057872147231621_" gradientUnits="userSpaceOnUse" x1="351.9238" y1="678.0977" x2="420.0762" y2="678.0977">
			<stop  offset="0" style="stop-color:#FFFFFF"/>
			<stop  offset="0.1487" style="stop-color:#FFCC66"/>
			<stop  offset="0.7075" style="stop-color:#00B454"/>
			<stop  offset="1" style="stop-color:#000000"/>
		</linearGradient>
		<path style="fill:url(#SVGID_00000054964567890329468930000002762057872147231621_);" d="M386,707.6l-34.1-59h68.2L386,707.6z
			 M353.7,649.6l32.3,56l32.3-56H353.7z"/>
		
			<linearGradient id="SVGID_00000176724466493313261250000014848713481816222891_" gradientUnits="userSpaceOnUse" x1="298.5947" y1="697.9067" x2="366.5" y2="697.9067">
			<stop  offset="0" style="stop-color:#FFFFFF"/>
			<stop  offset="0.1487" style="stop-color:#FFCC66"/>
			<stop  offset="0.7075" style="stop-color:#00B454"/>
			<stop  offset="1" style="stop-color:#000000"/>
		</linearGradient>
		<path style="fill:url(#SVGID_00000176724466493313261250000014848713481816222891_);" d="M366.5,727.2h-67.9l33.8-58.6h0.7
			l33.4,57.8V727.2z M300.3,726.2h64.9L332.7,670L300.3,726.2z"/>
	</g>
	<g class="st21">
		
			<linearGradient id="SVGID_00000069356109551116212960000013310868042496993469_" gradientUnits="userSpaceOnUse" x1="1008.1367" y1="474.2466" x2="1120.8613" y2="474.2466">
			<stop  offset="0" style="stop-color:#FFFFFF"/>
			<stop  offset="0.1487" style="stop-color:#FFCC66"/>
			<stop  offset="0.7075" style="stop-color:#00B454"/>
			<stop  offset="1" style="stop-color:#000000"/>
		</linearGradient>
		<path style="fill:url(#SVGID_00000069356109551116212960000013310868042496993469_);" d="M1120.9,523.5h-112.7l56.5-98.5
			L1120.9,523.5z M1009.9,522.5h109.3l-54.5-95.5L1009.9,522.5z"/>
		
			<linearGradient id="SVGID_00000054988742879944587410000009069997520747083431_" gradientUnits="userSpaceOnUse" x1="927.499" y1="454.251" x2="1050.8652" y2="454.251">
			<stop  offset="0" style="stop-color:#FFFFFF"/>
			<stop  offset="0.1487" style="stop-color:#FFCC66"/>
			<stop  offset="0.7075" style="stop-color:#00B454"/>
			<stop  offset="1" style="stop-color:#000000"/>
		</linearGradient>
		<path style="fill:url(#SVGID_00000054988742879944587410000009069997520747083431_);" d="M988.9,508l-61.4-106.7v-0.8h123.4
			l-0.4,0.7L988.9,508z M928.7,401.5L988.9,506l60.2-104.5H928.7z"/>
		
			<linearGradient id="SVGID_00000143579066681581627750000007250089141584421822_" gradientUnits="userSpaceOnUse" x1="1455.5" y1="677.5" x2="1550.8672" y2="677.5">
			<stop  offset="0" style="stop-color:#FFFFFF"/>
			<stop  offset="0.1487" style="stop-color:#FFCC66"/>
			<stop  offset="0.7075" style="stop-color:#00B454"/>
			<stop  offset="1" style="stop-color:#000000"/>
		</linearGradient>
		<path style="fill:url(#SVGID_00000143579066681581627750000007250089141584421822_);" d="M1503.4,718.5h-0.7l-47.1-81.2v-0.8h95.4
			L1503.4,718.5z M1456.8,637.5l46.2,79.6l46.1-79.6H1456.8z"/>
		
			<linearGradient id="SVGID_00000137102859098761228990000015832527919585480102_" gradientUnits="userSpaceOnUse" x1="1225.4727" y1="342.6211" x2="1379.1055" y2="342.6211">
			<stop  offset="0" style="stop-color:#FFFFFF"/>
			<stop  offset="0.1487" style="stop-color:#FFCC66"/>
			<stop  offset="0.7075" style="stop-color:#00B454"/>
			<stop  offset="1" style="stop-color:#000000"/>
		</linearGradient>
		<path style="fill:url(#SVGID_00000137102859098761228990000015832527919585480102_);" d="M1379.1,409.1h-153.6l76.9-133l0.4,0.7
			L1379.1,409.1z M1227.2,408.1h150.2l-75-130L1227.2,408.1z"/>
		
			<linearGradient id="SVGID_00000078015823336758949550000002743051067846318481_" gradientUnits="userSpaceOnUse" x1="1081.1328" y1="474.7485" x2="1199.5" y2="474.7485">
			<stop  offset="0" style="stop-color:#FFFFFF"/>
			<stop  offset="0.1487" style="stop-color:#FFCC66"/>
			<stop  offset="0.7075" style="stop-color:#00B454"/>
			<stop  offset="1" style="stop-color:#000000"/>
		</linearGradient>
		<path style="fill:url(#SVGID_00000078015823336758949550000002743051067846318481_);" d="M1140.5,526l-0.4-0.7l-58.9-101.8h118.4
			v0.8L1140.5,526z M1082.9,424.5l57.6,99.5l57.8-99.5H1082.9z"/>
		
			<linearGradient id="SVGID_00000011748588597187393990000003024455680734132415_" gradientUnits="userSpaceOnUse" x1="1139.1504" y1="328.7668" x2="1161.8457" y2="328.7668">
			<stop  offset="0" style="stop-color:#FFFFFF"/>
			<stop  offset="0.1487" style="stop-color:#FFCC66"/>
			<stop  offset="0.7075" style="stop-color:#00B454"/>
			<stop  offset="1" style="stop-color:#000000"/>
		</linearGradient>
		<path style="fill:url(#SVGID_00000011748588597187393990000003024455680734132415_);" d="M1150.5,339l-11.4-20.5h22.7L1150.5,339z
			 M1140.8,319.5l9.7,17.5l9.6-17.5H1140.8z"/>
		
			<linearGradient id="SVGID_00000085241237893443851260000011932718864603302799_" gradientUnits="userSpaceOnUse" x1="1341.585" y1="297.262" x2="1391.5654" y2="297.262">
			<stop  offset="0" style="stop-color:#FFFFFF"/>
			<stop  offset="0.1487" style="stop-color:#FFCC66"/>
			<stop  offset="0.7075" style="stop-color:#00B454"/>
			<stop  offset="1" style="stop-color:#000000"/>
		</linearGradient>
		<path style="fill:url(#SVGID_00000085241237893443851260000011932718864603302799_);" d="M1366.6,319l-25-43.4h50L1366.6,319z
			 M1343.3,276.6l23.3,40.4l23.3-40.4H1343.3z"/>
		
			<linearGradient id="SVGID_00000047765241250024997670000013523504168401578627_" gradientUnits="userSpaceOnUse" x1="1149.6641" y1="474.2371" x2="1303.0264" y2="474.2371">
			<stop  offset="0" style="stop-color:#FFFFFF"/>
			<stop  offset="0.1487" style="stop-color:#FFCC66"/>
			<stop  offset="0.7075" style="stop-color:#00B454"/>
			<stop  offset="1" style="stop-color:#000000"/>
		</linearGradient>
		<path style="fill:url(#SVGID_00000047765241250024997670000013523504168401578627_);" d="M1303,540.6h-153.4l76.7-132.7l0.4,0.7
			L1303,540.6z M1151.4,539.6h149.9l-75-129.7L1151.4,539.6z"/>
		
			<linearGradient id="SVGID_00000098194336037628281700000017746822047565901479_" gradientUnits="userSpaceOnUse" x1="1255.5" y1="474.5" x2="1368.8652" y2="474.5">
			<stop  offset="0" style="stop-color:#FFFFFF"/>
			<stop  offset="0.1487" style="stop-color:#FFCC66"/>
			<stop  offset="0.7075" style="stop-color:#00B454"/>
			<stop  offset="1" style="stop-color:#000000"/>
		</linearGradient>
		<path style="fill:url(#SVGID_00000098194336037628281700000017746822047565901479_);" d="M1312.4,523.5h-0.8l-0.1-0.2l-56-96.9
			v-0.8h113.4L1312.4,523.5z M1256.8,426.5l55.2,95.7l55.1-95.7H1256.8z"/>
	</g>
	<g class="st21">
		
			<linearGradient id="SVGID_00000020366257373722922800000008102366813530319250_" gradientUnits="userSpaceOnUse" x1="912.7676" y1="606.6895" x2="1066.4062" y2="606.6895">
			<stop  offset="0" style="stop-color:#FFFFFF"/>
			<stop  offset="0.1487" style="stop-color:#FFCC66"/>
			<stop  offset="0.7075" style="stop-color:#00B454"/>
			<stop  offset="1" style="stop-color:#000000"/>
		</linearGradient>
		<path style="fill:url(#SVGID_00000020366257373722922800000008102366813530319250_);" d="M1066.4,673.2l-153.6-0.1l76.8-132.9
			l0.4,0.8L1066.4,673.2z M914.5,672.1l150.2,0.1l-75.1-130L914.5,672.1z"/>
		
			<linearGradient id="SVGID_00000028291507783352891430000016918594557456853915_" gradientUnits="userSpaceOnUse" x1="989.2617" y1="711.9121" x2="1020.4648" y2="711.9121">
			<stop  offset="0" style="stop-color:#FFFFFF"/>
			<stop  offset="0.1487" style="stop-color:#FFCC66"/>
			<stop  offset="0.7075" style="stop-color:#00B454"/>
			<stop  offset="1" style="stop-color:#000000"/>
		</linearGradient>
		<path style="fill:url(#SVGID_00000028291507783352891430000016918594557456853915_);" d="M1004.7,725.2l-0.3-0.4l-15.2-26.3
			l31.2,0l-15.2,26.3L1004.7,725.2z M991,699.6l13.9,24.1l13.9-24L991,699.6z"/>
		
			<linearGradient id="SVGID_00000008862440930802443180000010804866915419734172_" gradientUnits="userSpaceOnUse" x1="1244.1338" y1="725.3071" x2="1341.7246" y2="725.3071">
			<stop  offset="0" style="stop-color:#FFFFFF"/>
			<stop  offset="0.1487" style="stop-color:#FFCC66"/>
			<stop  offset="0.7075" style="stop-color:#00B454"/>
			<stop  offset="1" style="stop-color:#000000"/>
		</linearGradient>
		<path style="fill:url(#SVGID_00000008862440930802443180000010804866915419734172_);" d="M1292.9,767.6l-48.8-84.4h0.9l96.4-0.1
			l0.4,0.7l-0.1,0.2l-48,83.2L1292.9,767.6z M1245.9,684.1l47.3,81.9l47.2-81.9L1245.9,684.1z"/>
		
			<linearGradient id="SVGID_00000129907076526046315070000007390468612168167594_" gradientUnits="userSpaceOnUse" x1="719.5996" y1="499.3589" x2="826.064" y2="499.3589">
			<stop  offset="0" style="stop-color:#FFFFFF"/>
			<stop  offset="0.1487" style="stop-color:#FFCC66"/>
			<stop  offset="0.7075" style="stop-color:#00B454"/>
			<stop  offset="1" style="stop-color:#000000"/>
		</linearGradient>
		<path style="fill:url(#SVGID_00000129907076526046315070000007390468612168167594_);" d="M826.1,545.5l-106.5-0.1l53.2-92.1
			L826.1,545.5z M721.3,544.4l103,0.1l-51.5-89.2L721.3,544.4z"/>
		
			<linearGradient id="SVGID_00000017506205328831163810000006481521416106824374_" gradientUnits="userSpaceOnUse" x1="842.9375" y1="624.4399" x2="949.1265" y2="624.4399">
			<stop  offset="0" style="stop-color:#FFFFFF"/>
			<stop  offset="0.1487" style="stop-color:#FFCC66"/>
			<stop  offset="0.7075" style="stop-color:#00B454"/>
			<stop  offset="1" style="stop-color:#000000"/>
		</linearGradient>
		<path style="fill:url(#SVGID_00000017506205328831163810000006481521416106824374_);" d="M895.9,670.5l-53-91.7l0.7-0.4l105.5,0
			L895.9,670.5z M844.4,579.4l51.5,89.1l51.5-89.1L844.4,579.4z"/>
		
			<linearGradient id="SVGID_00000179633336366056835790000005348613598527421578_" gradientUnits="userSpaceOnUse" x1="748.2539" y1="642.5156" x2="798.6987" y2="642.5156">
			<stop  offset="0" style="stop-color:#FFFFFF"/>
			<stop  offset="0.1487" style="stop-color:#FFCC66"/>
			<stop  offset="0.7075" style="stop-color:#00B454"/>
			<stop  offset="1" style="stop-color:#000000"/>
		</linearGradient>
		<path style="fill:url(#SVGID_00000179633336366056835790000005348613598527421578_);" d="M773.5,664.4l-25.3-43.8l50.4-0.1
			L773.5,664.4z M750,621.7l23.5,40.8l23.5-40.8L750,621.7z"/>
		
			<linearGradient id="SVGID_00000092429227474328259530000012534997551049954956_" gradientUnits="userSpaceOnUse" x1="693.6133" y1="505.3916" x2="720.5444" y2="505.3916">
			<stop  offset="0" style="stop-color:#FFFFFF"/>
			<stop  offset="0.1487" style="stop-color:#FFCC66"/>
			<stop  offset="0.7075" style="stop-color:#00B454"/>
			<stop  offset="1" style="stop-color:#000000"/>
		</linearGradient>
		<path style="fill:url(#SVGID_00000092429227474328259530000012534997551049954956_);" d="M707.1,517l-13.4-23.3l26.9,0L707.1,517z
			 M695.3,494.8l11.7,20.3l11.8-20.3L695.3,494.8z"/>
		
			<linearGradient id="SVGID_00000152245512540088750690000005522955208744085903_" gradientUnits="userSpaceOnUse" x1="835.3052" y1="498.7292" x2="912.668" y2="498.7292">
			<stop  offset="0" style="stop-color:#FFFFFF"/>
			<stop  offset="0.1487" style="stop-color:#FFCC66"/>
			<stop  offset="0.7075" style="stop-color:#00B454"/>
			<stop  offset="1" style="stop-color:#000000"/>
		</linearGradient>
		<path style="fill:url(#SVGID_00000152245512540088750690000005522955208744085903_);" d="M912.7,532.2l-77.4,0l38.7-67
			L912.7,532.2z M837,531.2l73.9,0l-37-64L837,531.2z"/>
		
			<linearGradient id="SVGID_00000092449498815608401090000005251674078079352980_" gradientUnits="userSpaceOnUse" x1="771.9692" y1="465.2" x2="878.1431" y2="465.2">
			<stop  offset="0" style="stop-color:#FFFFFF"/>
			<stop  offset="0.1487" style="stop-color:#FFCC66"/>
			<stop  offset="0.7075" style="stop-color:#00B454"/>
			<stop  offset="1" style="stop-color:#000000"/>
		</linearGradient>
		<path style="fill:url(#SVGID_00000092449498815608401090000005251674078079352980_);" d="M825,511.2l-0.3-0.4L772,419.3l105.8-0.1
			l0.4,0.7l-0.1,0.2l-52.3,90.6L825,511.2z M773.7,420.3l51.5,89.3l51.5-89.3L773.7,420.3z"/>
	</g>
	<g class="st21">
		
			<linearGradient id="SVGID_00000106840758982803381720000008500984255088483469_" gradientUnits="userSpaceOnUse" x1="1584.3301" y1="262.3997" x2="1737.9688" y2="262.3997">
			<stop  offset="0" style="stop-color:#FFFFFF"/>
			<stop  offset="0.1487" style="stop-color:#FFCC66"/>
			<stop  offset="0.7075" style="stop-color:#00B454"/>
			<stop  offset="1" style="stop-color:#000000"/>
		</linearGradient>
		<path style="fill:url(#SVGID_00000106840758982803381720000008500984255088483469_);" d="M1738,328.9l-153.6-0.1l0.4-0.7
			l76.4-132.1L1738,328.9z M1586.1,327.8l150.2,0.1l-75.1-130L1586.1,327.8z"/>
		
			<linearGradient id="SVGID_00000127030429615231899940000015106625931337885119_" gradientUnits="userSpaceOnUse" x1="1660.8242" y1="367.6189" x2="1692.0273" y2="367.6189">
			<stop  offset="0" style="stop-color:#FFFFFF"/>
			<stop  offset="0.1487" style="stop-color:#FFCC66"/>
			<stop  offset="0.7075" style="stop-color:#00B454"/>
			<stop  offset="1" style="stop-color:#000000"/>
		</linearGradient>
		<path style="fill:url(#SVGID_00000127030429615231899940000015106625931337885119_);" d="M1676.3,380.9l-0.3-0.4l-15.2-26.3
			l31.2,0l-15.2,26.3L1676.3,380.9z M1662.6,355.3l13.9,24.1l13.9-24L1662.6,355.3z"/>
		
			<linearGradient id="SVGID_00000078014293286372829680000005764321654680648104_" gradientUnits="userSpaceOnUse" x1="1915.6963" y1="381.0168" x2="2013.2861" y2="381.0168">
			<stop  offset="0" style="stop-color:#FFFFFF"/>
			<stop  offset="0.1487" style="stop-color:#FFCC66"/>
			<stop  offset="0.7075" style="stop-color:#00B454"/>
			<stop  offset="1" style="stop-color:#000000"/>
		</linearGradient>
		<path style="fill:url(#SVGID_00000078014293286372829680000005764321654680648104_);" d="M1964.4,423.3l-48.7-84.4l97.2-0.1
			l0.4,0.7l-0.1,0.2l-48,83.2L1964.4,423.3z M1917.4,339.8l47.3,81.9l47.2-81.9L1917.4,339.8z"/>
		
			<linearGradient id="SVGID_00000167386427352469386910000001598075552552276366_" gradientUnits="userSpaceOnUse" x1="1391.1621" y1="155.0684" x2="1497.626" y2="155.0684">
			<stop  offset="0" style="stop-color:#FFFFFF"/>
			<stop  offset="0.1487" style="stop-color:#FFCC66"/>
			<stop  offset="0.7075" style="stop-color:#00B454"/>
			<stop  offset="1" style="stop-color:#000000"/>
		</linearGradient>
		<path style="fill:url(#SVGID_00000167386427352469386910000001598075552552276366_);" d="M1497.6,201.2l-106.5-0.1l0.4-0.7
			l52.8-91.3L1497.6,201.2z M1392.9,200.1l103,0.1l-51.5-89.2L1392.9,200.1z"/>
		
			<linearGradient id="SVGID_00000071554245964295473400000000980372676778344322_" gradientUnits="userSpaceOnUse" x1="1514.501" y1="280.1492" x2="1620.6885" y2="280.1492">
			<stop  offset="0" style="stop-color:#FFFFFF"/>
			<stop  offset="0.1487" style="stop-color:#FFCC66"/>
			<stop  offset="0.7075" style="stop-color:#00B454"/>
			<stop  offset="1" style="stop-color:#000000"/>
		</linearGradient>
		<path style="fill:url(#SVGID_00000071554245964295473400000000980372676778344322_);" d="M1567.5,326.2l-53-91.7l0.7-0.4l105.5,0
			L1567.5,326.2z M1516,235.1l51.5,89.1l51.5-89.1L1516,235.1z"/>
		
			<linearGradient id="SVGID_00000138572489024493369370000007295734103213033642_" gradientUnits="userSpaceOnUse" x1="1419.8164" y1="298.2253" x2="1470.2607" y2="298.2253">
			<stop  offset="0" style="stop-color:#FFFFFF"/>
			<stop  offset="0.1487" style="stop-color:#FFCC66"/>
			<stop  offset="0.7075" style="stop-color:#00B454"/>
			<stop  offset="1" style="stop-color:#000000"/>
		</linearGradient>
		<path style="fill:url(#SVGID_00000138572489024493369370000007295734103213033642_);" d="M1445.1,320.1l-25.3-43.8l50.4-0.1
			L1445.1,320.1z M1421.5,277.4l23.5,40.8l23.5-40.8L1421.5,277.4z"/>
		
			<linearGradient id="SVGID_00000148648614821639031340000006760054256202531007_" gradientUnits="userSpaceOnUse" x1="1365.1758" y1="161.1013" x2="1392.1064" y2="161.1013">
			<stop  offset="0" style="stop-color:#FFFFFF"/>
			<stop  offset="0.1487" style="stop-color:#FFCC66"/>
			<stop  offset="0.7075" style="stop-color:#00B454"/>
			<stop  offset="1" style="stop-color:#000000"/>
		</linearGradient>
		<path style="fill:url(#SVGID_00000148648614821639031340000006760054256202531007_);" d="M1378.6,172.8l-13.4-23.3l26.9,0
			L1378.6,172.8z M1366.9,150.5l11.7,20.3l11.8-20.3L1366.9,150.5z"/>
		
			<linearGradient id="SVGID_00000032628067375761235260000009681137171663265174_" gradientUnits="userSpaceOnUse" x1="1506.8682" y1="154.4395" x2="1584.2305" y2="154.4395">
			<stop  offset="0" style="stop-color:#FFFFFF"/>
			<stop  offset="0.1487" style="stop-color:#FFCC66"/>
			<stop  offset="0.7075" style="stop-color:#00B454"/>
			<stop  offset="1" style="stop-color:#000000"/>
		</linearGradient>
		<path style="fill:url(#SVGID_00000032628067375761235260000009681137171663265174_);" d="M1584.2,188l-77.4,0l38.7-67l0.4,0.8
			L1584.2,188z M1508.6,186.9l73.9,0l-37-64L1508.6,186.9z"/>
		
			<linearGradient id="SVGID_00000175295929514102258180000010159428266459777951_" gradientUnits="userSpaceOnUse" x1="1443.5312" y1="120.9094" x2="1549.7051" y2="120.9094">
			<stop  offset="0" style="stop-color:#FFFFFF"/>
			<stop  offset="0.1487" style="stop-color:#FFCC66"/>
			<stop  offset="0.7075" style="stop-color:#00B454"/>
			<stop  offset="1" style="stop-color:#000000"/>
		</linearGradient>
		<path style="fill:url(#SVGID_00000175295929514102258180000010159428266459777951_);" d="M1496.6,166.9l-53-91.9l105.8-0.1
			l0.4,0.7l-52.4,90.9L1496.6,166.9z M1445.3,76l51.5,89.3l51.5-89.3L1445.3,76z"/>
	</g>
	<g class="st49">
		
			<linearGradient id="SVGID_00000119816054831416830910000014968592273210591413_" gradientUnits="userSpaceOnUse" x1="481.7456" y1="548.8369" x2="537.6724" y2="548.8369">
			<stop  offset="0" style="stop-color:#FFFFFF"/>
			<stop  offset="0.1487" style="stop-color:#FFCC66"/>
			<stop  offset="0.7075" style="stop-color:#00B454"/>
			<stop  offset="1" style="stop-color:#000000"/>
		</linearGradient>
		<path style="fill:url(#SVGID_00000119816054831416830910000014968592273210591413_);" d="M537.7,573.1l-55.9-0.1l28-48.4
			L537.7,573.1z M483.5,572l52.5,0l-26.2-45.4L483.5,572z"/>
		
			<linearGradient id="SVGID_00000147911269914026842210000000261081419526700180_" gradientUnits="userSpaceOnUse" x1="590.8022" y1="442.1101" x2="645.7388" y2="442.1101">
			<stop  offset="0" style="stop-color:#FFFFFF"/>
			<stop  offset="0.1487" style="stop-color:#FFCC66"/>
			<stop  offset="0.7075" style="stop-color:#00B454"/>
			<stop  offset="1" style="stop-color:#000000"/>
		</linearGradient>
		<path style="fill:url(#SVGID_00000147911269914026842210000000261081419526700180_);" d="M645.7,465.7l-54.9,0l27.3-47.2l0.5,0.3
			l0.1,0.2L645.7,465.7z M592.5,464.7l51.5,0l-25.7-44.6L592.5,464.7z"/>
		
			<linearGradient id="SVGID_00000092435580538787173770000005712764161543696541_" gradientUnits="userSpaceOnUse" x1="418.9604" y1="487.2969" x2="461.5747" y2="487.2969">
			<stop  offset="0" style="stop-color:#FFFFFF"/>
			<stop  offset="0.1487" style="stop-color:#FFCC66"/>
			<stop  offset="0.7075" style="stop-color:#00B454"/>
			<stop  offset="1" style="stop-color:#000000"/>
		</linearGradient>
		<path style="fill:url(#SVGID_00000092435580538787173770000005712764161543696541_);" d="M440.3,505.8l-21.3-37l42.6-0.1
			L440.3,505.8z M420.7,469.8l19.6,34l19.5-34L420.7,469.8z"/>
		
			<linearGradient id="SVGID_00000135658230629255951370000001019600006939016333_" gradientUnits="userSpaceOnUse" x1="353.96" y1="462.1626" x2="376.8403" y2="462.1626">
			<stop  offset="0" style="stop-color:#FFFFFF"/>
			<stop  offset="0.1487" style="stop-color:#FFCC66"/>
			<stop  offset="0.7075" style="stop-color:#00B454"/>
			<stop  offset="1" style="stop-color:#000000"/>
		</linearGradient>
		<path style="fill:url(#SVGID_00000135658230629255951370000001019600006939016333_);" d="M365.4,472.1L354,452.3l22.9,0
			L365.4,472.1z M355.7,453.3l9.7,16.8l9.7-16.8L355.7,453.3z"/>
		
			<linearGradient id="SVGID_00000060010508963029934570000009949011926181085073_" gradientUnits="userSpaceOnUse" x1="524.8369" y1="397.8721" x2="590.043" y2="397.8721">
			<stop  offset="0" style="stop-color:#FFFFFF"/>
			<stop  offset="0.1487" style="stop-color:#FFCC66"/>
			<stop  offset="0.7075" style="stop-color:#00B454"/>
			<stop  offset="1" style="stop-color:#000000"/>
		</linearGradient>
		<path style="fill:url(#SVGID_00000060010508963029934570000009949011926181085073_);" d="M590,426.1l-65.2,0l32.6-56.5L590,426.1z
			 M526.6,425.1l61.7,0l-30.9-53.5L526.6,425.1z"/>
		
			<linearGradient id="SVGID_00000124128282439163911660000015705031975857358987_" gradientUnits="userSpaceOnUse" x1="483.96" y1="403.9163" x2="515.6895" y2="403.9163">
			<stop  offset="0" style="stop-color:#FFFFFF"/>
			<stop  offset="0.1487" style="stop-color:#FFCC66"/>
			<stop  offset="0.7075" style="stop-color:#00B454"/>
			<stop  offset="1" style="stop-color:#000000"/>
		</linearGradient>
		<path style="fill:url(#SVGID_00000124128282439163911660000015705031975857358987_);" d="M499.8,417.6l-0.3-0.4l-15.6-27l31.4,0
			l0.3,0.6l-15.3,26.5L499.8,417.6z M485.7,391.2L500,416l14.3-24.8L485.7,391.2z"/>
	</g>
</g>
</svg>
