<?xml version="1.0" encoding="utf-8"?>
<!-- Generator: Adobe Illustrator 26.2.1, SVG Export Plug-In . SVG Version: 6.00 Build 0)  -->
<svg version="1.1" id="Layer_1" xmlns="http://www.w3.org/2000/svg" xmlns:xlink="http://www.w3.org/1999/xlink" x="0px" y="0px"
	 viewBox="0 0 2500 829.1" style="enable-background:new 0 0 2500 829.1;" xml:space="preserve">
<style type="text/css">
	.st0{fill:none;}
	.st1{fill:#999999;}
</style>
<g>
	<path class="st0" d="M778,332.1c11.8-16.1,28.1-31.7,45-45.4h-34L778,332.1z"/>
	<polygon class="st0" points="663.1,243.7 664.5,237.8 609.3,237.8 607.9,243.7 	"/>
	<path class="st0" d="M1651.2,368.5c-1.1,11.7-2.9,23.4-5.3,34.9l107.5-72.1l-78.6-99.6h-63.6v0c-0.9,0-1.8,0-2.7-0.1
		c-4.9,8.8-10.2,17.4-15.9,25.7C1617.7,281.3,1654.9,324.5,1651.2,368.5z"/>
	<path class="st0" d="M1564.7,425c0,0,12.9-26.8,6.4-66.4c-6.5-39.6-68.4-90.4-68.4-90.4s46.3-64,61.8-107.5
		c15.4-43.5-4.4-70.3-4.4-70.3s-25.1-1.5-72.1,19.1c-47,20.5-124,69.9-124,69.9s-43.8-5.4-80.5-7.5c-3.2-0.4-26.4-0.8-27.2-0.8
		c-0.8,0-24.2,0.5-27.6,0.8c-37.8,2.1-84.1,7.5-84.1,7.5s-53-49.3-90-69.9c-37-20.5-62.8-19.1-62.8-19.1s-32.9,26.9-38.6,70.3
		c-5.7,43.5,9.5,107.5,9.5,107.5s-86.6,50.8-112.4,90.4c-25.7,39.6-25.9,66.4-25.9,66.4s22.8-5.4,27.5-0.5
		c4.7,4.9,1.6,37.6,1.6,37.6s31.9-8.8,40.7,1.5c8.7,10.3,3.4,46.4,3.4,46.4s21.9-25.9,44.2-21c22.3,4.9,31.5,37.1,31.5,37.1
		s31.5-39.1,62-36.1c30.5,2.9,33.2,16.1,35.2,22c2,5.9,11.5,91,15.2,108.5s19.7,113.1,33.8,113.2c14.1,0.1,76.6-95.6,88.8-113.2
		c12.2-17.5,65.7-106,67.9-108.5c4.7-5.4,13.9-19.1,45.9-22c32-2.9,44.5,36.1,44.5,36.1s25-32.2,49.6-37.1c24.6-4.9,34,21,34,21
		s11.4-37.8,25.9-46.4c14.5-8.6,41.4-1.5,41.4-1.5s10.7-32.2,19.9-37.6C1546.6,419.1,1564.7,425,1564.7,425z M1145.6,372.1
		c-1.7,13.2-25.7,115.8-25.7,115.8l-26.7,0.1c0,0,11.4-45,10.8-74.8c-0.6-29.8-17-42.5-17-42.5s-6.7,5.4-11.9,6.8
		c-5.2,1.4-10.4,0.5-10.4,0.5s-1.2-11.2-3.1-17.6c-1.9-6.3-2.4-6.3-7.7-6.3c-5.4,0-12.6,19.5-22.1,22.5c-9.5,2.9-13.4,1-15.6,0
		c-2.2-1-17.3-11.2-24.8-12.7s-38.4-4.9-46-7.8c-7.6-2.9-13.9-7.3-20.7-13.2c-6.9-5.9-7.7-12.7-6.2-18.6c1.4-5.9,7.2-13.7,13.4-19.1
		c6.2-5.4,12.6-9.8,17-9.8s11.1,8.8,23.9,16.1c6.7,3.8,39,8.4,76.5,6.8c36.5-1.5,67.9-3.9,82.6,9.8
		C1146.7,341.8,1147.4,358.9,1145.6,372.1z M1517,324.4c-1.4,5.8-5.5,12.6-15.2,18.5c-9.8,5.9-18.1,10.3-27.2,13.2
		c-9,2.9-41.6,6.4-49.8,7.8c-8.2,1.5-28.3,11.7-31,12.7s-7.5,2.9-15.6,0c-8.1-2.9-5.8-22.5-11.1-22.5c-5.4,0-5.8,0-10.8,6.3
		c-5,6.4-11.6,17.6-11.6,17.6s-5.6,1-10.2-0.5c-4.5-1.5-8.6-6.8-8.6-6.8s-22.6,12.7-37.7,42.5c-15.1,29.8-25.5,74.8-25.5,74.8h-26.9
		c0,0,25.9-102.6,30.6-115.8c4.7-13.2,13.7-30.3,35.1-44c21.4-13.7,51.6-11.2,87.4-9.8c36.8,1.5,71.3-3,79.8-6.8
		c16.5-7.3,27.4-16.1,31.8-16.1c4.4,0,8.7,4.4,12.3,9.8C1516.4,310.7,1518.4,318.5,1517,324.4z"/>
	<path class="st0" d="M2189.5,297c-14.2,9.6-24.2,21.9-29,35.7c-11.7,33.6,13.3,64.7,55.7,69.2c24.3,2.5,48.8-3.6,69.1-17.1
		c14.2-9.6,24.2-22,29-35.7c0.6-1.7,1.1-3.3,1.4-5c7.7-31.6-16.8-59.9-57.1-64.2C2234.3,277.4,2209.8,283.5,2189.5,297z M2300,347.6
		c-2.4,6.9-6.8,13.3-12.9,19.1c-3.5,1.4-7.4,2.8-9.8,2.7c-5.2-0.2-10-6.1-10-6.1c-8.4-4.4-10.8-17.5-17.2-19.8
		c8.3-2.1,21.1-11,22-17.8c0.8-5.4-1.4-17.6-22.9-17.6h-40.8l-8.8,62.1h16.5l3.4-24.3h7.9c11.9,0,13.6,20.1,32.9,36.6
		c-12.6,4.5-26,6.1-39.3,4.8c-34.6-3.7-55.4-27.5-46.6-53.1c3.4-9.7,10.7-18.7,21.3-25.8c16-10.9,37.6-16.1,57.6-14
		C2288,298.2,2309,322,2300,347.6z M2240.9,335.5h-19.8l2.3-16.6h21c9.9,0,11.1,4.9,10.7,8.1
		C2254.3,333.1,2249.7,335.5,2240.9,335.5z"/>
	<path class="st0" d="M2052.9,159.9c0,0,11.7,0,16.9,8.8c5.2,8.8-7.7,22.7-7.7,22.7s-75.1,71.2-103.7,69.6h-0.5
		c-29.4,1.6-81.4-66.2-81.4-66.2s-5.1-16.4,4.4-25.2s26.3-9.8,26.3-9.8l16.6-68.2H1682c0,0,4.5,21.6,3,35.9s-7.9,36.6-7.9,36.6h25.9
		l148.2,173l-247.1,172.2c0,0-12.8,17.9-27.2,30.5c-14.4,12.7-28.4,20.5-28.4,20.5l-4.5,18.6h265.3l19.6-80.6
		c0,0-16.9-1.9-20.5-16.1c-2.9-11.2,16.2-24.4,17.7-26.4c1.4-1.9,51.3-39.1,68.5-44.4c15.3-4.8,26-6.4,28.4-6.2v0.1h0.3h0.2v-0.1
		c9.2-0.7,18.5,0.6,27.2,3.7c14.6,5.4,45.6,44.5,46.1,46.4c0.5,1.9,12.9,17.1,4.6,28.4c-10.5,14.2-29.2,14.7-29.2,14.7l-19.6,80.6
		h265.3l16.9-69.6l-43.3,0.1l-163.3-172.2l215-173h67.4l17.6-72.6h-258.7L2052.9,159.9z"/>
	<path class="st1" d="M2388.9,22.2v-0.1h-361.3c-7.4,0-14.5,2.8-19.9,7.8c-5.4-5-12.4-7.7-19.7-7.7v-0.1h-373.8
		c-5.6,0-11.2,1.6-15.9,4.7c-5.2-1.8-10.8-2.2-16.2-0.7c-11.7,1.9-75.7,12.5-120.4,28.3c-39.4,13.9-88,42.6-107.2,54.4
		c-19.1-1.2-62.8-3.8-91.3-3.3c-27.2-0.4-69.6,1.9-90.3,3.2c-15.9-13.7-49.1-40.1-80.7-53.6c-42.3-18-110.1-29.3-110.3-29.3
		c-8.9-1.5-17.9,1.1-24.6,7.2c-0.6-0.1-1.3-0.1-2-0.1H303.6c-14.1,0-26.3,10.2-28.8,24.1l-34.7,146.5c-0.8,2.6-1.2,5.4-1.2,8.2
		c0,16.2,13.1,29.3,29.3,29.3h42.9l-52,214h-57.2v0.1c-13.5,0-25.2,9.2-28.4,22.3l-33.4,137.3c-1,3-1.5,6.1-1.5,9.3
		c0,16.2,13.1,29.3,29.3,29.3h411.4v-0.1c13.5,0,25.2-9.3,28.4-22.4l34.6-142.1c1-3,1.5-6.1,1.5-9.3c0-16.2-13.1-29.3-29.3-29.3
		h-48.8l1.4-5.8h160.7v-0.1c6.6-0.1,13-2.3,18.2-6.4c-0.4,27.2,4.6,47.4,4.6,47.5c2.9,12.6,13.8,21.8,26.7,22.6
		c4.4,29.6,28.3,47.6,28.4,47.7c8.1,6.3,18.8,7.9,28.4,4.3c16,38.1,52.2,41.7,52.3,41.7c11,1.1,21.6-4.1,27.5-13.3l1.6-2.5l0.1,0.1
		c10.9,13.4,41.1,31.5,41.2,31.6c1.4,0.9,3,1.7,4.6,2.3c15.1,5.8,32-1.7,37.8-16.8l1.3-2.6l1,5c15.7,80.3,39.4,202.5,105.1,201.5
		h0.6c1.1,0,2.2,0,3.3-0.1c56.4-3,133.3-115.9,184.1-190.5c15-22.2-10.5-60.4,5.4-52.5c0.5,2.2,1,4.3,1.5,6.4
		c2,7.4,1.6,21.6,1.6,21.7c-0.1,4.4,0.9,8.8,2.7,12.8c6.7,14.6,24,21,38.7,14.3c0.1-0.1,36.5-17.1,51.2-28.4c1.3-1,2.6-2.1,3.8-3.2
		c5.8,9.6,16.6,15.1,27.8,14c0.9-0.1,1.8-0.2,2.7-0.4c4.7-0.8,14.7-3.2,26.6-9.7l-4.6,19.1c-0.5,2.3-0.8,4.6-0.8,6.9
		c0,16.2,13.1,29.2,29.2,29.2v0.1h373c7.3,0,14-2.7,19.1-7.1c5.3,4.5,12,7,19,7v0.1h364.2c14.4,0,26.6-10.5,28.9-24.7l34-139.9
		c0.5-2.2,0.8-4.5,0.8-6.8c0-16.2-13.1-29.3-29.2-29.3v-0.1h-41.9c29.6-3.5,57.6-15.3,78.6-32.9c6.6-5.5,12.6-11.7,17.9-18.5
		c5.3-6.9,9.8-14.4,13.3-22.4l0.1-0.1h0.1c2.7-6.2,4.8-12.7,6.2-19.3c4.7-21.8,0.9-44.6-10.5-63.7c-10.7-18.1-27.7-33.2-49.6-42.9
		c-8.1-3.6-17.1-6.5-26.9-8.6c-4.7-1-9.5-1.8-14.3-2.3l4.4-3.4h84.6c14.5,0,26.7-10.5,29-24.7l36.1-148.7c0.5-2.2,0.8-4.5,0.8-6.8
		C2418.1,35.3,2405,22.2,2388.9,22.2z M1608.5,231.6c0.9,0.1,1.8,0.1,2.7,0.1v0h63.6l78.6,99.6l-107.5,72.1
		c2.4-11.5,4.2-23.2,5.3-34.9c3.7-44-33.5-87.2-58.6-111.2C1598.3,249,1603.6,240.4,1608.5,231.6z M778,332.1l11-45.4h34
		C806.1,300.4,789.8,316,778,332.1z M748.3,219.1c0,0,7.2-23.4,0.5-38.1s-23.3-12.7-23.3-12.7h-130c0,0-13.6-2.4-34.4,8.8
		c-20.8,11.2-27.4,32.2-27.4,32.2L518,273.8c0,0-3.8,13.7,5.6,25.4c9.4,11.7,33.1,12.7,33.1,12.7h141.7l-15.7,64.5H550.8
		c0,0-13.6-2.4-36.1,11.7c-22.5,14.2-26.6,33.2-26.6,33.2l-12.4,50.8c0,0-4.9,20,1.2,31.3c6.1,11.2,22.6,13.7,30.6,14.7
		c8.1,1,43,0,43,0l-16.4,67.4H225.4l15.4-63.5l44.2-1c0,0,14.5,0.5,28.3-11.7c13.7-12.2,17.2-22.5,17.2-22.5l67-275.5
		c2.9-11.7,2.4-20-5.6-29.3c-8-9.3-22.8-10.8-22.8-10.8H331l17.3-71.4h517.9c0,0-25,26.4-33.6,57.7s0.7,61.6,0.7,61.6H748.3z
		 M664.5,237.8l-1.4,5.9h-55.2l1.4-5.9H664.5z M1517.5,462.1c0,0-26.9-7.1-41.4,1.5c-14.5,8.6-25.9,46.4-25.9,46.4s-9.4-25.9-34-21
		c-24.6,4.9-49.6,37.1-49.6,37.1s-12.5-39-44.5-36.1c-32,2.9-41.2,16.6-45.9,22c-2.2,2.5-55.7,91-67.9,108.5
		c-12.2,17.6-74.7,113.3-88.8,113.2c-14.1-0.1-30.1-95.7-33.8-113.2s-13.2-102.6-15.2-108.5c-2-5.9-4.7-19.1-35.2-22
		c-30.5-3-62,36.1-62,36.1s-9.2-32.2-31.5-37.1c-22.3-4.9-44.2,21-44.2,21s5.3-36.1-3.4-46.4c-8.8-10.3-40.7-1.5-40.7-1.5
		s3.1-32.7-1.6-37.6c-4.7-4.9-27.5,0.5-27.5,0.5s0.2-26.8,25.9-66.4c25.8-39.6,112.4-90.4,112.4-90.4s-15.2-64-9.5-107.5
		c5.7-43.4,38.6-70.3,38.6-70.3s25.8-1.4,62.8,19.1c37,20.6,90,69.9,90,69.9s46.3-5.4,84.1-7.5c3.4-0.3,26.8-0.8,27.6-0.8
		c0.8,0,24,0.4,27.2,0.8c36.7,2.1,80.5,7.5,80.5,7.5s77-49.4,124-69.9c47-20.6,72.1-19.1,72.1-19.1s19.8,26.8,4.4,70.3
		c-15.5,43.5-61.8,107.5-61.8,107.5s61.9,50.8,68.4,90.4c6.5,39.6-6.4,66.4-6.4,66.4s-18.1-5.9-27.3-0.5
		C1528.2,429.9,1517.5,462.1,1517.5,462.1z M2315.7,344.1c-0.3,1.7-0.8,3.3-1.4,5c-4.8,13.7-14.8,26.1-29,35.7
		c-20.3,13.5-44.8,19.6-69.1,17.1c-42.4-4.5-67.4-35.6-55.7-69.2c4.8-13.8,14.8-26.1,29-35.7c20.3-13.5,44.8-19.6,69.1-17.1
		C2298.9,284.2,2323.4,312.5,2315.7,344.1z M2310.6,164.3h-67.4l-215,173l163.3,172.2l43.3-0.1l-16.9,69.6h-265.3l19.6-80.6
		c0,0,18.7-0.5,29.2-14.7c8.3-11.3-4.1-26.5-4.6-28.4c-0.5-1.9-31.5-41-46.1-46.4c-8.7-3.1-18-4.4-27.2-3.7v0.1h-0.2h-0.3v-0.1
		c-2.4-0.2-13.1,1.4-28.4,6.2c-17.2,5.3-67.1,42.5-68.5,44.4c-1.5,2-20.6,15.2-17.7,26.4c3.6,14.2,20.5,16.1,20.5,16.1l-19.6,80.6
		H1544l4.5-18.6c0,0,14-7.8,28.4-20.5c14.4-12.6,27.2-30.5,27.2-30.5l247.1-172.2l-148.2-173h-25.9c0,0,6.4-22.3,7.9-36.6
		s-3-35.9-3-35.9h241.8l-16.6,68.2c0,0-16.8,1-26.3,9.8s-4.4,25.2-4.4,25.2s52,67.8,81.4,66.2h0.5c28.6,1.6,103.7-69.6,103.7-69.6
		s12.9-13.9,7.7-22.7c-5.2-8.8-16.9-8.8-16.9-8.8l16.6-68.2h258.7L2310.6,164.3z"/>
	<path class="st1" d="M1131.9,328.1c-14.7-13.7-46.1-11.3-82.6-9.8c-37.5,1.6-69.8-3-76.5-6.8c-12.8-7.3-19.5-16.1-23.9-16.1
		s-10.8,4.4-17,9.8c-6.2,5.4-12,13.2-13.4,19.1c-1.5,5.9-0.7,12.7,6.2,18.6c6.8,5.9,13.1,10.3,20.7,13.2c7.6,2.9,38.5,6.3,46,7.8
		s22.6,11.7,24.8,12.7c2.2,1,6.1,2.9,15.6,0c9.5-3,16.7-22.5,22.1-22.5c5.3,0,5.8,0,7.7,6.3c1.9,6.4,3.1,17.6,3.1,17.6
		s5.2,0.9,10.4-0.5c5.2-1.4,11.9-6.8,11.9-6.8s16.4,12.7,17,42.5c0.6,29.8-10.8,74.8-10.8,74.8l26.7-0.1c0,0,24-102.6,25.7-115.8
		C1147.4,358.9,1146.7,341.8,1131.9,328.1z"/>
	<path class="st1" d="M2195.7,308.4c-10.6,7.1-17.9,16.1-21.3,25.8c-8.8,25.6,12,49.4,46.6,53.1c13.3,1.3,26.7-0.3,39.3-4.8
		c-19.3-16.5-21-36.6-32.9-36.6h-7.9l-3.4,24.3h-16.5l8.8-62.1h40.8c21.5,0,23.7,12.2,22.9,17.6c-0.9,6.8-13.7,15.7-22,17.8
		c6.4,2.3,8.8,15.4,17.2,19.8c0,0,4.8,5.9,10,6.1c2.4,0.1,6.3-1.3,9.8-2.7c6.1-5.8,10.5-12.2,12.9-19.1c9-25.6-12-49.4-46.7-53.2
		C2233.3,292.3,2211.7,297.5,2195.7,308.4z"/>
	<path class="st1" d="M2244.4,318.9h-21l-2.3,16.6h19.8c8.8,0,13.4-2.4,14.2-8.5C2255.5,323.8,2254.3,318.9,2244.4,318.9z"/>
	<path class="st1" d="M1500.5,295.5c-4.4,0-15.3,8.8-31.8,16.1c-8.5,3.8-43,8.3-79.8,6.8c-35.8-1.4-66-3.9-87.4,9.8
		c-21.4,13.7-30.4,30.8-35.1,44c-4.7,13.2-30.6,115.8-30.6,115.8h26.9c0,0,10.4-45,25.5-74.8c15.1-29.8,37.7-42.5,37.7-42.5
		s4.1,5.3,8.6,6.8c4.6,1.5,10.2,0.5,10.2,0.5s6.6-11.2,11.6-17.6c5-6.3,5.4-6.3,10.8-6.3c5.3,0,3,19.6,11.1,22.5
		c8.1,2.9,12.9,1,15.6,0s22.8-11.2,31-12.7c8.2-1.4,40.8-4.9,49.8-7.8c9.1-2.9,17.4-7.3,27.2-13.2c9.7-5.9,13.8-12.7,15.2-18.5
		c1.4-5.9-0.6-13.7-4.2-19.1C1509.2,299.9,1504.9,295.5,1500.5,295.5z"/>
</g>
</svg>
