<?xml version="1.0" encoding="utf-8"?>
<!-- Generator: Adobe Illustrator 26.2.1, SVG Export Plug-In . SVG Version: 6.00 Build 0)  -->
<svg version="1.1" id="Layer_1" xmlns="http://www.w3.org/2000/svg" xmlns:xlink="http://www.w3.org/1999/xlink" x="0px" y="0px"
	 viewBox="0 0 461 150.1" style="enable-background:new 0 0 461 150.1;" xml:space="preserve">
<style type="text/css">
	.st0{fill:#999999;}
</style>
<g id="Black_x5F_Stack_1_">
	<g>
		<path class="st0" d="M461,5.7c0,3.2-2.5,5.7-5.8,5.7c-3.2,0-5.9-2.5-5.9-5.7c0-3.2,2.6-5.7,5.9-5.7C458.5,0,461,2.5,461,5.7z
			 M450.8,5.7c0,2.5,1.9,4.5,4.4,4.5c2.5,0,4.3-2,4.3-4.5c0-2.5-1.8-4.6-4.4-4.6C452.7,1.1,450.8,3.2,450.8,5.7z M454.3,8.6H453V3
			c0.5-0.1,1.2-0.2,2.2-0.2c1.1,0,1.6,0.2,2,0.4c0.3,0.2,0.5,0.7,0.5,1.2c0,0.6-0.5,1.1-1.2,1.3v0.1c0.5,0.2,0.9,0.6,1,1.4
			c0.2,0.9,0.3,1.2,0.4,1.4h-1.4c-0.2-0.2-0.3-0.7-0.5-1.4c-0.1-0.6-0.5-0.9-1.2-0.9h-0.6L454.3,8.6L454.3,8.6z M454.3,5.4h0.6
			c0.7,0,1.3-0.2,1.3-0.8c0-0.5-0.4-0.9-1.2-0.9c-0.4,0-0.6,0-0.7,0.1V5.4z"/>
	</g>
	<path class="st0" d="M357.8,14.7l-31.4,53.6h-27.3l31.4-53.6h-29.8l-31.4,53.6h-32.8l-4.4-42.4l-24.9,42.4h-27.3L219.9,0h33.2
		l4.3,41.9L282,0h107.9l-8.6,14.7H357.8z M179.5,0L179.5,0h-25.4l-78,68.4h103.4V0z M152.5,53.6h-32.3l33.1-29L152.5,53.6z M445.7,0
		L445.7,0h-25.4l-78,68.4h103.4V0z M418.7,53.6h-32.3l33.1-29L418.7,53.6z M24.3,26.8L24.3,26.8c-4.7,8.1-2.1,14.7,6,14.7h32.4
		l-7.1,12.1h-47L0,68.4h59.6c8.1,0,18.6-6.6,23.4-14.7h0l7.1-12.1h0c4.8-8.1,2-14.7-6.1-14.7l0,0H51.7l7.1-12.1h47L114.4,0H54.8
		c-8.1,0-18.6,6.6-23.4,14.7l0,0L24.3,26.8z M260.7,135.3c-4.7,8.1-2.1,14.6,6,14.7H317c8.1,0,18.6-6.6,23.4-14.7h0l22.8-38.9h46.2
		L346.7,150h78l8.6-14.7h-34.8l58.6-53.6l-112.7,0l-31.4,53.6H288l31.4-53.6h-27.3L260.7,135.3z M124.4,135.3l22.8-38.9h39l8.6-14.7
		h-51.6c-8.1,0-18.6,6.6-23.4,14.7l0,0L97,135.3l0,0l0,0.1l0,0c-4.7,8.1-2.1,14.7,5.9,14.7h51.7l8.7-14.8L124.4,135.3L124.4,135.3z
		 M206.3,81.6L166.3,150h27.3l13.2-22.6h5.5l9.3,22.6h28.8l-11.4-22.6h0.1c8.1,0,18.6-6.6,23.4-14.7h0l9.6-16.3h0
		c4.8-8.1,2-14.7-6.1-14.7l0,0H206.3z M235.2,112.7h-19.7l9.6-16.3h19.7L235.2,112.7z"/>
</g>
</svg>
