<?xml version="1.0" encoding="utf-8"?>
<!-- Generator: Adobe Illustrator 26.2.1, SVG Export Plug-In . SVG Version: 6.00 Build 0)  -->
<svg version="1.1" id="Layer_1" xmlns="http://www.w3.org/2000/svg" xmlns:xlink="http://www.w3.org/1999/xlink" x="0px" y="0px"
	 viewBox="0 0 410.4 108" style="enable-background:new 0 0 410.4 108;" xml:space="preserve">
<style type="text/css">
	.st0{fill-rule:evenodd;clip-rule:evenodd;fill:#999999;}
</style>
<path class="st0" d="M14.1,11.1h381.9v83.8H14.1V11.1L14.1,11.1z M19.7,17.3v71.1h370.6V17.3H19.7L19.7,17.3z M52.6,25.3
	c-0.3,0-0.4,0.2-0.4,0.5v21.5c0,0.3,0.2,0.5,0.4,0.5h5.4c0.3,0,0.5-0.2,0.5-0.5v-3.5c0-0.2,0.2-0.4,0.3-0.4h8.7
	c0.1,0,0.3,0.2,0.3,0.4v3.5c0,0.3,0.3,0.5,0.5,0.5h5.4c0.3,0,0.4-0.2,0.4-0.5V25.7c0-0.3-0.2-0.5-0.4-0.5h-5.4
	c-0.3,0-0.5,0.2-0.5,0.5v12.5c0,0.4-0.3,0.7-0.7,0.7h-7.9c-0.3,0-0.7-0.4-0.7-0.7V25.7c0-0.3-0.2-0.5-0.5-0.5H52.6L52.6,25.3z
	 M77.5,25.3c-0.2,0-0.4,0.2-0.4,0.5v21.5c0,0.3,0.3,0.5,0.4,0.5h5.4c0.3,0,0.5-0.2,0.5-0.5V25.7c0-0.3-0.2-0.5-0.5-0.5H77.5
	L77.5,25.3z M115.5,31.8c0.1-5.3-3.1-6.5-11.9-6.5c-5.6,0-11.3,0-17,0c-0.3,0-0.4,0.2-0.4,0.5v21.5c0,0.3,0.2,0.5,0.4,0.5h5.4
	c0.3,0,0.5-0.2,0.5-0.5v-0.9v-16c0-0.3,0.2-0.5,0.4-0.5h4.4c0.2,0,0.3,0.2,0.3,0.5h0.1v17c0,0.3,0.2,0.5,0.4,0.5h5.4
	c0.3,0,0.5-0.2,0.5-0.5v-17c0-0.2,0.2-0.4,0.3-0.4h1.4c3-0.1,3.3,1.4,3.3,3.6c0,4.6,0,9.2,0,13.8c0,0.3,0.3,0.5,0.5,0.5h5.4
	c0.3,0,0.4-0.2,0.4-0.5V31.8L115.5,31.8z M163.7,30.6c0-3.8-3.8-5.3-14.7-5.3h-5.9c-0.3,0-0.4,0.2-0.4,0.5v21.5
	c0,0.3,0.2,0.5,0.4,0.5h5.4c0.3,0,0.5-0.2,0.5-0.5V30.4c0-0.4,0.3-0.6,0.6-0.6h7.2c0.3,0,0.7,0.3,0.7,0.6v16.8
	c0,0.3,0.2,0.5,0.4,0.5h5.4c0.3,0,0.5-0.2,0.5-0.5V30.6L163.7,30.6z M40.9,47.7c3.8,0,8.9,0,9-6.7c0.1-7.7-5.9-7.3-10.1-7.3h-2.9
	c-0.8,0-2.7-0.1-2.7-1.9c0-1.9,2-1.9,2.7-1.9h11.8c0.2,0,0.3-0.2,0.3-0.4v-3.8c0-0.3-0.1-0.4-0.3-0.4H34.2c-3.8,0-6.4,0-6.4,8.3
	c0,4.7,3.2,5.3,5.5,5.3c2.6,0.2,5.1,0.2,7.6,0.4c0.8,0.1,2.7,0.1,2.7,1.9c0,1.9-2,2-2.7,2H29c-0.2,0-0.3,0.1-0.3,0.3v3.9
	c0,0.2,0.2,0.3,0.3,0.3H40.9L40.9,47.7z M35.1,53.8V79h12.6c1.5,0,3.2-0.2,5-0.7c1.4-0.3,2.6-1,3.8-2c1.2-1,2.1-2.2,2.8-3.7
	c0.7-1.5,1-3.6,1-6.3c0-1.7-0.2-3.4-0.7-4.9c-0.5-1.5-1.2-2.9-2.2-4c-1-1.2-2.3-2-3.8-2.7c-1.5-0.6-3.5-0.9-6-0.9H35.1L35.1,53.8z
	 M43.5,59.5h2.1c2.2,0,3.8,0.5,4.7,1.5c0.9,1,1.4,2.8,1.4,5.5c0,2-0.2,3.5-0.6,4.4c-0.4,0.9-1,1.5-1.8,1.9c-0.7,0.4-2,0.5-3.8,0.5
	h-2.1V59.5L43.5,59.5z M64.7,53.8V79h23.1v-5.7H73.1v-5h13.2v-5.1H73.1v-4h14.2v-5.4H64.7L64.7,53.8z M91.2,66.4
	c0,3,0.6,5.4,1.9,7.4c1.3,2,2.9,3.4,4.9,4.3c2,0.9,4.6,1.4,7.7,1.4c3,0,5.6-0.5,7.6-1.6c2-1.1,3.6-2.5,4.7-4.4
	c1.1-1.9,1.6-4.3,1.6-7.3c0-4.1-1.2-7.2-3.7-9.5c-2.5-2.3-6-3.4-10.5-3.4c-4.4,0-7.9,1.1-10.4,3.4C92.5,59.1,91.2,62.3,91.2,66.4
	L91.2,66.4z M99.7,66.4c0-2.6,0.5-4.4,1.5-5.5c1-1.1,2.4-1.7,4.1-1.7c1.8,0,3.2,0.5,4.2,1.6c1,1.1,1.6,2.8,1.6,5.2
	c0,2.8-0.5,4.8-1.5,5.9c-1,1.1-2.4,1.6-4.2,1.6c-1.8,0-3.2-0.6-4.2-1.7C100.2,70.8,99.7,69,99.7,66.4L99.7,66.4z M124.2,79h8.5V68.8
	h0.7c0.8,0,1.5,0.2,2.1,0.6c0.5,0.3,1,1,1.5,1.9l4.5,7.7h9.6l-4.1-7.3c-0.2-0.4-0.6-0.9-1.2-1.6c-0.6-0.7-1-1.1-1.4-1.3
	c-0.5-0.3-1.2-0.6-2.2-0.9c1.3-0.3,2.2-0.6,3-1c1.1-0.6,2-1.5,2.7-2.5c0.6-1,1-2.2,1-3.6c0-1.6-0.4-3-1.3-4.1
	c-0.8-1.1-2-1.9-3.3-2.3c-1.4-0.4-3.4-0.6-6-0.6h-14.1V79L124.2,79z M132.7,64v-5.1h3.7c1.5,0,2.6,0.2,3.2,0.7
	c0.6,0.4,0.8,1.1,0.8,1.9c0,0.6-0.2,1-0.5,1.5c-0.4,0.4-0.8,0.7-1.4,0.8c-1.1,0.2-1.9,0.3-2.2,0.3H132.7L132.7,64z M153.9,53.8V79
	h23.1v-5.7h-14.6v-5h13.2v-5.1h-13.2v-4h14.2v-5.4H153.9L153.9,53.8z M187,82.1h36.9l19.5-15.7l20.9,15.7h39.3l-39.3-29.8l7.6-7.3
	h43.7v37.2h27.1V45h39.6V23.3h-118l-20.9,15.5l-19.5-15.5H187l36.9,29L187,82.1L187,82.1z M203,77.2h17.9l22-16.8l23.4,16.8h18.1
	l-29.7-23.9l29.7-24.7h-18.1l-23.4,17l-22-17H203l28.6,24.7L203,77.2L203,77.2z M284.3,39.3h37.4l0.8,37.9h14l0.3-37.9h41.5V28.6
	h-83L284.3,39.3L284.3,39.3z M128.9,43.6h4.7c0.2,0,0.3,0.2,0.3,0.4v3.3c0,0.3,0.3,0.5,0.5,0.5h5.4c0.3,0,0.4-0.2,0.4-0.5V30.6
	c0-3.8-3-5.3-11.3-5.3c-8.1,0-11.3,1.5-11.3,5.3v16.6c0,0.3,0.3,0.5,0.5,0.5h5.4c0.3,0,0.4-0.2,0.4-0.5v-3.3c0-0.2,0.2-0.4,0.3-0.4
	H128.9L128.9,43.6z M128.9,29.8h1.7c2.6,0,3.2,0.8,3.2,3.4v5.1c0,0.4-0.3,0.6-0.6,0.6h-4.3h-4.3c-0.3,0-0.7-0.3-0.7-0.6v-5.1
	c0-2.6,0.7-3.4,3.3-3.4H128.9L128.9,29.8z M166.2,39l-0.1-4.4c0-1.2,0.1-2.3,0-3.4c0.1-2.8,1-4.5,3.7-5.3c2-0.5,4.2-0.6,6.3-0.6
	c2,0,4.3,0.1,6.2,0.6c2.7,0.8,3.6,2.5,3.7,5.3c0,1.1,0,2.2,0,3.4V39c0,1.1,0,2.2,0,3.4c-0.1,2.8-0.9,4.5-3.7,5.3
	c-2,0.5-4.2,0.6-6.2,0.6c-2.1,0-4.3-0.1-6.3-0.6c-2.6-0.7-3.6-2.4-3.7-5.3C166.1,41.1,166.2,40.1,166.2,39L166.2,39z M176.1,43.9
	c0.9,0,1.9-0.1,2.7-0.5c1-0.6,0.9-1.5,0.9-2.7V39v-4.4v-1.8c0-1.2,0.1-2.1-0.9-2.7c-0.9-0.5-1.8-0.5-2.7-0.5c-0.9,0-1.9,0-2.7,0.5
	c-1,0.6-0.9,1.5-1,2.7v1.8V39v1.8c0.1,1.2,0,2.1,1,2.7C174.2,43.9,175.1,43.9,176.1,43.9L176.1,43.9z"/>
</svg>
