<?xml version="1.0" encoding="utf-8"?>
<!-- Generator: Adobe Illustrator 26.2.1, SVG Export Plug-In . SVG Version: 6.00 Build 0)  -->
<svg version="1.1" id="Layer_1" xmlns="http://www.w3.org/2000/svg" xmlns:xlink="http://www.w3.org/1999/xlink" x="0px" y="0px"
	 viewBox="0 0 1080 600" style="enable-background:new 0 0 1080 600;" xml:space="preserve">
<style type="text/css">
	.st0{fill:none;stroke:#FFFFFF;stroke-miterlimit:10;}
	.st1{fill:none;stroke:#FFFFFF;stroke-linejoin:round;stroke-miterlimit:10;}
	.st2{fill:none;stroke:#FFFFFF;stroke-miterlimit:10;stroke-dasharray:2.0096,2.0096;}
	.st3{fill:none;stroke:#FFFFFF;stroke-miterlimit:10;stroke-dasharray:1.8985,1.8985;}
	.st4{fill:none;stroke:#FFFFFF;stroke-miterlimit:10;stroke-dasharray:1.9933,1.9933;}
</style>
<polyline class="st0" points="43.9,217 43.9,347.5 255.1,347.5 255.1,587.4 560.7,587.4 865.3,587.4 865.3,347.5 1043.3,347.5 
	1043.3,13.4 43.9,13.4 43.9,98.6 "/>
<line class="st0" x1="43.3" y1="135.5" x2="43.3" y2="180.2"/>
<rect x="172.5" y="234.2" class="st1" width="2.6" height="30.3"/>
<rect x="602.4" y="114.4" class="st0" width="16.2" height="16.2"/>
<rect x="640.8" y="180" class="st0" width="16.2" height="16.2"/>
<rect x="560.7" y="180" class="st0" width="16.2" height="16.2"/>
<rect x="285.1" y="121.4" transform="matrix(0.7399 -0.6727 0.6727 0.7399 -5.0733 245.7747)" class="st0" width="60.5" height="16.2"/>
<rect x="175.3" y="173.8" class="st0" width="14.7" height="112.9"/>
<rect x="602.4" y="249.1" class="st0" width="16.2" height="16.2"/>
<rect x="724.1" y="408.7" class="st0" width="16.2" height="16.2"/>
<rect x="387.8" y="407.7" class="st0" width="16.2" height="16.2"/>
<rect x="303.2" y="230.4" transform="matrix(0.6489 -0.7608 0.7608 0.6489 -90.9159 329.2549)" class="st0" width="16.2" height="65.5"/>
<line class="st0" x1="1001.7" y1="103.6" x2="1001.7" y2="97.1"/>
<line class="st0" x1="1001.7" y1="150.2" x2="1001.7" y2="144.1"/>
<rect x="111.8" y="45.9" class="st0" width="134.4" height="27.1"/>
<rect x="216.9" y="13.5" class="st0" width="29.3" height="32.4"/>
<rect x="43.9" y="13.6" class="st0" width="29.3" height="60.4"/>
<rect x="305.6" y="13.7" class="st0" width="94.9" height="14.5"/>
<rect x="255.1" y="347.5" class="st0" width="30.4" height="94.9"/>
<rect x="834.7" y="347.5" class="st0" width="30.4" height="94.9"/>
<rect x="424.9" y="13.7" class="st0" width="94.9" height="14.5"/>
<rect x="544.2" y="13.7" class="st0" width="94.9" height="14.5"/>
<rect x="664.2" y="13.5" class="st0" width="94.9" height="14.5"/>
<rect x="797.6" y="13.5" class="st0" width="94.9" height="14.5"/>
<rect x="865.3" y="333" class="st0" width="178" height="14.5"/>
<line class="st0" x1="1001.7" y1="52.9" x2="1001.7" y2="13.1"/>
<line class="st0" x1="1001.7" y1="193.3" x2="1043.8" y2="193.3"/>
<line class="st0" x1="1001.7" y1="146.8" x2="1043.8" y2="146.8"/>
<line class="st0" x1="1001.7" y1="100.3" x2="1043.8" y2="100.3"/>
<polyline class="st0" points="1001.1,188.2 1001.8,185 1001.1,181.9 1001.8,178.7 1001.1,175.5 1001.8,172.3 1001.1,169.1 
	1001.8,165.9 1001.1,162.7 1001.8,159.5 1001.1,156.3 1001.8,153.2 "/>
<polyline class="st0" points="1001.1,141 1001.8,137.8 1001.1,134.6 1001.8,131.4 1001.1,128.2 1001.8,125 1001.1,121.9 
	1001.8,118.7 1001.1,115.5 1001.8,112.3 1001.1,109.1 1001.8,105.9 "/>
<polyline class="st0" points="1001.1,93.7 1001.8,90.5 1001.1,87.4 1001.8,84.2 1001.1,81 1001.8,77.8 1001.1,74.6 1001.8,71.4 
	1001.1,68.2 1001.8,65 1001.1,61.9 1001.8,58.7 "/>
<g>
	<g>
		<g>
			<polyline class="st0" points="510.4,103.1 511.4,103.1 511.4,104.1 			"/>
			<line class="st2" x1="511.4" y1="106.1" x2="511.4" y2="298"/>
			<polyline class="st0" points="511.4,299 511.4,300 510.4,300 			"/>
			<line class="st3" x1="508.5" y1="300" x2="475.3" y2="300"/>
			<polyline class="st0" points="474.3,300 473.3,300 473.3,299 			"/>
			<line class="st2" x1="473.3" y1="297" x2="473.3" y2="105.1"/>
			<polyline class="st0" points="473.3,104.1 473.3,103.1 474.3,103.1 			"/>
			<line class="st3" x1="476.2" y1="103.1" x2="509.4" y2="103.1"/>
		</g>
	</g>
	<line class="st0" x1="506.2" y1="142.5" x2="479.3" y2="119.5"/>
	<line class="st0" x1="506.2" y1="170.3" x2="479.3" y2="147.3"/>
	<line class="st0" x1="506.2" y1="198.1" x2="479.3" y2="175.1"/>
	<line class="st0" x1="506.2" y1="225.8" x2="479.3" y2="202.8"/>
	<line class="st0" x1="506.2" y1="253.6" x2="479.3" y2="230.6"/>
	<line class="st0" x1="506.2" y1="281.4" x2="479.3" y2="258.3"/>
</g>
<g>
	<g>
		<g>
			<polyline class="st0" points="847.9,568.8 847.9,569.8 846.9,569.8 			"/>
			<line class="st4" x1="844.9" y1="569.8" x2="275.8" y2="569.8"/>
			<polyline class="st0" points="274.8,569.8 273.8,569.8 273.8,568.8 			"/>
			<line class="st3" x1="273.8" y1="566.9" x2="273.8" y2="533.7"/>
			<polyline class="st0" points="273.8,532.7 273.8,531.7 274.8,531.7 			"/>
			<line class="st4" x1="276.8" y1="531.7" x2="845.9" y2="531.7"/>
			<polyline class="st0" points="846.9,531.7 847.9,531.7 847.9,532.7 			"/>
			<line class="st3" x1="847.9" y1="534.6" x2="847.9" y2="567.8"/>
		</g>
	</g>
	<line class="st0" x1="431.2" y1="564.6" x2="454.2" y2="537.7"/>
	<line class="st0" x1="459" y1="564.6" x2="482" y2="537.7"/>
	<line class="st0" x1="486.8" y1="564.6" x2="509.8" y2="537.7"/>
	<line class="st0" x1="514.6" y1="564.6" x2="537.6" y2="537.7"/>
	<line class="st0" x1="403.5" y1="564.6" x2="426.5" y2="537.7"/>
	<line class="st0" x1="375.7" y1="564.6" x2="398.7" y2="537.7"/>
	<line class="st0" x1="347.9" y1="564.6" x2="370.9" y2="537.7"/>
	<line class="st0" x1="320.2" y1="564.6" x2="343.2" y2="537.7"/>
	<line class="st0" x1="292.4" y1="564.6" x2="315.4" y2="537.7"/>
	<line class="st0" x1="691.3" y1="564.6" x2="668.3" y2="537.7"/>
	<line class="st0" x1="663.5" y1="564.6" x2="640.5" y2="537.7"/>
	<line class="st0" x1="635.7" y1="564.6" x2="612.7" y2="537.7"/>
	<line class="st0" x1="607.9" y1="564.6" x2="584.9" y2="537.7"/>
	<line class="st0" x1="719.1" y1="564.6" x2="696.1" y2="537.7"/>
	<line class="st0" x1="746.8" y1="564.6" x2="723.8" y2="537.7"/>
	<line class="st0" x1="774.6" y1="564.6" x2="751.6" y2="537.7"/>
	<line class="st0" x1="802.4" y1="564.6" x2="779.4" y2="537.7"/>
	<line class="st0" x1="830.1" y1="564.6" x2="807.1" y2="537.7"/>
</g>
<g>
	<g>
		<g>
			<polyline class="st0" points="810.8,103.1 811.8,103.1 811.8,104.1 			"/>
			<line class="st2" x1="811.8" y1="106.1" x2="811.8" y2="298"/>
			<polyline class="st0" points="811.8,299 811.8,300 810.8,300 			"/>
			<line class="st3" x1="808.9" y1="300" x2="775.6" y2="300"/>
			<polyline class="st0" points="774.7,300 773.7,300 773.7,299 			"/>
			<line class="st2" x1="773.7" y1="297" x2="773.7" y2="105.1"/>
			<polyline class="st0" points="773.7,104.1 773.7,103.1 774.7,103.1 			"/>
			<line class="st3" x1="776.6" y1="103.1" x2="809.8" y2="103.1"/>
		</g>
	</g>
	<line class="st0" x1="806.6" y1="142.5" x2="779.6" y2="119.5"/>
	<line class="st0" x1="806.6" y1="170.3" x2="779.6" y2="147.3"/>
	<line class="st0" x1="806.6" y1="198.1" x2="779.6" y2="175.1"/>
	<line class="st0" x1="806.6" y1="225.8" x2="779.6" y2="202.8"/>
	<line class="st0" x1="806.6" y1="253.6" x2="779.6" y2="230.6"/>
	<line class="st0" x1="806.6" y1="281.4" x2="779.6" y2="258.3"/>
</g>
<g>
	<g>
		<g>
			<polyline class="st0" points="913.6,102.3 914.6,102.3 914.6,103.3 			"/>
			<line class="st2" x1="914.6" y1="105.3" x2="914.6" y2="297.2"/>
			<polyline class="st0" points="914.6,298.3 914.6,299.3 913.6,299.3 			"/>
			<line class="st3" x1="911.7" y1="299.3" x2="878.4" y2="299.3"/>
			<polyline class="st0" points="877.5,299.3 876.5,299.3 876.5,298.3 			"/>
			<line class="st2" x1="876.5" y1="296.2" x2="876.5" y2="104.3"/>
			<polyline class="st0" points="876.5,103.3 876.5,102.3 877.5,102.3 			"/>
			<line class="st3" x1="879.4" y1="102.3" x2="912.6" y2="102.3"/>
		</g>
	</g>
	<line class="st0" x1="909.4" y1="141.8" x2="882.4" y2="118.8"/>
	<line class="st0" x1="909.4" y1="169.6" x2="882.4" y2="146.6"/>
	<line class="st0" x1="909.4" y1="197.3" x2="882.4" y2="174.3"/>
	<line class="st0" x1="909.4" y1="225.1" x2="882.4" y2="202.1"/>
	<line class="st0" x1="909.4" y1="252.9" x2="882.4" y2="229.8"/>
	<line class="st0" x1="909.4" y1="280.6" x2="882.4" y2="257.6"/>
</g>
<g>
	<g>
		<g>
			<polyline class="st0" points="377.2,103.1 376.2,103.1 376.2,104.1 			"/>
			<line class="st2" x1="376.2" y1="106.1" x2="376.2" y2="298"/>
			<polyline class="st0" points="376.2,299 376.2,300 377.2,300 			"/>
			<line class="st3" x1="379.1" y1="300" x2="412.3" y2="300"/>
			<polyline class="st0" points="413.3,300 414.3,300 414.3,299 			"/>
			<line class="st2" x1="414.3" y1="297" x2="414.3" y2="105.1"/>
			<polyline class="st0" points="414.3,104.1 414.3,103.1 413.3,103.1 			"/>
			<line class="st3" x1="411.4" y1="103.1" x2="378.2" y2="103.1"/>
		</g>
	</g>
	<line class="st0" x1="381.4" y1="142.5" x2="408.3" y2="119.5"/>
	<line class="st0" x1="381.4" y1="170.3" x2="408.3" y2="147.3"/>
	<line class="st0" x1="381.4" y1="198.1" x2="408.3" y2="175.1"/>
	<line class="st0" x1="381.4" y1="225.8" x2="408.3" y2="202.8"/>
	<line class="st0" x1="381.4" y1="253.6" x2="408.3" y2="230.6"/>
	<line class="st0" x1="381.4" y1="281.4" x2="408.3" y2="258.3"/>
</g>
<g>
	<g>
		<g>
			<polyline class="st0" points="684.2,103.1 683.2,103.1 683.2,104.1 			"/>
			<line class="st2" x1="683.2" y1="106.1" x2="683.2" y2="298"/>
			<polyline class="st0" points="683.2,299 683.2,300 684.2,300 			"/>
			<line class="st3" x1="686.1" y1="300" x2="719.3" y2="300"/>
			<polyline class="st0" points="720.2,300 721.2,300 721.2,299 			"/>
			<line class="st2" x1="721.2" y1="297" x2="721.2" y2="105.1"/>
			<polyline class="st0" points="721.2,104.1 721.2,103.1 720.2,103.1 			"/>
			<line class="st3" x1="718.3" y1="103.1" x2="685.1" y2="103.1"/>
		</g>
	</g>
	<line class="st0" x1="688.3" y1="142.5" x2="715.3" y2="119.5"/>
	<line class="st0" x1="688.3" y1="170.3" x2="715.3" y2="147.3"/>
	<line class="st0" x1="688.3" y1="198.1" x2="715.3" y2="175.1"/>
	<line class="st0" x1="688.3" y1="225.8" x2="715.3" y2="202.8"/>
	<line class="st0" x1="688.3" y1="253.6" x2="715.3" y2="230.6"/>
	<line class="st0" x1="688.3" y1="281.4" x2="715.3" y2="258.3"/>
</g>
<g>
	<g>
		<g>
			<polyline class="st0" points="664,399.4 664,398.4 663,398.4 			"/>
			<line class="st2" x1="661" y1="398.4" x2="469.1" y2="398.4"/>
			<polyline class="st0" points="468.1,398.4 467.1,398.4 467.1,399.4 			"/>
			<line class="st3" x1="467.1" y1="401.3" x2="467.1" y2="434.5"/>
			<polyline class="st0" points="467.1,435.5 467.1,436.5 468.1,436.5 			"/>
			<line class="st2" x1="470.1" y1="436.5" x2="662" y2="436.5"/>
			<polyline class="st0" points="663,436.5 664,436.5 664,435.5 			"/>
			<line class="st3" x1="664" y1="433.6" x2="664" y2="400.3"/>
		</g>
	</g>
	<line class="st0" x1="624.5" y1="403.5" x2="647.5" y2="430.5"/>
	<line class="st0" x1="596.7" y1="403.5" x2="619.7" y2="430.5"/>
	<line class="st0" x1="569" y1="403.5" x2="592" y2="430.5"/>
	<line class="st0" x1="541.2" y1="403.5" x2="564.2" y2="430.5"/>
	<line class="st0" x1="513.5" y1="403.5" x2="536.5" y2="430.5"/>
	<line class="st0" x1="485.7" y1="403.5" x2="508.7" y2="430.5"/>
</g>
</svg>
