<?xml version="1.0" encoding="utf-8"?>
<!-- Generator: Adobe Illustrator 26.3.1, SVG Export Plug-In . SVG Version: 6.00 Build 0)  -->
<svg version="1.1" id="Layer_1" xmlns="http://www.w3.org/2000/svg" xmlns:xlink="http://www.w3.org/1999/xlink" x="0px" y="0px"
	 viewBox="0 0 400 70" style="enable-background:new 0 0 400 70;" xml:space="preserve">
<style type="text/css">
	.st0{fill:#F0EFEF;}
</style>
<path class="st0" d="M235.5,63.1h-8.3c-3.4,0-6.2-2.8-6.2-6.2V12.2c0-3.4,2.8-6.2,6.2-6.2h22.4c3.4,0,6.2,2.8,6.2,6.2v36
	c0,0.7-0.6,1.2-1.2,1.2s-1.2-0.6-1.2-1.2v-36c0-2-1.7-3.7-3.7-3.7h-22.4c-2,0-3.7,1.7-3.7,3.7v44.7c0,2,1.7,3.7,3.7,3.7h8.3
	c0.7,0,1.2,0.6,1.2,1.2S236.2,63.1,235.5,63.1z"/>
<path class="st0" d="M243.4,13.4h-9.9c-2.1,0-3.7-1.7-3.7-3.7V7.2c0-0.7,0.6-1.2,1.2-1.2h14.9c0.7,0,1.2,0.6,1.2,1.2v2.5
	C247.1,11.7,245.5,13.4,243.4,13.4z M232.2,8.4v1.2c0,0.7,0.6,1.2,1.2,1.2h9.9c0.7,0,1.2-0.6,1.2-1.2V8.4H232.2z"/>
<path class="st0" d="M248.4,54.4c-0.7,0-1.2-0.6-1.2-1.2v-5c0-0.7-0.6-1.2-1.2-1.2c-0.7,0-1.2,0.6-1.2,1.2v5c0,0.7-0.6,1.2-1.2,1.2
	s-1.2-0.6-1.2-1.2v-5c0-2.1,1.7-3.7,3.7-3.7c2.1,0,3.7,1.7,3.7,3.7v5C249.6,53.8,249.1,54.4,248.4,54.4z"/>
<path class="st0" d="M253.3,54.4c-0.7,0-1.2-0.6-1.2-1.2v-3.7c0-0.7-0.6-1.2-1.2-1.2c-0.7,0-1.2,0.6-1.2,1.2v3.7
	c0,0.7-0.6,1.2-1.2,1.2s-1.2-0.6-1.2-1.2v-3.7c0-2.1,1.7-3.7,3.7-3.7c2.1,0,3.7,1.7,3.7,3.7v3.7C254.6,53.8,254,54.4,253.3,54.4z"/>
<path class="st0" d="M258.3,54.4c-0.7,0-1.2-0.6-1.2-1.2v-2.5c0-0.7-0.6-1.2-1.2-1.2s-1.2,0.6-1.2,1.2v2.5c0,0.7-0.6,1.2-1.2,1.2
	s-1.2-0.6-1.2-1.2v-2.5c0-2.1,1.7-3.7,3.7-3.7s3.7,1.7,3.7,3.7v2.5C259.6,53.8,259,54.4,258.3,54.4z"/>
<path class="st0" d="M238.4,65.6c-0.3,0-0.6-0.1-0.8-0.3l-7.5-6.4c-1.1-1-1.5-2.5-1.1-3.9c0.3-0.9,0.9-1.7,1.8-2.1
	c0.9-0.4,1.8-0.5,2.8-0.2l3.6,1.2V39.5c0-2.1,1.7-3.7,3.7-3.7s3.7,1.7,3.7,3.7v13.7c0,0.7-0.6,1.2-1.2,1.2s-1.2-0.6-1.2-1.2V39.5
	c0-0.7-0.6-1.2-1.2-1.2s-1.2,0.6-1.2,1.2v16.1c0,0.4-0.2,0.8-0.5,1c-0.3,0.2-0.7,0.3-1.1,0.2l-5.2-1.7c-0.6-0.2-1.2,0.1-1.4,0.7
	c-0.1,0.4,0,0.9,0.3,1.2l7.5,6.4c0.5,0.4,0.6,1.2,0.1,1.8C239.1,65.4,238.8,65.6,238.4,65.6z"/>
<path class="st0" d="M258.3,65.6c-0.7,0-1.2-0.6-1.2-1.2V53.1c0-0.7,0.6-1.2,1.2-1.2s1.2,0.6,1.2,1.2v11.2
	C259.6,65,259,65.6,258.3,65.6z"/>
<path class="st0" d="M248.4,40.7h-5c-0.7,0-1.2-0.6-1.2-1.2s0.6-1.2,1.2-1.2h3.7V37c0-2.3-0.9-4.5-2.5-6.1c-1.6-1.6-3.8-2.5-6.1-2.5
	c-4.8,0-8.7,3.9-8.7,8.7v1.2h8.7c0.7,0,1.2,0.6,1.2,1.2s-0.6,1.2-1.2,1.2h-9.9c-0.7,0-1.2-0.6-1.2-1.2V37c0-6.2,5-11.2,11.2-11.2
	c3,0,5.8,1.2,7.9,3.3c2.1,2.1,3.3,4.9,3.3,7.9v2.5C249.6,40.2,249.1,40.7,248.4,40.7z"/>
<path class="st0" d="M238.4,28.3c-0.7,0-1.2-0.6-1.2-1.2v-2.5c0-0.7,0.6-1.2,1.2-1.2s1.2,0.6,1.2,1.2v2.5
	C239.7,27.7,239.1,28.3,238.4,28.3z"/>
<path class="st0" d="M249.6,40.7h-6.2c-0.7,0-1.2-0.6-1.2-1.2s0.6-1.2,1.2-1.2h6.2c0.7,0,1.2,0.6,1.2,1.2S250.3,40.7,249.6,40.7z"/>
<path class="st0" d="M238.4,40.7h-11.2c-0.7,0-1.2-0.6-1.2-1.2s0.6-1.2,1.2-1.2h11.2c0.7,0,1.2,0.6,1.2,1.2S239.1,40.7,238.4,40.7z"
	/>
<path class="st0" d="M289.3,6.8c-2.2,0-3.9,1.8-3.9,3.9v3.7c0,0.1,0,0.3,0,0.4v18.2h-6.6c-0.7,0-1.3,0.6-1.3,1.3
	c0,0.7,0.6,1.3,1.3,1.3c0,0,0,0,0,0h47.3c0.7,0,1.3-0.6,1.3-1.3c0-0.7-0.6-1.3-1.3-1.3c0,0,0,0,0,0h-6.6V14.9c0-0.1,0-0.3,0-0.4
	v-3.7c0-2.2-1.8-3.9-3.9-3.9H289.3z M289.3,9.5h26.3c0.7,0,1.3,0.6,1.3,1.3v2.6H288v-2.6C288,10.1,288.6,9.5,289.3,9.5z M288,16
	h28.9v17.1H313v-7.9c0-2.2-1.8-3.9-3.9-3.9h-13.1c-2.2,0-3.9,1.8-3.9,3.9v7.9H288V16z M295.9,23.9h1.3v9.2h-2.6v-7.9
	C294.6,24.5,295.2,23.9,295.9,23.9z M299.9,23.9h9.2c0.7,0,1.3,0.6,1.3,1.3v7.9h-10.5V23.9z M285.4,38.4v16.9c0,0.1,0,0.3,0,0.4v5
	c0,2.2,1.8,3.9,3.9,3.9h26.3c2.2,0,3.9-1.8,3.9-3.9v-5c0-0.1,0-0.3,0-0.4V38.4h-2.6v15.8H288V38.4H285.4z M292,38.4v6.6
	c0,2.2,1.8,3.9,3.9,3.9H309c2.2,0,3.9-1.8,3.9-3.9v-6.6h-2.6v6.6c0,0.7-0.6,1.3-1.3,1.3h-9.2v-7.9h-2.6v7.9h-1.3
	c-0.7,0-1.3-0.6-1.3-1.3v-6.6H292z M288,56.8h28.9v3.9c0,0.7-0.6,1.3-1.3,1.3h-26.3c-0.7,0-1.3-0.6-1.3-1.3V56.8z M298.5,58.1
	c-0.7,0-1.3,0.6-1.3,1.3s0.6,1.3,1.3,1.3c0,0,0,0,0,0h7.9c0.7,0,1.3-0.6,1.3-1.3c0-0.7-0.6-1.3-1.3-1.3c0,0,0,0,0,0H298.5z"/>
<path class="st0" d="M367.5,6.6c-0.6,0-1,0.4-1.1,1l-0.6,3.5c-0.5,0.2-1.1,0.4-1.6,0.6l-2.9-2.1c-0.5-0.3-1.1-0.3-1.5,0.1l-2.5,2.4
	c-0.4,0.4-0.5,1-0.1,1.5l2,2.9c-0.3,0.5-0.5,1-0.7,1.6l-3.5,0.6c-0.6,0.1-1,0.6-1,1.1l0,3.5c0,0.6,0.4,1,1,1.1l3.5,0.6
	c0.2,0.5,0.4,1.1,0.6,1.6l-2.1,2.9c-0.3,0.5-0.3,1.1,0.1,1.5l2.4,2.5c0.4,0.4,1,0.5,1.5,0.1l2.9-2c0.5,0.3,1,0.5,1.6,0.6l0.6,3.5
	c0.1,0.6,0.6,1,1.1,1l3.5,0c0.6,0,1.1-0.4,1.2-1l0.6-3.5c0.5-0.2,1-0.4,1.6-0.6l2.9,2.1c0.5,0.3,1.1,0.3,1.5-0.1l2.5-2.4
	c0.4-0.4,0.5-1,0.1-1.5l-2.1-2.9c0.3-0.5,0.5-1,0.7-1.5l3.5-0.6c0.6-0.1,1-0.6,1-1.1l0-3.5c0-0.6-0.4-1.1-1-1.1l-3.5-0.6
	c-0.2-0.5-0.4-1.1-0.6-1.6l2.1-2.9c0.3-0.5,0.3-1.1-0.1-1.5l-2.4-2.5c-0.4-0.4-1-0.5-1.5-0.1l-2.9,2c-0.5-0.3-1-0.5-1.6-0.7
	l-0.6-3.5c-0.1-0.6-0.6-1-1.1-1L367.5,6.6z M368.4,8.9l1.5,0l0.5,3.1c0.1,0.5,0.4,0.8,0.9,0.9c0.9,0.2,1.7,0.6,2.4,1
	c0.4,0.2,0.9,0.2,1.3,0l2.6-1.8l1.1,1.1l-1.9,2.6c-0.3,0.4-0.3,0.9,0,1.3c0.5,0.8,0.8,1.6,1,2.4c0.1,0.5,0.5,0.8,0.9,0.9l3.2,0.5
	l0,1.5l-3.2,0.5c-0.5,0.1-0.8,0.4-0.9,0.9c-0.2,0.8-0.6,1.7-1,2.4c-0.2,0.4-0.2,0.9,0,1.3l1.9,2.6l-1.1,1.1l-2.6-1.9
	c-0.4-0.3-0.9-0.3-1.3,0c-0.8,0.5-1.6,0.8-2.4,1c-0.5,0.1-0.8,0.5-0.9,0.9l-0.5,3.2l-1.5,0l-0.5-3.2c-0.1-0.5-0.4-0.8-0.9-0.9
	c-0.8-0.2-1.7-0.6-2.4-1c-0.4-0.2-0.9-0.2-1.3,0l-2.6,1.8l-1.1-1.1l1.9-2.6c0.3-0.4,0.3-0.9,0.1-1.3c-0.5-0.8-0.8-1.6-1-2.5
	c-0.1-0.4-0.5-0.8-0.9-0.9l-3.1-0.6l0-1.5l3.1-0.5c0.5-0.1,0.8-0.4,0.9-0.9c0.2-0.9,0.6-1.7,1-2.5c0.2-0.4,0.2-0.9,0-1.3l-1.8-2.6
	l1.1-1.1l2.6,1.9c0.4,0.3,0.9,0.3,1.3,0.1c0.8-0.5,1.6-0.8,2.5-1c0.4-0.1,0.8-0.5,0.9-0.9L368.4,8.9z M369.1,15.9
	c-1.5,0-3,0.5-4.1,1.7c-2.3,2.2-2.3,6,0,8.2c2.2,2.3,6,2.3,8.2,0c2.3-2.2,2.3-6,0-8.2C372.1,16.5,370.6,15.9,369.1,15.9z
	 M369.1,18.2c0.9,0,1.8,0.4,2.5,1c1.4,1.4,1.4,3.6,0,4.9c-1.4,1.4-3.6,1.4-5,0c-1.4-1.4-1.4-3.6,0-5
	C367.3,18.5,368.2,18.2,369.1,18.2z M356.8,36.8c-3,0-4.4,0.7-5.9,1.3c0,0,0,0,0,0c-2.9,1.1-7.8,3.5-7.8,3.5c-0.6,0.3-0.8,1-0.6,1.5
	c0.3,0.6,1,0.8,1.6,0.6c0,0,5-2.3,7.7-3.4c1.7-0.6,2.4-1.2,5.1-1.2c6,0,5.7,2.6,8.2,4.1c0,0,0.1,0,0.1,0.1c3.1,1.4,6.5,1.7,9.2,1.7
	c1.2,0,1.9,0.3,2.4,0.6c0.4,0.3,0.5,0.6,0.5,1.2c0,0.6-0.2,0.9-0.6,1.2c-0.4,0.3-1.2,0.5-2.3,0.5h-6.1c-2.6,0-7-1.1-7-1.1
	c-0.4-0.1-0.8,0-1.1,0.3c-0.3,0.3-0.4,0.7-0.3,1.1c0.1,0.4,0.4,0.7,0.8,0.8c0,0,4.4,1.2,7.6,1.2h6.1c1.2,0,2.2-0.2,3.1-0.6
	c0.1,0,0.2-0.1,0.3-0.1l11-7.2c1.7-1,2.8-1.2,3.4-1.2c0.7,0,0.9,0.2,1.1,0.5c0.3,0.4,0.3,0.5,0.1,1c-0.2,0.4-0.8,1.1-1.8,1.8
	c0,0,0,0,0,0c-1.3,0.9-15.4,10.1-17,11c-1.2,0.7-2.2,1.4-3.3,1.7c-1.1,0.3-2.4,0.3-4.6-0.7c-1.4-0.7-7.6-3.9-9.6-4.9
	c-1.1-0.6-2.1-0.9-3-0.8c-1,0.1-1.8,0.5-2.6,1c0,0,0,0,0,0l-2.9,1.8c-0.4,0.2-0.6,0.6-0.6,1c0,0.4,0.3,0.8,0.6,1
	c0.4,0.2,0.8,0.2,1.2-0.1l2.9-1.8c0.7-0.5,1.2-0.6,1.5-0.7s0.9,0.1,1.9,0.6c2,1,8,4.1,9.7,4.9c2.5,1.2,4.6,1.3,6.2,0.9
	c1.6-0.5,2.8-1.4,3.8-2c2.2-1.3,15.6-10,17.2-11.1c1.2-0.9,2.1-1.8,2.6-2.8c0.5-1.1,0.3-2.4-0.4-3.3c0,0,0,0,0,0
	c-0.6-0.7-1.6-1.3-2.9-1.4c-0.7,0-1.5,0.2-2.4,0.5c-0.2-0.2-0.4-0.5-0.8-0.8c-0.7-0.5-1.8-1-3.2-1c-0.7,0-1.4,0.2-1.9,0.4
	c-0.7-0.7-1.9-1.5-3.7-1.5c-1.5,0-2.8,0.5-3.8,1.1c-0.2,0.1-0.6,0.4-1.3,0.8c-0.7,0.5-1.7,1-2.6,1.6c-1.5,0.9-2.4,1.5-3,1.8
	c-1.1-0.2-2.3-0.5-3.4-1C365.3,40.5,363.5,36.8,356.8,36.8z M380.2,39.1c0.7,0,1.3,0.2,1.6,0.4l-5.4,3.3c-0.6-0.2-1.4-0.3-2.1-0.3
	c-0.3,0-0.7,0-1.1,0c0.2-0.1,0.2-0.1,0.4-0.3c0.9-0.6,1.9-1.2,2.6-1.6c0.7-0.4,1.3-0.8,1.3-0.8C378.2,39.5,379.4,39.1,380.2,39.1z
	 M385.8,40.2c0.9,0,1.5,0.2,1.8,0.5c0,0,0,0,0,0l-8,5.3c-0.1-0.6-0.4-1.3-0.8-1.8l5.6-3.5l0,0C384.3,40.7,385.3,40.2,385.8,40.2z"/>
<g>
	<path class="st0" d="M240.4-76.5c-1.7,0-3.5,0.7-4.8,2c-2.1,2.1-2.9,4.9-4.9,6.9s-4.8,2.8-6.9,4.9l0,0c-2.1,2.1-3.7,5.8-5.7,7.8
		s-5.7,3.6-7.8,5.7l0,0c-2.1,2.1-2.9,4.9-4.9,6.9s-4.8,2.8-6.9,4.9c-2.6,2.6-2.6,6.9,0,9.5s6.9,2.6,9.5,0c2.1-2.1,2.6-4.7,4.9-6.9
		c2.3-2.3,4.8-2.8,6.9-4.9l0,0c2.1-2.1,3.4-5.6,5.7-7.8c2.3-2.3,5.7-3.6,7.8-5.7l0,0c2.1-2.1,2.6-4.7,4.9-6.9
		c2.3-2.2,4.8-2.8,6.9-4.9c2.6-2.6,2.6-6.9,0-9.5l0,0C243.9-75.8,242.2-76.5,240.4-76.5z M240.4-74.8c1.3,0,2.6,0.5,3.6,1.5
		c2,2,2,5.2,0,7.2c-1.6,1.6-4.3,2.3-6.9,4.9c-2.6,2.6-3.2,5.3-4.9,6.9c-2,2-5.2,2-7.2,0s-2-5.2,0-7.2c1.6-1.6,4.5-2.5,6.9-4.9
		c2.4-2.4,3.2-5.3,4.9-6.9C237.9-74.3,239.1-74.8,240.4-74.8z M240.4-72.3c-1.4,0-2.5,1.1-2.5,2.5c0,1.4,1.1,2.5,2.5,2.5
		s2.5-1.1,2.5-2.5C242.9-71.2,241.8-72.3,240.4-72.3z M240.4-70.6c0.5,0,0.8,0.4,0.8,0.8c0,0.4-0.4,0.8-0.8,0.8
		c-0.5,0-0.8-0.4-0.8-0.8C239.6-70.2,240-70.6,240.4-70.6z M237.1-67.2c-0.5,0-0.8,0.4-0.8,0.8c0,0.5,0.4,0.8,0.8,0.8
		c0.5,0,0.8-0.4,0.8-0.8C237.9-66.9,237.5-67.2,237.1-67.2z M234.5-64.7c-0.5,0-0.8,0.4-0.8,0.8c0,0.5,0.4,0.8,0.8,0.8
		c0.5,0,0.8-0.4,0.8-0.8C235.4-64.3,235-64.7,234.5-64.7z M232-62.2c-0.5,0-0.8,0.4-0.8,0.8c0,0.5,0.4,0.8,0.8,0.8
		c0.5,0,0.8-0.4,0.8-0.8C232.8-61.8,232.5-62.2,232-62.2z M228.6-60.5c-1.4,0-2.5,1.1-2.5,2.5c0,1.4,1.1,2.5,2.5,2.5
		s2.5-1.1,2.5-2.5C231.1-59.4,230-60.5,228.6-60.5z M228.6-58.8c0.5,0,0.8,0.4,0.8,0.8c0,0.4-0.4,0.8-0.8,0.8
		c-0.5,0-0.8-0.4-0.8-0.8C227.8-58.4,228.1-58.8,228.6-58.8z M221.9-57.2c0.1,1.2,0.6,2.4,1.4,3.4l-4,4c-1-0.8-2.2-1.2-3.4-1.4
		c1.2-0.8,2.4-1.6,3.4-2.6C220.3-54.7,221.1-56,221.9-57.2z M224.5-52.6c1,0.8,2.1,1.2,3.3,1.4c-1.2,0.8-2.3,1.6-3.4,2.6
		s-1.9,2.2-2.6,3.4c-0.1-1.2-0.6-2.3-1.4-3.3L224.5-52.6z M215.1-49.5c1.3,0,2.6,0.5,3.6,1.5c2,2,2,5.2,0,7.2
		c-1.6,1.6-4.3,2.3-6.9,4.9s-3.2,5.3-4.9,6.9c-2,2-5.2,2-7.2,0s-2-5.2,0-7.2c1.6-1.6,4.5-2.5,6.9-4.9s3.2-5.3,4.9-6.9
		C212.5-49,213.8-49.5,215.1-49.5z M215.1-47c-1.4,0-2.5,1.1-2.5,2.5s1.1,2.5,2.5,2.5s2.5-1.1,2.5-2.5C217.7-45.8,216.5-47,215.1-47
		z M215.1-45.3c0.5,0,0.8,0.4,0.8,0.8s-0.4,0.8-0.8,0.8c-0.5,0-0.8-0.4-0.8-0.8S214.6-45.3,215.1-45.3z M211.7-41.9
		c-0.5,0-0.8,0.4-0.8,0.8c0,0.5,0.4,0.8,0.8,0.8c0.5,0,0.8-0.4,0.8-0.8C212.6-41.5,212.2-41.9,211.7-41.9z M209.2-39.4
		c-0.5,0-0.8,0.4-0.8,0.8c0,0.5,0.4,0.8,0.8,0.8c0.5,0,0.8-0.4,0.8-0.8C210.1-39,209.7-39.4,209.2-39.4z M206.7-36.8
		c-0.5,0-0.8,0.4-0.8,0.8c0,0.5,0.4,0.8,0.8,0.8s0.8-0.4,0.8-0.8C207.5-36.5,207.1-36.8,206.7-36.8z M203.3-35.2
		c-1.4,0-2.5,1.1-2.5,2.5c0,1.4,1.1,2.5,2.5,2.5s2.5-1.1,2.5-2.5C205.8-34.1,204.7-35.2,203.3-35.2z M203.3-33.5
		c0.5,0,0.8,0.4,0.8,0.8s-0.4,0.8-0.8,0.8c-0.5,0-0.8-0.4-0.8-0.8S202.8-33.5,203.3-33.5z"/>
	<path class="st0" d="M280-83.7v4.4h-0.9v0.9c0,2.3-1,3.3-2.2,3.8c-0.5,0.2-1,0.4-1.4,0.5v-1.7h-8.8v0.9v11.4h0.9v13.2h-0.9v24.5
		h0.9c1.5,0,2.6,1.2,2.6,2.6v0.9h5.3v-28h-0.9v-13.2h0.9v-2.3l0.9-0.6c1.6-1.1,4.5-2.3,8.7-2.3c4.2,0,7.1,1.3,8.7,2.3l0.9,0.6v2.3
		h0.9v13.2h-0.9v28.1h5.3v-0.9c0-1.5,1.2-2.6,2.6-2.6h0.9v-0.9v-23.7h-0.9v-13.2h0.9v-12.3h-8.8v0.9v0.8c-0.4-0.1-0.9-0.2-1.4-0.5
		c-1.1-0.6-2.2-1.5-2.2-3.8v-0.9h-0.9v-4.4h-1.8v4.4h-3.5h-3.5v-4.4H280z M280.7-77.6h4.5h4.5c0.3,2.4,1.6,3.8,3,4.5
		c0.8,0.4,1.6,0.6,2.2,0.7v4.4c-1.9-1.2-5.1-2.6-9.7-2.6s-7.8,1.4-9.7,2.6v-4.4c0.6-0.1,1.3-0.3,2.2-0.7
		C279.1-73.7,280.5-75.2,280.7-77.6z M268.6-74h5.3l0,0v8.7h-5.3V-74z M296.7-74h5.3v8.8h-5.3V-74z M269.5-63.5h3.5v13.2h-3.5V-63.5
		z M297.5-63.5h3.5v13.2h-3.5V-63.5z M286.9-57.4c-0.1,0-0.2,0-0.3,0.1c-0.1,0-0.2,0.1-0.3,0.2c-0.2,0.2-0.3,0.4-0.3,0.6
		c0,0.1,0,0.1,0,0.2c0,0.1,0,0.1,0.1,0.2c0,0.1,0,0.1,0.1,0.2l0.1,0.1c0.2,0.2,0.4,0.3,0.6,0.3s0.5-0.1,0.6-0.3l0.1-0.1
		c0-0.1,0.1-0.1,0.1-0.2c0-0.1,0-0.1,0.1-0.2c0-0.1,0-0.1,0-0.2c0-0.2-0.1-0.5-0.3-0.6C287.5-57.3,287.2-57.4,286.9-57.4z
		 M283.6-57.4c-0.3,0-0.5,0.1-0.7,0.2c-0.2,0.2-0.3,0.4-0.3,0.6s0.1,0.5,0.3,0.6c0.2,0.2,0.4,0.3,0.6,0.3c0.1,0,0.2,0,0.3-0.1
		c0.1-0.1,0.2-0.1,0.3-0.2c0.2-0.2,0.3-0.4,0.3-0.6s-0.1-0.5-0.3-0.6c-0.1-0.1-0.2-0.1-0.3-0.2C283.8-57.3,283.7-57.4,283.6-57.4z
		 M280.1-56.7c-0.1,0-0.2,0-0.3,0.1c-0.4,0.2-0.6,0.7-0.5,1.2c0.1,0.3,0.5,0.5,0.8,0.5c0.1,0,0.2,0,0.3-0.1c0.4-0.2,0.6-0.7,0.5-1.2
		C280.8-56.5,280.5-56.7,280.1-56.7z M290.4-56.7c-0.3,0-0.7,0.2-0.8,0.5c-0.2,0.4,0,1,0.5,1.1c0.1,0,0.2,0.1,0.3,0.1
		c0.3,0,0.7-0.2,0.8-0.5c0.2-0.4,0-1-0.5-1.2C290.6-56.7,290.5-56.7,290.4-56.7z M277.3-54.7c-0.1,0-0.2,0-0.2,0.1
		c-0.1,0-0.2,0.1-0.3,0.2c-0.1,0.1-0.1,0.2-0.2,0.3c0,0.1-0.1,0.2-0.1,0.3c0,0.2,0.1,0.5,0.3,0.6c0.1,0.1,0.2,0.1,0.3,0.2
		c0.1,0,0.2,0.1,0.3,0.1c0.2,0,0.5-0.1,0.6-0.3c0.2-0.2,0.3-0.4,0.3-0.6s-0.1-0.5-0.3-0.6C277.8-54.7,277.5-54.8,277.3-54.7z
		 M293.1-54.7c-0.1,0-0.2,0-0.3,0.1c-0.1,0-0.2,0.1-0.3,0.2c-0.1,0.1-0.1,0.2-0.2,0.3c0,0.1-0.1,0.2-0.1,0.3c0,0.2,0.1,0.5,0.3,0.6
		c0.1,0.1,0.2,0.1,0.3,0.2c0.1,0,0.2,0.1,0.3,0.1c0.2,0,0.5-0.1,0.6-0.3c0.2-0.2,0.3-0.4,0.3-0.6c0-0.1,0-0.2-0.1-0.3
		c0-0.1-0.1-0.2-0.2-0.3C293.6-54.7,293.3-54.8,293.1-54.7z M268.6-48.6h5.3V-24H272c-0.4-1.7-1.6-3-3.3-3.3v-21.3H268.6z
		 M296.7-48.6h5.3v21.2c-1.7,0.4-3,1.6-3.3,3.3h-1.9v-24.5H296.7z"/>
	<path class="st0" d="M349.2-81.7l-0.9,0.1c-0.6,0.1-1.3,0.1-1.9,0.3l-0.9,0.1l0.2,0.9c0.2,0.9-0.4,1.8-1.3,2.1
		c-0.9,0.2-1.8-0.3-2.1-1.2l-0.3-0.9l-0.9,0.3c-0.6,0.2-1.2,0.5-1.8,0.7l-0.8,0.5l0.4,0.8c0.4,0.8,0.1,1.9-0.7,2.3
		c-0.8,0.5-1.8,0.2-2.3-0.6l-0.5-0.8l-0.7,0.5c-0.6,0.4-1.1,0.8-1.5,1.2l-0.7,0.6l0.6,0.7c0.6,0.7,0.6,1.8-0.1,2.4
		c-0.7,0.7-1.7,0.7-2.4,0.1l-0.7-0.6l-0.6,0.7c-0.4,0.5-0.7,0.9-1.2,1.5l-0.5,0.7l0.8,0.5c0.8,0.5,1,1.5,0.6,2.3
		c-0.5,0.8-1.5,1.1-2.3,0.7l-0.8-0.4l-0.4,0.8c-0.3,0.6-0.5,1.2-0.7,1.8l-0.3,0.9l0.9,0.3c0.9,0.3,1.4,1.2,1.2,2.1
		c-0.2,0.9-1.1,1.5-2.1,1.3l-0.9-0.2l-0.1,0.9c-0.1,0.7-0.2,1.3-0.3,1.9l-0.1,0.9h0.9c0.9,0,1.7,0.8,1.7,1.7s-0.7,1.7-1.7,1.7h-0.9
		l0.1,0.9c0.1,0.6,0.1,1.3,0.3,1.9l0.2,0.9l0.9-0.2c0.9-0.2,1.8,0.4,2.1,1.3c0.2,0.9-0.3,1.8-1.2,2.1l-0.9,0.3l0.3,0.9
		c0.2,0.6,0.5,1.2,0.7,1.8l0.4,0.8l0.8-0.4c0.8-0.4,1.9-0.1,2.3,0.7c0.5,0.8,0.2,1.8-0.6,2.3l-0.8,0.5l0.5,0.7
		c0.4,0.6,0.8,1.1,1.2,1.5l0.6,0.7l0.7-0.6c0.7-0.6,1.8-0.6,2.4,0.1c0.7,0.7,0.7,1.7,0.1,2.4l-0.6,0.7l0.7,0.6
		c0.4,0.4,1,0.8,1.5,1.2l0.7,0.5l0.5-0.8c0.5-0.8,1.5-1,2.3-0.6c0.8,0.5,1.1,1.5,0.7,2.3l-0.4,0.8l0.8,0.4c0.6,0.3,1.2,0.5,1.8,0.7
		l0.9,0.3l0.3-0.9c0.3-0.9,1.2-1.4,2.1-1.2s1.4,1.1,1.3,2.1l-0.2,0.9l0.9,0.2c0.7,0.1,1.3,0.2,1.9,0.3l0.9,0.1v-0.9
		c0-0.9,0.8-1.7,1.7-1.7s1.7,0.7,1.7,1.7v0.9l0.9-0.1c0.6-0.1,1.3-0.1,1.9-0.3l0.9-0.2l-0.2-0.9c-0.2-0.9,0.4-1.8,1.3-2.1
		c0.9-0.2,1.8,0.3,2.1,1.2l0.3,0.9l0.9-0.3c0.6-0.2,1.2-0.5,1.8-0.7l0.8-0.4l-0.4-0.8c-0.4-0.7-0.2-1.5,0.3-2l-1.2-1.2
		c-0.8,0.8-1.2,2-1,3.2c-0.1,0-0.1,0.1-0.2,0.1c-0.8-1.2-2.3-1.9-3.8-1.5s-2.5,1.7-2.6,3.2c-0.1,0-0.1,0-0.2,0
		c-0.5-1.4-1.8-2.4-3.3-2.4s-2.9,1-3.3,2.4c-0.1,0-0.1,0-0.2,0c-0.1-1.5-1.1-2.8-2.6-3.2s-3,0.2-3.8,1.5c-0.1,0-0.1-0.1-0.2-0.1
		c0.3-1.5-0.3-3-1.7-3.8c-1.3-0.8-3-0.6-4.1,0.4c-0.1,0-0.1-0.1-0.2-0.1c0.7-1.3,0.5-3-0.6-4.1s-2.7-1.3-4.1-0.6
		c0-0.1-0.1-0.1-0.1-0.2c1-1.1,1.2-2.8,0.4-4.1c-0.8-1.3-2.3-2-3.8-1.7c0-0.1-0.1-0.1-0.1-0.2c1.2-0.8,1.9-2.3,1.5-3.8
		s-1.7-2.5-3.2-2.6c0-0.1,0-0.1,0-0.2c1.4-0.5,2.4-1.8,2.4-3.3c0-1.6-1-2.9-2.4-3.3c0-0.1,0-0.1,0-0.2c1.5-0.1,2.8-1.1,3.2-2.6
		c0.4-1.5-0.2-3-1.5-3.8c0-0.1,0.1-0.1,0.1-0.2c1.5,0.3,3-0.3,3.8-1.7c0.8-1.3,0.6-3-0.4-4.1c0-0.1,0.1-0.1,0.1-0.2
		c1.3,0.7,3,0.5,4.1-0.6s1.3-2.7,0.6-4.1c0.1,0,0.1-0.1,0.2-0.1c1.1,1,2.8,1.2,4.1,0.4c1.3-0.8,2-2.3,1.7-3.8c0.1,0,0.1-0.1,0.2-0.1
		c0.8,1.2,2.3,1.9,3.8,1.5c1.5-0.4,2.5-1.7,2.6-3.2c0.1,0,0.1,0,0.2,0c0.5,1.4,1.8,2.4,3.3,2.4s2.9-1,3.3-2.4c0.1,0,0.1,0,0.2,0
		c0.1,1.5,1.1,2.8,2.6,3.2s3-0.2,3.8-1.5c0.1,0,0.1,0.1,0.2,0.1c-0.3,1.5,0.3,3,1.7,3.8c1.3,0.8,3,0.6,4.1-0.4
		c0.1,0,0.1,0.1,0.2,0.1c-0.7,1.3-0.5,3,0.6,4.1s2.7,1.3,4.1,0.6c0,0.1,0.1,0.1,0.1,0.2c-1,1.1-1.2,2.8-0.4,4.1
		c0.8,1.3,2.3,2,3.8,1.7c0,0.1,0.1,0.1,0.1,0.2c-1.2,0.8-1.9,2.3-1.5,3.8s1.7,2.5,3.2,2.6c0,0.1,0,0.1,0,0.2
		c-1.4,0.5-2.4,1.8-2.4,3.3c0,1.6,1,2.9,2.4,3.3c0,0.1,0,0.1,0,0.2c-1.5,0.1-2.8,1.1-3.2,2.6c-0.4,1.5,0.2,3,1.5,3.8
		c0,0.1-0.1,0.1-0.1,0.2c-1.2-0.3-2.4,0.1-3.2,1l1.2,1.2c0.5-0.5,1.3-0.7,2-0.3l0.8,0.4l0.4-0.8c0.3-0.6,0.5-1.2,0.7-1.8l0.3-0.9
		l-0.9-0.3c-0.9-0.3-1.4-1.2-1.2-2.1c0.2-0.9,1.1-1.4,2.1-1.3l0.9,0.2l0.2-0.9c0.1-0.7,0.2-1.3,0.3-1.9l0.1-0.9h-0.9
		c-0.9,0-1.7-0.8-1.7-1.7s0.7-1.7,1.7-1.7h0.9l-0.1-0.9c-0.1-0.6-0.1-1.3-0.3-1.9l-0.2-0.9l-0.9,0.2c-0.9,0.2-1.8-0.4-2.1-1.3
		c-0.2-0.9,0.3-1.8,1.2-2.1l0.9-0.3l-0.3-0.9c-0.2-0.6-0.5-1.2-0.7-1.8l-0.4-0.8l-0.8,0.4c-0.8,0.4-1.9,0.1-2.3-0.7
		c-0.5-0.8-0.2-1.8,0.6-2.3l0.8-0.5l-0.5-0.7c-0.4-0.6-0.8-1.1-1.2-1.5l-0.6-0.7l-0.7,0.6c-0.7,0.6-1.8,0.6-2.4-0.1
		c-0.6-0.7-0.7-1.7-0.1-2.4l0.6-0.7l-0.7-0.6c-0.5-0.4-0.9-0.7-1.5-1.2l-0.7-0.5l-0.5,0.8c-0.5,0.8-1.5,1-2.3,0.6
		c-0.8-0.5-1.1-1.5-0.7-2.3l0.4-0.8l-0.8-0.4c-0.6-0.3-1.2-0.5-1.8-0.7l-0.9-0.3l-0.3,0.9c-0.3,0.9-1.2,1.4-2.1,1.2
		c-0.9-0.2-1.4-1.1-1.3-2.1l0.2-0.9l-0.9-0.1c-0.7-0.1-1.3-0.2-1.9-0.3l-0.9-0.1v0.9c0,0.9-0.8,1.7-1.7,1.7s-1.8-0.7-1.9-1.6V-81.7z
		 M351-75.6c-0.5,0-0.9,0.4-0.9,0.9s0.4,0.9,0.9,0.9s0.9-0.4,0.9-0.9S351.5-75.6,351-75.6z M345.5-74.8c-0.5,0-0.9,0.4-0.9,0.9
		s0.4,0.9,0.9,0.9s0.9-0.4,0.9-0.9S346-74.8,345.5-74.8z M356.4-74.8c-0.5,0-0.9,0.4-0.9,0.9s0.4,0.9,0.9,0.9s0.9-0.4,0.9-0.9
		S356.9-74.8,356.4-74.8z M340.4-72.7c-0.5,0-0.9,0.4-0.9,0.9s0.4,0.9,0.9,0.9s0.9-0.4,0.9-0.9C341.3-72.4,340.9-72.7,340.4-72.7z
		 M361.5-72.7c-0.5,0-0.9,0.4-0.9,0.9s0.4,0.9,0.9,0.9s0.9-0.4,0.9-0.9C362.4-72.4,362-72.7,361.5-72.7z M349.2-72
		c-6.8,0.6-12.5,5-15.1,11l11,3.6c0.3-0.5,0.8-1,1.2-1.4l-9.7-3.2c2.3-4,6.2-6.9,10.9-7.9v10.2c0.5-0.3,1.1-0.6,1.8-0.7L349.2-72
		L349.2-72z M352.7-72v11.5c0.6,0.2,1.2,0.4,1.8,0.7v-10.1c4.6,1,8.6,3.9,10.9,7.9l-9.7,3.2c0.1,0.1,0.2,0.2,0.3,0.2
		c0.2,0.2,0.6,0.6,1.1,1.1l10.8-3.5C365.3-67,359.5-71.3,352.7-72z M336.1-69.4c-0.5,0-0.9,0.4-0.9,0.9s0.4,0.9,0.9,0.9
		s0.9-0.4,0.9-0.9S336.6-69.4,336.1-69.4z M365.9-69.4c-0.5,0-0.9,0.4-0.9,0.9s0.4,0.9,0.9,0.9s0.9-0.4,0.9-0.9
		S366.4-69.4,365.9-69.4z M332.7-65c-0.5,0-0.9,0.4-0.9,0.9s0.4,0.9,0.9,0.9s0.9-0.4,0.9-0.9S333.2-65,332.7-65z M369.2-65
		c-0.5,0-0.9,0.4-0.9,0.9s0.4,0.9,0.9,0.9s0.9-0.4,0.9-0.9S369.7-65,369.2-65z M330.6-60c-0.5,0-0.9,0.4-0.9,0.9s0.4,0.9,0.9,0.9
		s0.9-0.4,0.9-0.9S331.1-60,330.6-60z M371.3-60c-0.5,0-0.9,0.4-0.9,0.9s0.4,0.9,0.9,0.9s0.9-0.4,0.9-0.9S371.8-60,371.3-60z
		 M351-58.9c-1.4,0-2.7,0.6-3.7,1.5c-1,1-1.5,2.3-1.5,3.7c0,1.4,0.6,2.7,1.5,3.7l0,0c1.6,1.6,26.5,26.5,28.1,28.1l0,0
		c1,1,2.3,1.5,3.7,1.5s2.7-0.6,3.7-1.5c1-1,1.5-2.3,1.5-3.7s-0.6-2.7-1.5-3.7l0,0c-1.6-1.5-26.5-26.5-28.1-28l0,0
		C353.7-58.3,352.4-58.9,351-58.9z M369-57.6l-9.1,3c0.4,0.4,0.9,0.9,1.4,1.4l6.3-2c0.1,0.6,0.1,1.1,0.1,1.7c0,2-0.4,3.9-1,5.7
		l1.4,1.4c0.9-2.2,1.4-4.6,1.4-7.1C369.4-55,369.2-56.3,369-57.6z M333-57.6c-0.3,1.3-0.5,2.6-0.5,4c0,5.5,2.4,10.4,6.2,13.8
		l6.8-9.3l0,0c-0.2-0.2-0.4-0.5-0.5-0.7c0,0,0-0.1-0.1-0.1c-0.2-0.3-0.3-0.5-0.4-0.8l-6,8.3c-2.6-3-4.3-6.8-4.3-11.1
		c0-0.6,0-1.1,0.1-1.7L344-52c-0.1-0.5-0.2-1-0.2-1.5c0-0.1,0-0.3,0-0.4L333-57.6z M351-57.1c0.9,0,1.8,0.4,2.5,1
		c1.6,1.6,26.5,26.5,28.1,28.1c0.7,0.7,1,1.5,1,2.5c0,0.9-0.4,1.8-1,2.5c-0.7,0.7-1.5,1-2.5,1c-0.9,0-1.8-0.4-2.5-1l0,0
		c-1.6-1.6-26.5-26.5-28.1-28.1l0,0c-0.7-0.7-1-1.5-1-2.5c0-0.9,0.4-1.8,1-2.5C349.2-56.8,350-57.1,351-57.1z M351-55.4
		c-1,0-1.8,0.8-1.8,1.8s0.8,1.8,1.8,1.8s1.8-0.8,1.8-1.8C352.7-54.6,351.9-55.4,351-55.4z M329.9-54.5c-0.5,0-0.9,0.4-0.9,0.9
		s0.4,0.9,0.9,0.9s0.9-0.4,0.9-0.9S330.4-54.5,329.9-54.5z M372-54.5c-0.5,0-0.9,0.4-0.9,0.9s0.4,0.9,0.9,0.9s0.9-0.4,0.9-0.9
		C372.9-54.1,372.5-54.5,372-54.5z M330.6-49c-0.5,0-0.9,0.4-0.9,0.9s0.4,0.9,0.9,0.9s0.9-0.4,0.9-0.9S331.1-49,330.6-49z M371.3-49
		c-0.5,0-0.9,0.4-0.9,0.9s0.4,0.9,0.9,0.9s0.9-0.4,0.9-0.9S371.8-49,371.3-49z M348.1-46.6l-6.4,8.9c2.7,1.6,5.9,2.6,9.4,2.6
		c2.5,0,4.9-0.5,7.1-1.4c-0.5-0.5-0.9-0.9-1.4-1.4c-1.8,0.7-3.7,1-5.7,1c-2.4,0-4.7-0.5-6.7-1.4l5.1-7
		C348.9-45.8,348.4-46.2,348.1-46.6z M332.7-44c-0.5,0-0.9,0.4-0.9,0.9s0.4,0.9,0.9,0.9s0.9-0.4,0.9-0.9S333.2-44,332.7-44z
		 M336.1-39.6c-0.5,0-0.9,0.4-0.9,0.9s0.4,0.9,0.9,0.9s0.9-0.4,0.9-0.9S336.6-39.6,336.1-39.6z M340.4-36.3c-0.5,0-0.9,0.4-0.9,0.9
		s0.4,0.9,0.9,0.9s0.9-0.4,0.9-0.9S340.9-36.3,340.4-36.3z M345.5-34.2c-0.5,0-0.9,0.4-0.9,0.9s0.4,0.9,0.9,0.9s0.9-0.4,0.9-0.9
		S346-34.2,345.5-34.2z M356.4-34.2c-0.5,0-0.9,0.4-0.9,0.9s0.4,0.9,0.9,0.9s0.9-0.4,0.9-0.9S356.9-34.2,356.4-34.2z M351-33.4
		c-0.5,0-0.9,0.4-0.9,0.9c0,0.5,0.4,0.9,0.9,0.9s0.9-0.4,0.9-0.9C351.9-33,351.5-33.4,351-33.4z M379.1-27.3c-1,0-1.8,0.8-1.8,1.8
		s0.8,1.8,1.8,1.8s1.8-0.8,1.8-1.8C380.8-26.5,380-27.3,379.1-27.3z"/>
	<path class="st0" d="M86.8-81.5c-16,0-29,13-29,29s13,29,29,29s29-13,29-29S102.8-81.5,86.8-81.5z M86.8-79.7
		c15,0,27.2,12.2,27.2,27.2s-12.2,27.2-27.2,27.2S59.6-37.5,59.6-52.5S71.8-79.7,86.8-79.7z M86.8-78c-14,0-25.5,11.4-25.5,25.5
		S72.7-27,86.8-27c14.1,0,25.4-11.5,25.4-25.5S100.8-78,86.8-78z M86.8-76.2c13.1,0,23.7,10.6,23.7,23.7S99.9-28.8,86.8-28.8
		c-13.1,0-23.7-10.6-23.7-23.7S73.7-76.2,86.8-76.2z M86.8-74.4c-0.5,0-0.9,0.4-0.9,0.9s0.4,0.9,0.9,0.9s0.9-0.4,0.9-0.9
		C87.7-74.1,87.3-74.4,86.8-74.4z M79.6-73.2c-0.5,0-0.9,0.4-0.9,0.9s0.4,0.9,0.9,0.9s0.9-0.4,0.9-0.9S80.1-73.2,79.6-73.2z
		 M94-73.2c-0.5,0-0.9,0.4-0.9,0.9s0.4,0.9,0.9,0.9s0.9-0.4,0.9-0.9S94.5-73.2,94-73.2z M86.8-70.9c-0.5,0-0.9,0.4-0.9,0.9
		s0.4,0.9,0.9,0.9s0.9-0.4,0.9-0.9S87.3-70.9,86.8-70.9z M80.8-69.9c-0.5,0-0.9,0.4-0.9,0.9s0.4,0.9,0.9,0.9s0.9-0.4,0.9-0.9
		S81.3-69.9,80.8-69.9z M92.8-69.9c-0.5,0-0.9,0.4-0.9,0.9s0.4,0.9,0.9,0.9s0.9-0.4,0.9-0.9S93.3-69.9,92.8-69.9z M73.3-69.5
		c-0.5,0-0.9,0.4-0.9,0.9s0.4,0.9,0.9,0.9s0.9-0.4,0.9-0.9C74.1-69.1,73.7-69.5,73.3-69.5z M100.3-69.5c-0.5,0-0.9,0.4-0.9,0.9
		s0.4,0.9,0.9,0.9s0.9-0.4,0.9-0.9S100.8-69.5,100.3-69.5z M86.8-67.4c-0.5,0-0.9,0.4-0.9,0.9s0.4,0.9,0.9,0.9s0.9-0.4,0.9-0.9
		S87.3-67.4,86.8-67.4z M75.5-66.8c-0.5,0-0.9,0.4-0.9,0.9S75-65,75.5-65s0.9-0.4,0.9-0.9S76-66.8,75.5-66.8z M98.1-66.8
		c-0.5,0-0.9,0.4-0.9,0.9s0.4,0.9,0.9,0.9s0.9-0.4,0.9-0.9S98.6-66.8,98.1-66.8z M82-66.6c-0.5,0-0.9,0.4-0.9,0.9s0.4,0.9,0.9,0.9
		s0.9-0.4,0.9-0.9S82.5-66.6,82-66.6z M91.6-66.6c-0.5,0-0.9,0.4-0.9,0.9s0.4,0.9,0.9,0.9s0.9-0.4,0.9-0.9S92.1-66.6,91.6-66.6z
		 M77.8-64.1c-0.5,0-0.9,0.4-0.9,0.9s0.4,0.9,0.9,0.9s0.9-0.4,0.9-0.9C78.6-63.7,78.2-64.1,77.8-64.1z M95.8-64.1
		c-0.5,0-0.9,0.4-0.9,0.9s0.4,0.9,0.9,0.9s0.9-0.4,0.9-0.9S96.3-64.1,95.8-64.1z M68.5-63.9c-0.5,0-0.9,0.4-0.9,0.9s0.4,0.9,0.9,0.9
		s0.9-0.4,0.9-0.9S69-63.9,68.5-63.9z M86.8-63.9c-0.5,0-0.9,0.4-0.9,0.9s0.4,0.9,0.9,0.9s0.9-0.4,0.9-0.9S87.3-63.9,86.8-63.9z
		 M105-63.9c-0.5,0-0.9,0.4-0.9,0.9s0.4,0.9,0.9,0.9s0.9-0.4,0.9-0.9C105.9-63.5,105.5-63.9,105-63.9z M83.2-63.3
		c-0.5,0-0.9,0.4-0.9,0.9s0.4,0.9,0.9,0.9s0.9-0.4,0.9-0.9S83.7-63.3,83.2-63.3z M90.4-63.3c-0.5,0-0.9,0.4-0.9,0.9s0.4,0.9,0.9,0.9
		s0.9-0.4,0.9-0.9S90.9-63.3,90.4-63.3z M71.6-62.2c-0.5,0-0.9,0.4-0.9,0.9s0.4,0.9,0.9,0.9s0.9-0.4,0.9-0.9S72.1-62.2,71.6-62.2z
		 M102-62.2c-0.5,0-0.9,0.4-0.9,0.9s0.4,0.9,0.9,0.9s0.9-0.4,0.9-0.9C102.9-61.8,102.5-62.2,102-62.2z M80-61.5
		c-0.5,0-0.9,0.4-0.9,0.9s0.4,0.9,0.9,0.9s0.9-0.4,0.9-0.9S80.5-61.5,80-61.5z M93.6-61.5c-0.5,0-0.9,0.4-0.9,0.9s0.4,0.9,0.9,0.9
		s0.9-0.4,0.9-0.9C94.4-61.1,94-61.5,93.6-61.5z M74.6-60.4c-0.5,0-0.9,0.4-0.9,0.9s0.4,0.9,0.9,0.9s0.9-0.4,0.9-0.9
		S75.1-60.4,74.6-60.4z M86.8-60.4c-4.4,0-7.9,3.5-7.9,7.9s3.5,7.9,7.9,7.9c4.4,0,7.9-3.5,7.9-7.9S91.1-60.4,86.8-60.4z M99-60.4
		c-0.5,0-0.9,0.4-0.9,0.9s0.4,0.9,0.9,0.9s0.9-0.4,0.9-0.9C99.8-60,99.4-60.4,99-60.4z M77.7-58.6c-0.5,0-0.9,0.4-0.9,0.9
		s0.4,0.9,0.9,0.9s0.9-0.4,0.9-0.9C78.5-58.3,78.2-58.6,77.7-58.6z M86.8-58.6c3.4,0,6.1,2.7,6.1,6.1s-2.7,6.1-6.1,6.1
		c-3.4,0-6.1-2.7-6.1-6.1S83.4-58.6,86.8-58.6z M95.9-58.6c-0.5,0-0.9,0.4-0.9,0.9s0.4,0.9,0.9,0.9s0.9-0.4,0.9-0.9
		C96.8-58.3,96.4-58.6,95.9-58.6z M66-57c-0.5,0-0.9,0.4-0.9,0.9s0.4,0.9,0.9,0.9s0.9-0.4,0.9-0.9S66.5-57,66-57z M107.5-57
		c-0.5,0-0.9,0.4-0.9,0.9s0.4,0.9,0.9,0.9s0.9-0.4,0.9-0.9C108.4-56.6,108-57,107.5-57z M69.5-56.4c-0.5,0-0.9,0.4-0.9,0.9
		s0.4,0.9,0.9,0.9s0.9-0.4,0.9-0.9C70.4-56,70-56.4,69.5-56.4z M104.1-56.4c-0.5,0-0.9,0.4-0.9,0.9s0.4,0.9,0.9,0.9s0.9-0.4,0.9-0.9
		C105-56,104.6-56.4,104.1-56.4z M86.8-56c-1.9,0-3.5,1.6-3.5,3.5s1.6,3.5,3.5,3.5c1.9,0,3.5-1.6,3.5-3.5C90.3-54.4,88.7-56,86.8-56
		z M73-55.8c-0.5,0-0.9,0.4-0.9,0.9S72.5-54,73-54s0.9-0.4,0.9-0.9C73.9-55.4,73.4-55.8,73-55.8z M100.6-55.8
		c-0.5,0-0.9,0.4-0.9,0.9s0.4,0.9,0.9,0.9s0.9-0.4,0.9-0.9C101.5-55.4,101.1-55.8,100.6-55.8z M76.4-55.2c-0.5,0-0.9,0.4-0.9,0.9
		s0.4,0.9,0.9,0.9s0.9-0.4,0.9-0.9S76.9-55.2,76.4-55.2z M97.2-55.2c-0.5,0-0.9,0.4-0.9,0.9s0.4,0.9,0.9,0.9s0.9-0.4,0.9-0.9
		C98-54.8,97.7-55.2,97.2-55.2z M86.8-54.3c1,0,1.8,0.8,1.8,1.8s-0.8,1.8-1.8,1.8S85-51.5,85-52.5S85.8-54.3,86.8-54.3z M76.4-51.6
		c-0.5,0-0.9,0.4-0.9,0.9s0.4,0.9,0.9,0.9s0.9-0.4,0.9-0.9C77.3-51.2,76.9-51.6,76.4-51.6z M97.2-51.6c-0.5,0-0.9,0.4-0.9,0.9
		s0.4,0.9,0.9,0.9s0.9-0.4,0.9-0.9C98-51.2,97.7-51.6,97.2-51.6z M73-50.9c-0.5,0-0.9,0.4-0.9,0.9s0.4,0.9,0.9,0.9s0.9-0.4,0.9-0.9
		S73.4-50.9,73-50.9z M100.6-50.9c-0.5,0-0.9,0.4-0.9,0.9s0.4,0.9,0.9,0.9s0.9-0.4,0.9-0.9S101.1-50.9,100.6-50.9z M69.5-50.3
		c-0.5,0-0.9,0.4-0.9,0.9s0.4,0.9,0.9,0.9s0.9-0.4,0.9-0.9S70-50.3,69.5-50.3z M104.1-50.3c-0.5,0-0.9,0.4-0.9,0.9s0.4,0.9,0.9,0.9
		s0.9-0.4,0.9-0.9S104.6-50.3,104.1-50.3z M66-49.7c-0.5,0-0.9,0.4-0.9,0.9s0.4,0.9,0.9,0.9s0.9-0.4,0.9-0.9S66.5-49.7,66-49.7z
		 M107.5-49.7c-0.5,0-0.9,0.4-0.9,0.9s0.4,0.9,0.9,0.9s0.9-0.4,0.9-0.9S108-49.7,107.5-49.7z M77.7-48.1c-0.5,0-0.9,0.4-0.9,0.9
		s0.4,0.9,0.9,0.9s0.9-0.4,0.9-0.9S78.2-48.1,77.7-48.1z M95.9-48.1c-0.5,0-0.9,0.4-0.9,0.9s0.4,0.9,0.9,0.9s0.9-0.4,0.9-0.9
		S96.4-48.1,95.9-48.1z M74.6-46.4c-0.5,0-0.9,0.4-0.9,0.9s0.4,0.9,0.9,0.9s0.9-0.4,0.9-0.9C75.5-46,75.1-46.4,74.6-46.4z M99-46.4
		c-0.5,0-0.9,0.4-0.9,0.9s0.4,0.9,0.9,0.9s0.9-0.4,0.9-0.9C99.8-46,99.4-46.4,99-46.4z M80-45.3c-0.5,0-0.9,0.4-0.9,0.9
		s0.4,0.9,0.9,0.9s0.9-0.4,0.9-0.9S80.5-45.3,80-45.3z M93.6-45.3c-0.5,0-0.9,0.4-0.9,0.9s0.4,0.9,0.9,0.9s0.9-0.4,0.9-0.9
		S94-45.3,93.6-45.3z M71.6-44.6c-0.5,0-0.9,0.4-0.9,0.9s0.4,0.9,0.9,0.9s0.9-0.4,0.9-0.9C72.5-44.2,72.1-44.6,71.6-44.6z M102-44.6
		c-0.5,0-0.9,0.4-0.9,0.9s0.4,0.9,0.9,0.9s0.9-0.4,0.9-0.9C102.9-44.2,102.5-44.6,102-44.6z M83.2-43.5c-0.5,0-0.9,0.4-0.9,0.9
		s0.4,0.9,0.9,0.9s0.9-0.4,0.9-0.9S83.7-43.5,83.2-43.5z M90.4-43.5c-0.5,0-0.9,0.4-0.9,0.9s0.4,0.9,0.9,0.9s0.9-0.4,0.9-0.9
		S90.9-43.5,90.4-43.5z M68.5-42.8c-0.5,0-0.9,0.4-0.9,0.9S68-41,68.5-41s0.9-0.4,0.9-0.9S69-42.8,68.5-42.8z M86.8-42.8
		c-0.5,0-0.9,0.4-0.9,0.9s0.4,0.9,0.9,0.9s0.9-0.4,0.9-0.9S87.3-42.8,86.8-42.8z M105-42.8c-0.5,0-0.9,0.4-0.9,0.9s0.4,0.9,0.9,0.9
		s0.9-0.4,0.9-0.9S105.5-42.8,105-42.8z M77.8-42.6c-0.5,0-0.9,0.4-0.9,0.9s0.4,0.9,0.9,0.9s0.9-0.4,0.9-0.9S78.2-42.6,77.8-42.6z
		 M95.8-42.6c-0.5,0-0.9,0.4-0.9,0.9s0.4,0.9,0.9,0.9s0.9-0.4,0.9-0.9S96.3-42.6,95.8-42.6z M82-40.2c-0.5,0-0.9,0.4-0.9,0.9
		s0.4,0.9,0.9,0.9s0.9-0.4,0.9-0.9S82.5-40.2,82-40.2z M91.6-40.2c-0.5,0-0.9,0.4-0.9,0.9s0.4,0.9,0.9,0.9s0.9-0.4,0.9-0.9
		S92.1-40.2,91.6-40.2z M75.5-39.9c-0.5,0-0.9,0.4-0.9,0.9s0.4,0.9,0.9,0.9s0.9-0.4,0.9-0.9S76-39.9,75.5-39.9z M98.1-39.9
		c-0.5,0-0.9,0.4-0.9,0.9s0.4,0.9,0.9,0.9S99-38.5,99-39S98.6-39.9,98.1-39.9z M86.8-39.3c-0.5,0-0.9,0.4-0.9,0.9s0.4,0.9,0.9,0.9
		s0.9-0.4,0.9-0.9S87.3-39.3,86.8-39.3z M73.3-37.2c-0.5,0-0.9,0.4-0.9,0.9s0.4,0.9,0.9,0.9s0.9-0.4,0.9-0.9S73.7-37.2,73.3-37.2z
		 M100.3-37.2c-0.5,0-0.9,0.4-0.9,0.9s0.4,0.9,0.9,0.9s0.9-0.4,0.9-0.9S100.8-37.2,100.3-37.2z M80.8-36.9c-0.5,0-0.9,0.4-0.9,0.9
		s0.4,0.9,0.9,0.9s0.9-0.4,0.9-0.9S81.3-36.9,80.8-36.9z M92.8-36.9c-0.5,0-0.9,0.4-0.9,0.9s0.4,0.9,0.9,0.9s0.9-0.4,0.9-0.9
		S93.3-36.9,92.8-36.9z M86.8-35.8c-0.5,0-0.9,0.4-0.9,0.9s0.4,0.9,0.9,0.9s0.9-0.4,0.9-0.9S87.3-35.8,86.8-35.8z M79.6-33.6
		c-0.5,0-0.9,0.4-0.9,0.9s0.4,0.9,0.9,0.9s0.9-0.4,0.9-0.9C80.5-33.2,80.1-33.6,79.6-33.6z M94-33.6c-0.5,0-0.9,0.4-0.9,0.9
		s0.4,0.9,0.9,0.9s0.9-0.4,0.9-0.9C94.9-33.2,94.5-33.6,94-33.6z M86.8-32.3c-0.5,0-0.9,0.4-0.9,0.9s0.4,0.9,0.9,0.9
		s0.9-0.4,0.9-0.9S87.3-32.3,86.8-32.3z"/>
	<path class="st0" d="M149.3-72.7L143.5-56h-2.3v-0.7h-6v0.7v1.3h-4v0.7v4.7h4v2h6V-48h2.2l5.8,16.7h0.5h29l6-17.3v-6.9l-6-17.3
		L149.3-72.7L149.3-72.7z M150.2-71.4h27.6l5.6,16.2v6.4l-5.6,16.2h-27.6l-5.6-16.2v-6.5L150.2-71.4z M151.9-69.4
		c-0.4,0-0.7,0.3-0.7,0.7s0.3,0.7,0.7,0.7s0.7-0.3,0.7-0.7S152.3-69.4,151.9-69.4z M164-69.4c-0.4,0-0.7,0.3-0.7,0.7
		s0.3,0.7,0.7,0.7s0.7-0.3,0.7-0.7S164.4-69.4,164-69.4z M176-69.4c-0.4,0-0.7,0.3-0.7,0.7s0.3,0.7,0.7,0.7s0.7-0.3,0.7-0.7
		S176.4-69.4,176-69.4z M154-66l-2.6,7.4h0.9h24.1l-2.6-7.4H154z M155-64.7h18l1.6,4.7h-21.3L155-64.7z M149.9-63.4
		c-0.4,0-0.7,0.3-0.7,0.7c0,0.4,0.3,0.7,0.7,0.7s0.7-0.3,0.7-0.7C150.6-63.1,150.3-63.4,149.9-63.4z M178.1-63.4
		c-0.4,0-0.7,0.3-0.7,0.7c0,0.4,0.3,0.7,0.7,0.7s0.7-0.3,0.7-0.7C178.7-63.1,178.4-63.4,178.1-63.4z M146.6-56
		c-0.4,0-0.7,0.3-0.7,0.7s0.3,0.7,0.7,0.7s0.7-0.3,0.7-0.7C147.2-55.7,146.9-56,146.6-56z M149.3-56c-0.4,0-0.7,0.3-0.7,0.7
		s0.3,0.7,0.7,0.7s0.7-0.3,0.7-0.7C149.9-55.7,149.6-56,149.3-56z M151.9-56c-0.4,0-0.7,0.3-0.7,0.7s0.3,0.7,0.7,0.7
		s0.7-0.3,0.7-0.7C152.6-55.7,152.3-56,151.9-56z M154.6-56c-0.4,0-0.7,0.3-0.7,0.7s0.3,0.7,0.7,0.7s0.7-0.3,0.7-0.7
		C155.3-55.7,155-56,154.6-56z M157.3-56c-0.4,0-0.7,0.3-0.7,0.7s0.3,0.7,0.7,0.7s0.7-0.3,0.7-0.7C158-55.7,157.7-56,157.3-56z
		 M160-56c-0.4,0-0.7,0.3-0.7,0.7s0.3,0.7,0.7,0.7s0.7-0.3,0.7-0.7C160.6-55.7,160.3-56,160-56z M162.7-56c-0.4,0-0.7,0.3-0.7,0.7
		s0.3,0.7,0.7,0.7s0.7-0.3,0.7-0.7C163.3-55.7,163-56,162.7-56z M165.3-56c-0.4,0-0.7,0.3-0.7,0.7s0.3,0.7,0.7,0.7s0.7-0.3,0.7-0.7
		C166-55.7,165.7-56,165.3-56z M168-56c-0.4,0-0.7,0.3-0.7,0.7s0.3,0.7,0.7,0.7s0.7-0.3,0.7-0.7C168.7-55.7,168.4-56,168-56z
		 M170.7-56c-0.4,0-0.7,0.3-0.7,0.7s0.3,0.7,0.7,0.7s0.7-0.3,0.7-0.7C171.4-55.7,171.1-56,170.7-56z M173.4-56
		c-0.4,0-0.7,0.3-0.7,0.7s0.3,0.7,0.7,0.7s0.7-0.3,0.7-0.7C174-55.7,173.7-56,173.4-56z M176-56c-0.4,0-0.7,0.3-0.7,0.7
		s0.3,0.7,0.7,0.7s0.7-0.3,0.7-0.7C176.7-55.7,176.4-56,176-56z M178.7-56c-0.4,0-0.7,0.3-0.7,0.7s0.3,0.7,0.7,0.7s0.7-0.3,0.7-0.7
		C179.4-55.7,179.1-56,178.7-56z M181.4-56c-0.4,0-0.7,0.3-0.7,0.7s0.3,0.7,0.7,0.7s0.7-0.3,0.7-0.7C182.1-55.7,181.8-56,181.4-56z
		 M136.5-55.3h3.3v6.7h-3.3v-0.7v-5.4V-55.3z M141.2-54.7h2v5.4h-2V-54.7z M132.5-53.3h2.7v2.7h-2.7V-53.3z M146.6-49.3
		c-0.4,0-0.7,0.3-0.7,0.7s0.3,0.7,0.7,0.7s0.7-0.3,0.7-0.7S146.9-49.3,146.6-49.3z M149.3-49.3c-0.4,0-0.7,0.3-0.7,0.7
		s0.3,0.7,0.7,0.7s0.7-0.3,0.7-0.7S149.6-49.3,149.3-49.3z M151.9-49.3c-0.4,0-0.7,0.3-0.7,0.7s0.3,0.7,0.7,0.7s0.7-0.3,0.7-0.7
		S152.3-49.3,151.9-49.3z M154.6-49.3c-0.4,0-0.7,0.3-0.7,0.7s0.3,0.7,0.7,0.7s0.7-0.3,0.7-0.7S155-49.3,154.6-49.3z M157.3-49.3
		c-0.4,0-0.7,0.3-0.7,0.7s0.3,0.7,0.7,0.7s0.7-0.3,0.7-0.7S157.7-49.3,157.3-49.3z M160-49.3c-0.4,0-0.7,0.3-0.7,0.7
		s0.3,0.7,0.7,0.7s0.7-0.3,0.7-0.7S160.3-49.3,160-49.3z M162.7-49.3c-0.4,0-0.7,0.3-0.7,0.7s0.3,0.7,0.7,0.7s0.7-0.3,0.7-0.7
		S163-49.3,162.7-49.3z M165.3-49.3c-0.4,0-0.7,0.3-0.7,0.7s0.3,0.7,0.7,0.7s0.7-0.3,0.7-0.7S165.7-49.3,165.3-49.3z M168-49.3
		c-0.4,0-0.7,0.3-0.7,0.7s0.3,0.7,0.7,0.7s0.7-0.3,0.7-0.7S168.4-49.3,168-49.3z M170.7-49.3c-0.4,0-0.7,0.3-0.7,0.7
		s0.3,0.7,0.7,0.7s0.7-0.3,0.7-0.7S171.1-49.3,170.7-49.3z M173.4-49.3c-0.4,0-0.7,0.3-0.7,0.7s0.3,0.7,0.7,0.7s0.7-0.3,0.7-0.7
		S173.7-49.3,173.4-49.3z M176-49.3c-0.4,0-0.7,0.3-0.7,0.7s0.3,0.7,0.7,0.7s0.7-0.3,0.7-0.7S176.4-49.3,176-49.3z M178.7-49.3
		c-0.4,0-0.7,0.3-0.7,0.7s0.3,0.7,0.7,0.7s0.7-0.3,0.7-0.7S179.1-49.3,178.7-49.3z M181.4-49.3c-0.4,0-0.7,0.3-0.7,0.7
		s0.3,0.7,0.7,0.7s0.7-0.3,0.7-0.7S181.8-49.3,181.4-49.3z M151.5-45.3l2.6,7.4h0.5h19.5l2.6-7.4H151.5z M153.3-43.9h21.3l-1.6,4.7
		h-18L153.3-43.9z M149.9-41.9c-0.4,0-0.7,0.3-0.7,0.7s0.3,0.7,0.7,0.7s0.7-0.3,0.7-0.7C150.6-41.6,150.3-41.9,149.9-41.9z
		 M178.1-41.9c-0.4,0-0.7,0.3-0.7,0.7s0.3,0.7,0.7,0.7s0.7-0.3,0.7-0.7C178.7-41.6,178.4-41.9,178.1-41.9z M151.9-35.9
		c-0.4,0-0.7,0.3-0.7,0.7s0.3,0.7,0.7,0.7s0.7-0.3,0.7-0.7C152.6-35.6,152.3-35.9,151.9-35.9z M164-35.9c-0.4,0-0.7,0.3-0.7,0.7
		s0.3,0.7,0.7,0.7s0.7-0.3,0.7-0.7S164.4-35.9,164-35.9z M176-35.9c-0.4,0-0.7,0.3-0.7,0.7s0.3,0.7,0.7,0.7s0.7-0.3,0.7-0.7
		S176.4-35.9,176-35.9z"/>
</g>
</svg>
