<?xml version="1.0" encoding="utf-8"?>
<!-- Generator: Adobe Illustrator 26.2.1, SVG Export Plug-In . SVG Version: 6.00 Build 0)  -->
<svg version="1.1" id="Layer_1" xmlns="http://www.w3.org/2000/svg" xmlns:xlink="http://www.w3.org/1999/xlink" x="0px" y="0px"
	 viewBox="0 0 204 204" style="enable-background:new 0 0 204 204;" xml:space="preserve">
<style type="text/css">
	.st0{clip-path:url(#SVGID_00000179624449068836733640000010518464972909158315_);}
	.st1{fill:#2D2D2D;}
	.st2{fill:#FFFFFF;}
	.st3{fill:#0789B0;}
</style>
<g>
	<defs>
		<rect id="SVGID_1_" x="32" y="7.4" width="140" height="189.2"/>
	</defs>
	<clipPath id="SVGID_00000095297267385114144840000006459861067961297849_">
		<use xlink:href="#SVGID_1_"  style="overflow:visible;"/>
	</clipPath>
	<g style="clip-path:url(#SVGID_00000095297267385114144840000006459861067961297849_);">
		<path class="st1" d="M100.3,143.1c37.4,0,67.8-30.4,67.8-67.8S137.8,7.4,100.3,7.4c-37.4,0-67.8,30.4-67.8,67.8
			S62.9,143.1,100.3,143.1z"/>
		<path class="st2" d="M136.9,65.5l1.8,4.2l-1.5-4.4l1.3,2.3l-1.1-3.4l1.1,2.1l-0.9-2.9l-3-6.3l-2,0.4l1.7-0.6l-1.7,0.3l1.3-0.4
			l-1.4,0.2l1-0.3l-1.1,0.1l-1-3.4l-1.3-1.2l-1.3,3.5l0.4,9.6l-1.7,1.5L127,77.2l0.8-6.4l-0.1,4.7l0.6-4.7l0,3.9l0.6-3.9l0,3.3
			l0.8-5.9l2.3,0.3l0.7,2.3l-0.6-3.5l0.8,2.6l-0.7-3.3l0.7,2.3l-0.5-3.3l2.5,0.9l1,2.2l-0.6-1.8l0.9,2l-0.7-1.9l1.1,2.4l-1-2.8
			l1-0.4L136.9,65.5z"/>
		<path class="st2" d="M129.9,52l-2.3,1.2l1.9-0.8l-1.6,0.9l1.5-0.6l-1.2,0.7l1.1-0.4l-0.8,2.3L129.9,52z"/>
		<path class="st2" d="M102.5,53.6l7.4,4.2l-7.6-4.6l7.3,4.1l-7.7-4.7l7.5,4.3l-7.8-4.7l7.6,4.3l-8-4.7l8,4.4l-8.3-4.7l8.3,4.4
			l-8.5-4.8l11,5.8l-0.2,3.5l0.4-3l-0.4,3.8l0.6-3.5l-0.5,4.5l1.1-5.6l-12.4-6.8l-5.6,0.6l-6.4-3.3l-12.2,4.3l-2.4,2.4L68,56.1
			c-2.3,2.2-9.4,9-9.4,9l6.4-6L61.1,63l5.6-5.3l-3.8,3.9l5.3-5.2l2.2-0.5l1.4,0.5l-1.3,1.8l1.3-1.5l-1.5,2.1l1.4-1.8l-1.5,2.3l3.8-5
			l2.3-2.1L75,53.6l1.7-1.5l-1.2,1.3l1.3-1.1l-0.9,1l1.3-1.2l8.8-3.3l-1.6,0.9l1.7-0.7l-1.8,1l1.6-0.8L84,50.4l2.1-1l-2.6,1.4l4-1.9
			l2.2,0.1l2.3,1.3l-2.2-1.6l2.8,1.5l-2.8-1.7l3.5,1.8l-3.6-2.1l5.1,2.5l4.1-0.6l-2,0.4l1.6-0.2l-2.1,0.5l1.6-0.2l-2.1,0.6l3.5-0.6
			l0.4,0.8L98.4,52l0.9-0.2l-1.1,0.6l1-0.3l-1.2,0.8l1.1-0.4L98,53.3l1-0.6l-1,1.9L102.5,53.6z"/>
		<path class="st2" d="M118.6,52.1l-2.4-3.3l1.8,3.1l-1.6-2.4l1.4,2.5l-1.3-1.8l1.1,1.9l-1-1.3l0.8,1.5l-4,3.7L118.6,52.1z"/>
		<path class="st2" d="M87.3,38.7L77.5,47l2.5-1.6l-1,1.1l1.8-1.5l-1.5,1.5l2.5-1.9l1.2-0.5l2.1,0.6l0.9,1.7l-0.5-1.7l1.1,2
			l-0.5-1.5l0.9,1.8l-0.3-1.4l1,2l-0.6-1.8l1.5,2.7l-0.8-2H89l3.8,4.7l2.3-0.1l2.9,3L96,50.4l0.9,1.1l-1-1.6l1.5,1.9l-1.7-2.5
			l-2.9-0.6l-3.7-5.5l1.7,1.9l-1.8-2.7l1.8,2.2L89,41.8l1.3,1.3L88,40.2l0.9,0.6L88,40l1.2,1l-1.3-1.3l1.8,1.5L87.3,38.7z"/>
		<path class="st3" d="M159.9,75.2l8,5.8c0.2-1.7,0.3-3.5,0.3-5.2c0-9-1.8-17.8-5.2-26.1c-3.4-8.3-8.4-15.8-14.8-22.1
			c-6.3-6.3-13.8-11.4-22.1-14.8c-8.3-3.4-17.1-5.2-26.1-5.2c-8.9,0-17.8,1.8-26.1,5.2c-8.3,3.4-15.8,8.4-22.1,14.8
			C45.6,34,40.6,41.6,37.2,49.8C33.8,58.1,32,67,32,75.9c0,0.5,0,1.1,0,1.6l10.8-5.3l7-8.3l12.1-5.3c3.1-3.1,7.1-7.2,11.2-11
			c1.3-1.1,2.7-1.9,4.3-2.5c3.2-1,7.9-2.9,9.9-5.6h2.8l10.6-8.9l3.6,3.7l1.5,0.3l5,8.4l3,0.9l6.2,8.4l2.5-2.4l5,3l3-1.7l2.9,2.1
			l4.9,10l2.5-0.4L148,73L159.9,75.2z"/>
		<path class="st2" d="M130.6,191.2l13.9,1.3l-13.9,1.3V191.2z"/>
		<path class="st2" d="M69.3,193.9l-13.9-1.3l13.9-1.3V193.9z"/>
		<path class="st3" d="M67,168.4c0.3,0.6,0.3,1.3,0.2,1.9c-0.1,0.7-0.5,1.3-1,1.8c-0.3,0.3-0.7,0.5-1.1,0.7c0.3,0.1,0.5,0.2,0.7,0.4
			c0.2,0.2,0.4,0.4,0.5,0.7c0.2,0.6,0.3,1.2,0.1,1.8c-0.2,0.7-0.5,1.4-1,2c-0.3,0.4-0.7,0.7-1.1,1c-0.5,0.3-1,0.5-1.5,0.6
			c-0.6,0.1-1.2,0.2-1.8,0.2h-5.6l2.6-12.4h6C65.5,167.1,66.5,167.6,67,168.4z M59,174.1l-0.7,3.3h3.1c0.4,0,0.9-0.1,1.3-0.2
			c0.3-0.1,0.6-0.4,0.8-0.6c0.2-0.3,0.3-0.6,0.4-0.9c0.1-0.2,0.1-0.5,0-0.8c-0.1-0.2-0.3-0.4-0.5-0.6c-0.4-0.2-0.8-0.2-1.2-0.2H59z
			 M60,169.3l-0.6,2.7h3.1c0.5,0,1-0.1,1.4-0.3c0.2-0.1,0.4-0.3,0.5-0.5c0.1-0.2,0.2-0.4,0.2-0.6c0.1-0.6,0-1-0.4-1.2
			c-0.5-0.1-1-0.2-1.5-0.2L60,169.3z"/>
		<path class="st3" d="M70,179.6h-2.4l2.6-12.4h2.4L70,179.6z"/>
		<path class="st3" d="M76.7,170.3l-1.2,5.6c-0.1,0.4-0.1,0.8-0.1,1.2c0.1,0.5,0.5,0.7,1.2,0.7c0.4,0,0.7-0.1,1.1-0.2
			c0.3-0.2,0.6-0.4,0.8-0.8c0.3-0.4,0.4-0.9,0.5-1.4l1.1-5h2.4l-1.9,9.2h-2.4l0.3-1.3l-0.2,0.3c-0.1,0.1-0.2,0.3-0.4,0.4
			c-0.4,0.3-0.8,0.5-1.2,0.7c-0.4,0.1-0.8,0.2-1.3,0.2c-1.4,0-2.2-0.5-2.4-1.5c-0.1-0.8-0.1-1.6,0.1-2.4l1.2-5.5L76.7,170.3z"/>
		<path class="st3" d="M91.8,171.9c0.3,0.6,0.4,1.3,0.3,1.9c-0.1,0.6-0.2,1.2-0.3,1.8h-6.3c-0.2,0.9,0,1.6,0.5,1.9
			c0.3,0.2,0.7,0.4,1.1,0.3c0.5,0,0.9-0.1,1.3-0.4c0.2-0.2,0.4-0.4,0.6-0.6h2.5c-0.3,0.7-0.7,1.2-1.2,1.7c-1,0.9-2.3,1.4-3.6,1.3
			c-0.5,0-1.1-0.1-1.6-0.3c-0.5-0.2-0.9-0.5-1.3-0.9c-0.7-0.8-0.9-2-0.6-3.7c0.2-1.4,0.9-2.7,2-3.7c0.9-0.8,2.2-1.3,3.4-1.3
			c0.7,0,1.4,0.1,2,0.4C91.1,170.8,91.5,171.3,91.8,171.9L91.8,171.9z M85.9,174h3.7c0.1-0.2,0.1-0.5,0-0.8c0-0.2-0.1-0.5-0.3-0.7
			c-0.1-0.2-0.3-0.3-0.5-0.4c-0.2-0.1-0.4-0.1-0.7-0.1c-0.5,0-1,0.2-1.4,0.5C86.3,173,86,173.5,85.9,174L85.9,174z"/>
		<path class="st3" d="M109.3,168.3c0.2,0.3,0.3,0.7,0.4,1c0.1,0.4,0.1,0.9,0,1.3c-0.2,0.6-0.4,1.2-0.8,1.7c-0.4,0.6-1,1-1.7,1.2
			c0.2,0.1,0.4,0.2,0.6,0.4c0.2,0.2,0.3,0.4,0.4,0.6c0.1,0.6,0.1,1.3-0.1,1.9l-0.2,0.8c-0.1,0.4-0.2,0.8-0.2,1.2
			c0,0.1,0,0.3,0.1,0.4c0.1,0.1,0.1,0.2,0.3,0.3l-0.1,0.3h-2.9c0-0.3,0-0.5,0-0.7c0-0.4,0-0.7,0.1-1.1l0.2-1.2
			c0.2-0.8,0.1-1.3-0.1-1.6c-0.2-0.3-0.7-0.4-1.5-0.4h-2.7l-1,4.9h-2.5l2.6-12.4h6.1c0.7,0,1.3,0.1,1.9,0.3
			C108.7,167.6,109.1,167.9,109.3,168.3z M102.3,169.3l-0.7,3.3h3c0.5,0,0.9-0.1,1.4-0.2c0.3-0.1,0.5-0.3,0.7-0.6
			c0.2-0.2,0.3-0.5,0.4-0.8c0.2-0.8,0-1.3-0.4-1.5c-0.4-0.2-0.8-0.2-1.2-0.2H102.3z"/>
		<path class="st3" d="M111.8,170.3h2.4l-1.9,9.2h-2.4L111.8,170.3z M114.5,169.3h-2.4l0.5-2.2h2.4L114.5,169.3z"/>
		<path class="st3" d="M122.3,171.5l0.9-4.4h2.4l-2.6,12.4h-2.3l0.3-1.3c-0.4,0.5-0.9,0.9-1.4,1.2c-0.5,0.3-1.1,0.4-1.7,0.4
			c-0.5,0-1-0.1-1.4-0.3c-0.4-0.2-0.8-0.6-1-1c-0.6-1-0.7-2.2-0.4-3.3c0.2-1.4,0.9-2.7,1.9-3.7c0.4-0.4,0.9-0.8,1.5-1
			c0.5-0.2,1.1-0.4,1.7-0.3c0.5,0,1,0.1,1.4,0.4C121.8,170.7,122.1,171.1,122.3,171.5L122.3,171.5z M121.6,175.1
			c0.2-1.1,0.1-1.9-0.3-2.4c-0.2-0.2-0.3-0.3-0.5-0.3c-0.2-0.1-0.4-0.1-0.6-0.1c-0.3,0-0.7,0.1-1,0.2c-0.3,0.1-0.6,0.3-0.8,0.6
			c-0.5,0.6-0.8,1.3-0.9,2c-0.2,0.7-0.2,1.4,0.1,2c0.1,0.3,0.3,0.5,0.6,0.6c0.2,0.1,0.5,0.2,0.8,0.2c0.3,0,0.7-0.1,0.9-0.2
			c0.3-0.1,0.6-0.3,0.8-0.6C121.1,176.5,121.4,175.8,121.6,175.1L121.6,175.1z"/>
		<path class="st3" d="M131.7,170.3c0.3,0.1,0.5,0.3,0.7,0.5c0.2,0.2,0.3,0.5,0.4,0.8l0.3-1.3h2.3l-1.9,8.7c-0.2,1-0.5,1.9-1.2,2.7
			c-0.9,1-2.3,1.6-4.3,1.6c-1,0.1-1.9-0.2-2.7-0.7c-0.3-0.2-0.6-0.5-0.7-0.9c-0.1-0.4-0.2-0.8-0.1-1.2h2.6c0,0.2,0.1,0.4,0.2,0.6
			c0.4,0.3,0.8,0.4,1.2,0.3c0.4,0,0.7,0,1.1-0.2c0.3-0.2,0.6-0.4,0.9-0.7c0.3-0.6,0.6-1.2,0.7-1.9l0.1-0.6c-0.3,0.3-0.6,0.6-0.9,0.9
			c-0.6,0.4-1.3,0.6-2,0.6c-0.5,0-1-0.1-1.5-0.3s-0.8-0.6-1.1-1c-0.5-0.8-0.6-2-0.3-3.4c0.2-1.3,0.8-2.5,1.7-3.5
			c0.4-0.4,0.9-0.8,1.4-1c0.6-0.2,1.1-0.4,1.7-0.4C130.9,170.1,131.3,170.2,131.7,170.3z M132.1,174.9c0.2-0.7,0.2-1.4-0.1-2
			c-0.1-0.2-0.3-0.4-0.6-0.5c-0.2-0.1-0.5-0.2-0.8-0.2c-0.4,0-0.8,0.1-1.2,0.3c-0.4,0.2-0.6,0.5-0.8,0.9c-0.3,0.5-0.5,1-0.6,1.6
			c-0.1,0.5-0.1,1,0,1.4c0.1,0.4,0.2,0.7,0.5,0.9c0.3,0.2,0.6,0.3,1,0.3c0.6,0,1.1-0.2,1.6-0.6C131.7,176.4,132,175.7,132.1,174.9
			L132.1,174.9z"/>
		<path class="st3" d="M144.6,171.9c0.3,0.6,0.4,1.3,0.3,1.9c-0.1,0.6-0.2,1.2-0.3,1.8h-6.3c-0.2,0.9,0,1.6,0.5,1.9
			c0.3,0.2,0.7,0.4,1.2,0.3c0.5,0,0.9-0.1,1.3-0.4c0.2-0.2,0.4-0.4,0.6-0.6h2.5c-0.3,0.7-0.7,1.2-1.2,1.7c-1,0.9-2.3,1.4-3.6,1.3
			c-0.5,0-1.1-0.1-1.6-0.3s-0.9-0.5-1.3-0.9c-0.7-0.8-0.9-2-0.6-3.7c0.2-1.4,0.9-2.7,2-3.7c0.9-0.8,2.2-1.3,3.4-1.3
			c0.7,0,1.4,0.1,2,0.4C143.9,170.8,144.4,171.3,144.6,171.9L144.6,171.9z M138.7,174h3.7c0.1-0.2,0.1-0.5,0-0.8
			c0-0.2-0.1-0.5-0.3-0.7c-0.1-0.2-0.3-0.3-0.5-0.4c-0.2-0.1-0.4-0.1-0.7-0.1c-0.5,0-1,0.2-1.4,0.5C139.2,173,138.9,173.5,138.7,174
			L138.7,174z"/>
		<path class="st2" d="M75,188.6c0.4-0.4,0.9-0.7,1.4-0.8c0.5-0.2,1.1-0.3,1.6-0.2c0.5,0,1.1,0.2,1.6,0.4c0.5,0.2,0.9,0.6,1.3,1
			c0.3,0.5,0.5,1,0.6,1.6h-1.8c-0.1-0.3-0.2-0.7-0.4-0.9c-0.2-0.2-0.4-0.4-0.6-0.5c-0.2-0.1-0.5-0.1-0.8-0.1c-0.3,0-0.6,0.1-0.9,0.2
			c-0.3,0.1-0.5,0.3-0.7,0.6c-0.4,0.7-0.6,1.5-0.6,2.2c-0.1,0.8,0.1,1.5,0.6,2.2c0.2,0.2,0.4,0.4,0.7,0.5c0.3,0.1,0.5,0.2,0.8,0.2
			c0.3,0,0.5,0,0.8-0.1c0.2-0.1,0.5-0.3,0.6-0.5c0.2-0.3,0.4-0.6,0.4-1h1.8c-0.1,0.9-0.5,1.7-1.2,2.3c-0.7,0.6-1.5,0.9-2.4,0.9
			c-0.5,0-1.1-0.1-1.6-0.3c-0.5-0.2-0.9-0.5-1.3-0.9c-0.7-1-1.1-2.2-1.1-3.4C73.8,190.8,74.2,189.6,75,188.6L75,188.6z"/>
		<path class="st2" d="M87.8,187.7h2l-2.9,5.4v3.2h-1.8v-3.2l-3-5.4h2.1l1.8,3.8L87.8,187.7z"/>
		<path class="st2" d="M91.7,188.6c0.3-0.4,0.8-0.6,1.2-0.8c0.5-0.2,0.9-0.3,1.4-0.3c0.6,0,1.2,0.1,1.8,0.3c0.6,0.3,1,0.6,1.4,1.1
			c0.3,0.5,0.5,1,0.6,1.6h-1.8c-0.1-0.3-0.2-0.7-0.4-0.9c-0.2-0.2-0.4-0.4-0.7-0.4s-0.5-0.1-0.8-0.1c-0.3,0-0.6,0.1-0.8,0.2
			c-0.2,0.1-0.5,0.3-0.6,0.6c-0.4,0.7-0.6,1.5-0.6,2.2c-0.1,0.8,0.1,1.5,0.6,2.2c0.2,0.2,0.4,0.4,0.7,0.5c0.3,0.1,0.5,0.2,0.8,0.2
			c0.3,0,0.5,0,0.8-0.1c0.2-0.1,0.5-0.3,0.6-0.5c0.2-0.3,0.4-0.6,0.4-1H98c-0.1,0.9-0.5,1.7-1.2,2.3c-0.7,0.6-1.5,0.9-2.4,0.9
			c-0.5,0-1.1-0.1-1.6-0.3c-0.5-0.2-0.9-0.5-1.3-0.9c-0.7-0.9-1.1-2.1-1.1-3.3c0-0.6,0.1-1.3,0.3-1.9
			C90.9,189.6,91.2,189.1,91.7,188.6L91.7,188.6z"/>
		<path class="st2" d="M99.5,187.7h1.8v7.1h4.3v1.6h-6.1V187.7z"/>
		<path class="st2" d="M108.5,196.3h-1.8v-8.6h1.8V196.3z"/>
		<path class="st2" d="M110.1,187.7h1.9l3.4,6v-6h1.7v8.6h-1.8l-3.5-6.1v6.1h-1.7V187.7z"/>
		<path class="st2" d="M124.6,190.4c-0.1-0.3-0.2-0.5-0.3-0.7c-0.2-0.2-0.4-0.4-0.7-0.5c-0.3-0.1-0.7-0.2-1-0.2
			c-0.3,0-0.7,0.1-1,0.2c-0.3,0.1-0.6,0.3-0.8,0.6c-0.5,0.7-0.7,1.5-0.7,2.4c0,0.4,0,0.8,0.1,1.2c0.1,0.4,0.3,0.7,0.6,1
			c0.4,0.4,1,0.7,1.6,0.7c0.5,0,1.1-0.2,1.5-0.5c0.4-0.4,0.6-0.8,0.7-1.4h-2v-1.4h3.6v4.6h-1.2l-0.2-1.1c-0.3,0.3-0.6,0.6-0.9,0.9
			c-0.5,0.3-1.1,0.5-1.8,0.4c-0.5,0-1.1-0.1-1.5-0.3c-0.5-0.2-0.9-0.5-1.3-0.9c-0.8-0.9-1.2-2.1-1.2-3.3c-0.1-1.2,0.4-2.4,1.2-3.4
			c0.4-0.4,0.9-0.7,1.4-1c0.5-0.2,1.1-0.3,1.7-0.3c1,0,1.9,0.2,2.7,0.8c0.3,0.3,0.6,0.6,0.8,0.9c0.2,0.4,0.3,0.7,0.4,1.2
			L124.6,190.4z"/>
		<path class="st2" d="M68.1,138l-0.5-0.8l0.5-0.8h1l0.5,0.8l-0.5,0.8H68.1z"/>
		<path class="st2" d="M65.7,118l1.8,13.3l-3.2-13.1L65.7,118z"/>
		<path class="st2" d="M55,123.4l9.3,9.7L54,124.4L55,123.4z"/>
		<path class="st2" d="M49.5,134.1l13.2,2.4l-13.4-1L49.5,134.1z"/>
		<path class="st2" d="M51.2,145.9l12.1-5.8l-11.5,7L51.2,145.9z"/>
		<path class="st2" d="M59.7,154.5l6.4-11.9l-5.1,12.4L59.7,154.5z"/>
		<path class="st2" d="M71.5,156.4l-1.8-13.3l3.2,13.1L71.5,156.4z"/>
		<path class="st2" d="M82.2,151.1l-9.3-9.7l10.2,8.7L82.2,151.1z"/>
		<path class="st2" d="M87.8,140.4L74.5,138l13.4,1L87.8,140.4z"/>
		<path class="st2" d="M86,128.6l-12.1,5.8l11.5-7L86,128.6z"/>
		<path class="st2" d="M68.6,134c-0.6,0-1.3,0.2-1.8,0.6c-0.5,0.4-1,0.9-1.2,1.5c-0.2,0.6-0.3,1.3-0.2,1.9c0.1,0.6,0.4,1.2,0.9,1.7
			c0.5,0.5,1,0.8,1.7,0.9c0.6,0.1,1.3,0.1,1.9-0.2c0.6-0.2,1.1-0.7,1.5-1.2c0.4-0.5,0.6-1.2,0.6-1.8c0-0.9-0.3-1.7-1-2.3
			C70.3,134.3,69.5,134,68.6,134L68.6,134z M68.6,139.2c-0.4,0-0.8-0.1-1.1-0.3c-0.3-0.2-0.6-0.5-0.7-0.9c-0.2-0.4-0.2-0.8-0.1-1.1
			c0.1-0.4,0.3-0.7,0.5-1c0.3-0.3,0.6-0.5,1-0.5c0.4-0.1,0.8,0,1.1,0.1c0.4,0.2,0.7,0.4,0.9,0.7c0.2,0.3,0.3,0.7,0.3,1.1
			c0,0.5-0.2,1-0.6,1.4S69.1,139.2,68.6,139.2L68.6,139.2z"/>
		<path class="st2" d="M70.7,141.6l0.1-0.1c0.1-0.1,0.2-0.1,0.4-0.3l0.3-0.2l0.3-0.3c0.2-0.2,0.4-0.5,0.6-0.7c0.2-0.3,0.4-0.6,0.5-1
			c0.2-0.4,0.3-0.8,0.3-1.2c0.1-0.7,0-1.3-0.1-2s-0.5-1.2-0.9-1.8c-0.3-0.3-0.6-0.6-1-0.9c-0.6-0.5-1.4-0.7-2.2-0.8
			c-0.3,0-0.6,0-1,0l-0.4,0l-0.3,0.1c-0.2,0-0.4,0.1-0.5,0.1l-0.2,0l0.2-0.1c0.1-0.1,0.3-0.1,0.4-0.2l0.3-0.1l0.4-0.1
			c0.1,0,0.3,0,0.5-0.1c0.2,0,0.4,0,0.5,0c0.2,0,0.4,0,0.6,0.1c0.6,0.1,1.3,0.3,1.8,0.7c0.4,0.3,0.8,0.6,1.1,0.9
			c0.3,0.4,0.6,0.8,0.8,1.2c0.2,0.5,0.3,1,0.4,1.5c0.1,0.5,0,1-0.1,1.4c-0.1,0.4-0.2,0.9-0.4,1.3c-0.2,0.4-0.4,0.7-0.7,1
			c-0.1,0.1-0.2,0.3-0.4,0.4c-0.1,0.1-0.2,0.2-0.4,0.3l-0.3,0.2l-0.3,0.2c-0.1,0.1-0.3,0.1-0.4,0.2L70.7,141.6z"/>
		<path class="st2" d="M65.8,134.1c0,0-0.1,0.1-0.3,0.3c-0.2,0.3-0.4,0.6-0.6,1c-0.2,0.5-0.3,1-0.3,1.5c0,0.1,0,0.1,0,0.2v0.1v0.1
			c0,0.2,0,0.3,0,0.4c0,0.1,0.1,0.3,0.1,0.4c0,0.1,0.1,0.3,0.1,0.4c0.1,0.3,0.2,0.5,0.4,0.8c0.1,0.1,0.2,0.2,0.3,0.4
			c0.1,0.1,0.2,0.2,0.3,0.3c0.2,0.2,0.4,0.4,0.6,0.5c0.2,0.1,0.4,0.3,0.6,0.4l0.3,0.1l0.3,0.1c0.2,0.1,0.3,0.1,0.5,0.1l0.4,0.1
			c0,0-0.2,0-0.4,0c-0.1,0-0.3,0-0.5,0l-0.3-0.1c-0.1,0-0.2-0.1-0.3-0.1c-0.3-0.1-0.5-0.2-0.7-0.3c-0.3-0.1-0.5-0.3-0.7-0.5
			c-0.2-0.2-0.5-0.5-0.6-0.7c-0.2-0.3-0.3-0.6-0.5-0.9c-0.1-0.2-0.1-0.3-0.1-0.5c0-0.2-0.1-0.3-0.1-0.5c0-0.2,0-0.3,0-0.5v-0.1
			c0-0.1,0-0.1,0-0.1c0,0,0-0.2,0-0.2c0.1-0.6,0.2-1.1,0.5-1.6c0.2-0.3,0.4-0.7,0.7-0.9l0.3-0.2L65.8,134.1z"/>
		<path class="st2" d="M131.2,137.8l0.2-0.9l-0.7-0.6l-0.9,0.3l-0.2,0.9l0.7,0.6L131.2,137.8z"/>
		<path class="st2" d="M127.9,118l1.6,13.4l-3-13.1L127.9,118z"/>
		<path class="st2" d="M139.7,120.1l-6.5,11.8l5.3-12.4L139.7,120.1z"/>
		<path class="st2" d="M148,128.8l-12.2,5.7l11.5-6.9L148,128.8z"/>
		<path class="st2" d="M149.6,140.7l-13.2-2.6l13.4,1.2L149.6,140.7z"/>
		<path class="st2" d="M144,151.2l-9.2-9.8l10.1,8.9L144,151.2z"/>
		<path class="st2" d="M133.2,156.5l-1.6-13.4l3,13.1L133.2,156.5z"/>
		<path class="st2" d="M121.4,154.4l6.5-11.8l-5.3,12.4L121.4,154.4z"/>
		<path class="st2" d="M127.5,138.4c0.2,0.6,0.6,1.1,1.2,1.5c0.5,0.4,1.2,0.6,1.8,0.6c0.6,0,1.3-0.1,1.8-0.5c0.5-0.3,1-0.8,1.3-1.4
			c0.3-0.6,0.4-1.2,0.3-1.9c-0.1-0.6-0.4-1.2-0.8-1.7c-0.4-0.5-1-0.8-1.6-1c-0.6-0.1-1.3-0.1-1.9,0.1c-0.4,0.2-0.8,0.4-1.1,0.7
			c-0.3,0.3-0.6,0.6-0.7,1c-0.2,0.4-0.3,0.8-0.3,1.2C127.2,137.6,127.3,138,127.5,138.4L127.5,138.4z M128.7,137.9
			c-0.1-0.4-0.2-0.8-0.1-1.1c0.1-0.4,0.3-0.7,0.6-1c0.3-0.3,0.6-0.4,1-0.5c0.4-0.1,0.8,0,1.1,0.1c0.4,0.2,0.7,0.4,0.9,0.8
			c0.2,0.3,0.3,0.7,0.3,1.1c0,0.4-0.1,0.8-0.4,1.1c-0.2,0.3-0.5,0.6-0.9,0.7c-0.5,0.2-1,0.2-1.5-0.1
			C129.2,138.8,128.9,138.4,128.7,137.9L128.7,137.9z"/>
		<path class="st2" d="M130.1,142.1H130c-0.2,0-0.3,0-0.5,0l-0.4-0.1l-0.4-0.1c-0.1,0-0.3-0.1-0.4-0.2c-0.2-0.1-0.3-0.2-0.5-0.2
			c-0.4-0.2-0.7-0.4-1-0.7c-0.3-0.3-0.6-0.7-0.8-1c-0.3-0.4-0.5-0.9-0.6-1.3c-0.2-1-0.2-2,0.2-2.9c0.2-0.5,0.4-0.9,0.7-1.3
			c0.3-0.4,0.6-0.7,1-0.9c0.2-0.1,0.3-0.2,0.5-0.3c0.2-0.1,0.4-0.2,0.5-0.3c0.2-0.1,0.3-0.1,0.5-0.2c0.2,0,0.3-0.1,0.5-0.1l0.4-0.1
			h0.4c0.2,0,0.3,0,0.5,0h0.2h-0.2c-0.2,0-0.3,0-0.5,0.1l-0.3,0.1l-0.4,0.1c-0.3,0.1-0.6,0.2-0.9,0.4c-0.3,0.2-0.6,0.4-0.9,0.6
			c-0.3,0.3-0.6,0.6-0.8,0.9c-0.2,0.4-0.4,0.7-0.6,1.2c-0.1,0.4-0.2,0.9-0.3,1.3c0,0.6,0.1,1.3,0.3,1.9c0.2,0.6,0.6,1.2,1,1.6
			c0.3,0.3,0.5,0.5,0.8,0.7c0.3,0.2,0.5,0.3,0.8,0.5l0.4,0.2l0.3,0.1c0.2,0.1,0.4,0.1,0.5,0.1L130.1,142.1z"/>
		<path class="st2" d="M132.1,133.3l0.1,0c0.1,0,0.2,0.1,0.3,0.1c0.4,0.1,0.7,0.3,1,0.6c0.4,0.4,0.8,0.8,1,1.3
			c0,0.1,0.1,0.1,0.1,0.2l0.1,0.1l0,0.1c0.1,0.3,0.2,0.6,0.2,1c0,0.2,0,0.3,0,0.5c0,0.3,0,0.7-0.1,1c-0.1,0.3-0.2,0.6-0.4,0.9
			c-0.1,0.3-0.3,0.5-0.5,0.7c-0.2,0.2-0.4,0.4-0.6,0.6c-0.1,0.1-0.2,0.1-0.3,0.2l-0.3,0.2c-0.2,0.1-0.3,0.2-0.5,0.2l-0.4,0.1
			l0.4-0.2c0.1-0.1,0.3-0.2,0.4-0.3l0.2-0.2l0.2-0.2c0.4-0.4,0.7-0.8,0.9-1.3c0.1-0.1,0.1-0.3,0.2-0.4c0-0.1,0.1-0.3,0.1-0.4
			c0.1-0.3,0.1-0.6,0.1-0.9c0-0.2,0-0.3,0-0.4c0-0.1,0-0.3-0.1-0.4c0-0.1-0.1-0.3-0.1-0.4v-0.1l0-0.1c0-0.1,0-0.1-0.1-0.2
			c-0.4-0.8-1-1.5-1.7-2C132.2,133.4,132.1,133.3,132.1,133.3z"/>
		<path class="st2" d="M118.2,121.2l9.9,11.7c0,0-1.6,1-2,2.1l-10.6-11.8L118.2,121.2z"/>
		<path class="st2" d="M57.8,100.2l1.3-0.7l-0.9,1.3L57.8,100.2z"/>
		<path class="st2" d="M58.5,101.3l1.4-0.8l-1,1.3L58.5,101.3z"/>
		<path class="st2" d="M59.2,102.3l1.5-0.8l-1,1.4L59.2,102.3z"/>
		<path class="st2" d="M97.2,101.2c-1.2,0-2.5-0.1-3.7-0.2l-0.4-0.1v-0.4c-0.1-6.5-3.3-7.1-3.4-7.1l-1.3-0.2l1.1-0.7
			c4.3-2.8,9-3.2,11.6-3.1c-0.2-0.1-0.3-0.2-0.5-0.2c-1.5-0.6-3.1-0.7-4.7-0.3c-5.9,1.5-8.9,0.7-9.1,0.6l0.3-1c0,0,2.9,0.8,8.5-0.7
			c1.8-0.5,3.6-0.4,5.3,0.3c0.8,0.3,1.6,0.8,2.3,1.5l1.1,1.1l-1.5-0.2c-0.1,0-6.3-0.9-11.8,2.3c1.2,0.7,3,2.5,3.2,7.3
			c1.4,0.1,6.2,0.5,10.1-0.8l0.3,1C102.1,100.9,99.7,101.2,97.2,101.2z"/>
		<path class="st2" d="M106.8,94c-0.4,1.2-0.9,2.4-1.3,3.6l-0.7,1.8l-0.7,1.8c-0.5,1.2-0.9,2.4-1.4,3.6c-0.5,1.2-1,2.4-1.5,3.5
			l-0.2-0.6c0.3,0.2,0.6,0.4,0.9,0.5c0.3,0.2,0.6,0.3,1,0.5c0.3,0.2,0.6,0.3,1,0.4c0.3,0.1,0.7,0.3,1,0.4c0.3,0.1,0.7,0.3,1,0.4
			l0.5,0.2c0.2,0.1,0.3,0.1,0.5,0.2c0.3,0.1,0.7,0.2,1,0.3c0.3,0.1,0.7,0.1,1,0.2l-0.5,0.3l4.4-8l2.2-4c0.2-0.3,0.4-0.7,0.5-1
			c0.2-0.3,0.3-0.7,0.5-1c1.2-2.7,1.3-5.8,0.3-8.5l0-0.1v0c0,0,0,0,0,0v-0.1l-0.1-0.3l-0.2-0.5c-0.1-0.4-0.3-0.7-0.4-1.1l-0.5-1
			c-0.2-0.3-0.3-0.7-0.5-1l-0.6-0.9c-0.1-0.2-0.2-0.3-0.3-0.5l-0.3-0.4l-0.7-0.9c-0.2-0.3-0.5-0.6-0.7-0.8c-0.2-0.3-0.5-0.6-0.8-0.8
			l-0.8-0.8l-0.4-0.4l-0.4-0.3l-0.9-0.7c-0.3-0.2-0.6-0.4-0.9-0.6c-0.3-0.2-0.6-0.4-0.9-0.6c-1.3-0.7-2.6-1.4-4-1.8
			c-0.4-0.1-0.7-0.2-1.1-0.3l-1.1-0.3c-0.7-0.2-1.5-0.3-2.2-0.4c-0.4-0.1-0.7-0.1-1.1-0.1l-1.1-0.1l-1.1,0h-0.6c-0.2,0-0.4,0-0.6,0
			l-1.1,0.1l-0.6,0.1c-0.2,0-0.4,0.1-0.6,0.1c-0.7,0.1-1.5,0.3-2.2,0.5c-1.4,0.4-2.8,0.9-4.2,1.5c-0.3,0.1-0.7,0.3-1,0.5L84,76.7
			l-0.3,0.1l-0.3,0.1L83.2,77c-0.8,0.3-1.6,0.4-2.5,0.3c-0.8-0.1-1.6-0.3-2.4-0.7c-0.7-0.4-1.4-0.9-1.9-1.5l0.8-0.7
			c0.4,0.5,1,1,1.6,1.3c0.6,0.3,1.3,0.5,2,0.6c0.7,0.1,1.4,0,2-0.2l0.2-0.1c0.1,0,0.2-0.1,0.3-0.1l0.2-0.1l0.3-0.1
			c0.3-0.2,0.7-0.3,1-0.5c1.4-0.6,2.9-1.2,4.3-1.6c0.7-0.2,1.5-0.4,2.3-0.5c0.2,0,0.4-0.1,0.6-0.1l0.6-0.1l1.2-0.1
			c0.2,0,0.4,0,0.6,0h0.6c0.4,0,0.8,0,1.2,0l1.2,0.1c0.4,0,0.8,0,1.2,0.1c0.8,0.1,1.5,0.2,2.3,0.4l1.2,0.3c0.4,0.1,0.7,0.2,1.1,0.4
			c1.5,0.5,2.9,1.1,4.2,1.9c0.3,0.2,0.7,0.4,1,0.6c0.3,0.2,0.7,0.4,1,0.7l0.9,0.7l0.5,0.4l0.4,0.4l0.8,0.8c0.3,0.3,0.5,0.6,0.8,0.9
			c0.3,0.3,0.5,0.6,0.8,0.9L114,82l0.4,0.5c0.1,0.2,0.2,0.3,0.3,0.5l0.6,1c0.2,0.3,0.4,0.7,0.6,1l0.5,1.1c0.2,0.4,0.3,0.7,0.4,1.1
			l0.2,0.5l0.1,0.3v0.1l0,0.1l0,0.1c1,3,0.9,6.3-0.4,9.3c-0.1,0.4-0.3,0.7-0.5,1.1c-0.2,0.3-0.4,0.7-0.6,1l-2.2,4l-4.4,8l-0.2,0.3
			l-0.3-0.1c-0.4-0.1-0.7-0.1-1.1-0.2c-0.4-0.1-0.7-0.2-1.1-0.3c-0.2,0-0.4-0.1-0.5-0.2c-0.2-0.1-0.4-0.1-0.5-0.2
			c-0.4-0.1-0.7-0.2-1-0.4c-0.3-0.1-0.7-0.3-1-0.4l-1-0.5c-0.3-0.2-0.7-0.3-1-0.5c-0.3-0.2-0.6-0.4-1-0.5l-0.4-0.2l0.2-0.4
			c0.5-1.2,1-2.4,1.5-3.5c0.5-1.2,1.1-2.3,1.6-3.5l0.8-1.7l0.8-1.7C105.6,96.3,106.2,95.1,106.8,94z"/>
		<path class="st2" d="M89.7,92.3l-5,2.9l0.5,0.9l5-2.9L89.7,92.3z"/>
		<path class="st2" d="M88,109.1c-3-2.2-5.4-7.7-5.5-8l1-0.4c0,0.1,2.4,5.5,5.1,7.6L88,109.1z"/>
		<path class="st2" d="M96.7,108.5c-1.1-3.4-3.6-6.1-4.9-7.3c-0.1-0.1-0.2-0.3-0.2-0.4c0-0.2,0-0.3,0.1-0.5c0.1-0.2,0.2-0.3,0.3-0.4
			c0.2-0.1,0.3-0.1,0.5-0.1l1.2,0.2l-0.1,1l-0.6-0.1c2.1,2,3.7,4.5,4.7,7.3L96.7,108.5z"/>
		<path class="st2" d="M97.2,129.9l-3.2-3l0-0.3c0.4-1.9,0.9-3.7,1.6-5.4c0.2-0.6,0.3-1.2,0.3-1.8c-0.1-0.6-0.3-1.2-0.6-1.8
			c-1.9-3.1-5.9-6.6-5.9-6.7l0.7-0.8c0.2,0.1,4.1,3.7,6.1,6.9c0.4,0.7,0.6,1.4,0.7,2.2c0.1,0.8,0,1.6-0.3,2.3
			c-0.6,1.6-1.1,3.3-1.5,4.9l2,1.8c1-1.3,4.1-4.9,6.9-5.3l0.2,1c-3,0.5-6.6,5.3-6.6,5.4L97.2,129.9z"/>
		<path class="st2" d="M98.6,113.2c-0.6-0.9-1.1-2-1.4-3.1l1-0.3c0.3,1,0.7,1.9,1.3,2.7L98.6,113.2z"/>
		<path class="st2" d="M108.4,149.7c-0.4,0-0.8,0-1.1-0.2c-0.4-0.2-0.7-0.4-0.9-0.8c-0.2-0.4-0.3-0.8-0.2-1.3
			c0.1-0.4,0.3-0.8,0.7-1.1c0.5-0.4,1.1-0.9,1.5-1.3c0.7-0.6,1.4-1.4,1.9-2.2c0.6-1,1.1-2.1,1.6-3.1c0.3-0.6,0.3-1.3,0.1-1.9
			c-0.6-1.8-1.7-4.2-1.7-4.2c-2.2-4.4-7.4-11-10.3-14.6c-0.8-0.9-1.3-2-1.5-3.2c-0.2-1.2-0.1-2.4,0.3-3.5l1.5-4.3l1,0.4l-1.6,4.3
			c-0.3,1-0.4,2-0.3,3c0.2,1,0.6,1.9,1.2,2.7c2.9,3.6,8.2,10.3,10.4,14.8c0.1,0.1,1.2,2.5,1.8,4.4c0.3,0.9,0.2,1.8-0.1,2.7
			c-0.5,1.1-1,2.2-1.6,3.2c-0.5,1-1.2,1.8-2.1,2.5c-0.4,0.4-1,0.9-1.5,1.3c-0.2,0.1-0.3,0.3-0.3,0.5c0,0.2,0,0.4,0.1,0.6
			c0.4,0.7,1.7,0.5,2.5,0.2c0.4-0.2,6.6-2.7,9.7-7.1c0.2-0.3,0.3-0.6,0.3-0.9c0-0.3-0.1-0.6-0.2-0.9c-0.6-1-1.3-2-2.1-2.9
			c-1.6-1.9-2.8-5.7-3-6.9l0-0.2c0-0.2-0.1-0.3-0.1-0.5c-1.1-5.6-4.5-10-6.4-12.2c-0.4-0.5-0.7-1-0.8-1.6c-0.1-0.6,0-1.2,0.2-1.8
			l1-2.4l1,0.4l-1,2.4c-0.2,0.4-0.2,0.8-0.1,1.2c0.1,0.4,0.3,0.8,0.5,1.1c2,2.2,5.5,6.8,6.6,12.6c0,0.1,0.1,0.3,0.1,0.5v0.2
			c0.2,1.2,1.4,4.8,2.8,6.4c0.8,1,1.5,2,2.2,3.1c0.3,0.4,0.4,1,0.4,1.5c0,0.5-0.2,1-0.5,1.4c-3.4,4.8-9.9,7.4-10.2,7.5H110
			C109.5,149.6,108.9,149.7,108.4,149.7L108.4,149.7z"/>
		<path class="st2" d="M92.9,131.2c-0.4,0-0.8-0.1-1.2-0.3c-0.2-0.1-0.5-0.3-0.6-0.6s-0.2-0.5-0.3-0.8c0-0.3,0-0.6,0.1-0.9
			c0.1-0.3,0.3-0.5,0.5-0.7l0.7-0.6l0.6,0.8l-0.7,0.6c-0.1,0.1-0.2,0.2-0.2,0.3c0,0.1-0.1,0.2-0.1,0.4c0,0.1,0,0.2,0.1,0.3
			c0.1,0.1,0.1,0.2,0.2,0.2c0.6,0.3,1.5,0.2,2.7-0.4l0.4,0.9C94.6,131,93.8,131.2,92.9,131.2L92.9,131.2z"/>
		<path class="st2" d="M109.5,140.9c0.2,1,0.4,1.9,0.7,2.9c0.2-0.2,0.3-0.5,0.5-0.7c0.6-1,1.1-2.1,1.6-3.2c0.1-0.2,0.2-0.5,0.2-0.7
			c-0.1-0.5-0.1-1-0.1-1.5c0,0,0,0,0,0c-0.6-1.9-1.8-4.3-1.8-4.3c-0.2-0.4-0.5-0.9-0.7-1.4C109.1,134.9,109,137.9,109.5,140.9
			L109.5,140.9z"/>
		<path class="st2" d="M151.6,133.6c-0.7-4.1-2.6-7.9-5.5-11c-2.9-3-6.5-5.2-10.6-6.1c-4.1-1-8.3-0.7-12.2,0.7
			c-3.9,1.4-7.3,4-9.8,7.3c0.5,1.3,1,2.6,1.3,3.9c2-3.5,5-6.2,8.7-7.8c3.7-1.6,7.8-1.9,11.7-0.9c3.9,1,7.3,3.3,9.8,6.4
			c2.5,3.2,3.8,7.1,3.8,11.1c0,4-1.3,7.9-3.7,11.1c-2.4,3.2-5.8,5.5-9.7,6.5c-3.9,1-8,0.8-11.7-0.7c-3.7-1.5-6.8-4.2-8.8-7.7
			c-0.9,0.6-1.8,1.1-2.7,1.6c2.5,4.3,6.5,7.7,11.2,9.4c4.7,1.7,9.9,1.7,14.6,0c4.7-1.7,8.7-5,11.2-9.4
			C151.5,143.6,152.4,138.5,151.6,133.6z"/>
		<path class="st2" d="M116.9,134.9c0.2,0.3,0.3,0.6,0.5,0.9l7.2,0.7L116.9,134.9z"/>
		<path class="st2" d="M118.6,143.1c-1,1.1-2.1,2-3.4,2.9l10-6L118.6,143.1z"/>
		<path class="st2" d="M112.3,110.9h-3.2l1.5-2.8h1.8V110.9z"/>
		<path class="st2" d="M112.5,104.5l-3.3,12.9c0,0,2.3,2.9,2.6,3.8l6.3-25.2l-1.6,1L112.5,104.5z"/>
		<path class="st2" d="M116.1,97.2c0,0,0.2,1.3,0.6,1.3c1.6-0.1,3.1-0.6,4.5-1.4c0.9-0.6,2-0.9,3.1-0.8c0.1,0,0.3,0,0.4-0.1
			c0.1-0.1,0.2-0.2,0.3-0.3c0.1-0.1,0.1-0.2,0.1-0.4c0-0.1-0.1-0.3-0.1-0.4c-0.2-0.2-0.4-0.3-0.6-0.4c-0.2-0.1-0.5-0.1-0.7-0.1
			c0,0-4.8,0.1-6.8,0.4L116.1,97.2z"/>
		<path class="st2" d="M57.4,98.7L57,98.1c-0.1-0.1-0.2-0.3-0.1-0.5c0-0.2,0.1-0.3,0.2-0.4l0.6-0.5c0.1-0.1,0.3-0.2,0.5-0.2
			c0.2,0,0.3,0.1,0.4,0.2l0.5,0.6C58.4,97.7,57.9,98.1,57.4,98.7L57.4,98.7z"/>
		<path class="st2" d="M114.2,111.4c0,0-1.1,4.1,3.2,9l0.7,2.4l-0.7,2.6l-6-7.6L114.2,111.4z"/>
		<path class="st2" d="M104.3,132.5c-1.3,0-2.5,0.4-3.6,1.1c-1.1,0.7-1.9,1.7-2.4,2.9c-0.5,1.2-0.6,2.5-0.4,3.8
			c0.3,1.3,0.9,2.4,1.8,3.3c0.9,0.9,2.1,1.5,3.3,1.8c1.3,0.3,2.6,0.1,3.8-0.4c1.2-0.5,2.2-1.3,2.9-2.4c0.7-1.1,1.1-2.3,1.1-3.6
			c0-0.9-0.2-1.7-0.5-2.5c-0.3-0.8-0.8-1.5-1.4-2.1c-0.6-0.6-1.3-1.1-2.1-1.4S105.2,132.5,104.3,132.5L104.3,132.5z M104.3,142.7
			c-0.7,0-1.5-0.2-2.1-0.6c-0.6-0.4-1.1-1-1.4-1.7c-0.3-0.7-0.4-1.4-0.2-2.2c0.1-0.7,0.5-1.4,1-1.9c0.5-0.5,1.2-0.9,1.9-1
			c0.7-0.1,1.5-0.1,2.2,0.2c0.7,0.3,1.3,0.8,1.7,1.4c0.4,0.6,0.6,1.3,0.6,2.1c0,1-0.4,1.9-1.1,2.6
			C106.2,142.3,105.3,142.7,104.3,142.7L104.3,142.7z"/>
		<path class="st2" d="M106.1,139c0-0.4-0.1-0.7-0.3-1c-0.2-0.3-0.5-0.5-0.8-0.7c-0.3-0.1-0.7-0.2-1-0.1c-0.3,0.1-0.7,0.2-0.9,0.5
			c-0.2,0.2-0.4,0.6-0.5,0.9c-0.1,0.3,0,0.7,0.1,1c0.1,0.3,0.4,0.6,0.7,0.8c0.3,0.2,0.6,0.3,1,0.3c0.5,0,0.9-0.2,1.3-0.5
			C105.9,139.9,106.1,139.5,106.1,139L106.1,139z"/>
		<path class="st2" d="M106.4,126.6l-2.1,7.3l3.1,1.3l1.4-5L106.4,126.6z"/>
		<path class="st2" d="M103.5,139.1l4.6,6.8l1.1-0.9l-4.4-6.7L103.5,139.1z"/>
		<path class="st2" d="M112.1,147.9l-4.2,2.1c-0.4,0.2-0.6,0.7-0.4,1.1l0,0c0.2,0.4,0.7,0.6,1.1,0.4l4.2-2.1
			c0.4-0.2,0.6-0.7,0.4-1.1l0,0C113.1,147.9,112.6,147.7,112.1,147.9z"/>
		<path class="st2" d="M70.5,86c0,0,0.4-1.5,1.6-1.8c0.3-0.1,0.5-0.1,0.8,0c0.3,0.1,0.5,0.3,0.6,0.5c0.5,0.6,0.8,1.8-1.2,3.2
			C72.3,87.9,71.6,86.4,70.5,86z"/>
		<path class="st2" d="M72.3,84.8c0,0,3.1-4.6,6.2-8.8l0.8,0.7c0,0-4.8,6.6-6.1,8.6L72.3,84.8z"/>
		<path class="st2" d="M114.4,139c-0.7,0-1.5-0.2-2.2-0.5l0.5-0.9l-0.2,0.5l0.2-0.5c0.1,0.1,2.9,1.4,5-1.6l0.9,0.6
			C117.2,138.5,115.6,139,114.4,139z"/>
		<path class="st2" d="M98.4,120.1c-0.7,0-1.4-0.1-2.1-0.2l0.2-1c0,0,2.3,0.5,3.9-0.2l0.4,0.9C100.1,120,99.2,120.1,98.4,120.1
			L98.4,120.1z"/>
		<path class="st2" d="M76.6,97.1L76.6,97.1l0.3,0c0.2,0,0.4,0.1,0.7,0.2c0.1,0.1,0.3,0.1,0.4,0.2c0.1,0.1,0.3,0.2,0.4,0.3
			c0.1,0.1,0.3,0.2,0.4,0.3c0.1,0.1,0.3,0.2,0.4,0.4c0.1,0.1,0.2,0.3,0.3,0.4c0.1,0.1,0.2,0.3,0.3,0.4l0.2,0.4
			c0.1,0.1,0.1,0.3,0.2,0.4c0.1,0.2,0.2,0.4,0.2,0.6c0.1,0.1,0.1,0.2,0.1,0.2l-0.1-0.2c-0.1-0.1-0.2-0.3-0.3-0.5l-0.2-0.4l-0.3-0.4
			c-0.1-0.1-0.2-0.3-0.3-0.4c-0.1-0.1-0.2-0.2-0.4-0.3c-0.1-0.1-0.3-0.2-0.4-0.3c-0.1-0.1-0.3-0.2-0.4-0.2C78,98.1,77.9,98,77.8,98
			c-0.1-0.1-0.2-0.1-0.4-0.1c-0.2,0-0.4-0.1-0.6-0.1h-0.2L76.6,97.1z"/>
		<path class="st2" d="M78,96.1L78,96.1l0.2,0.1c0.1,0.1,0.3,0.2,0.4,0.3c0.4,0.3,0.8,0.7,1.1,1.1c0.2,0.2,0.3,0.5,0.5,0.7
			c0.1,0.1,0.1,0.2,0.2,0.3c0.1,0.1,0.1,0.2,0.1,0.3c0.1,0.2,0.1,0.3,0.2,0.5l0.1,0.2l-0.1-0.2c-0.1-0.1-0.2-0.3-0.3-0.4
			c-0.1-0.1-0.1-0.2-0.2-0.3c-0.1-0.1-0.2-0.2-0.2-0.3c-0.2-0.2-0.4-0.4-0.6-0.5c-0.4-0.3-0.8-0.5-1.2-0.7c-0.1-0.1-0.3-0.1-0.4-0.2
			c0,0-0.1,0-0.1,0h0L78,96.1z"/>
		<path class="st2" d="M63.3,98.5c0,0,0.8-0.1,2-0.1c0.6,0,1.3,0,2.1,0c0.4,0,0.8,0,1.2,0l1.2,0l1.2,0.1c0.4,0,0.8,0,1.2,0.1
			c0.8,0.1,1.5,0.1,2.1,0.2c1.2,0.1,2,0.3,2,0.3s-0.8,0.1-2,0.1c-0.6,0-1.3,0-2.1,0c-0.4,0-0.8,0-1.2,0h-1.2l-1.2,0
			c-0.4,0-0.8-0.1-1.2-0.1c-0.8-0.1-1.5-0.1-2.1-0.2C64.1,98.6,63.3,98.5,63.3,98.5z"/>
		<path class="st2" d="M80.5,76.4L80.5,76.4c0.1,0.1,0.2,0.1,0.2,0.2c0.1,0.1,0.2,0.2,0.2,0.2c0.1,0.1,0.2,0.2,0.2,0.3
			c0.1,0.1,0.2,0.3,0.2,0.4c0.1,0.2,0.1,0.3,0.2,0.5c0.1,0.2,0.1,0.4,0.1,0.6c0,0.2,0.1,0.4,0.1,0.6c0,0.2,0,0.4,0,0.6s0,0.4,0,0.6
			c0,0.2,0,0.4,0,0.5c0,0.2,0,0.3,0,0.5c0,0.3-0.1,0.5-0.1,0.7l0,0.3c0,0,0-0.1,0-0.3c0-0.2,0-0.4,0-0.7c0-0.1,0-0.3,0-0.5
			c0-0.2,0-0.3,0-0.5c0-0.4-0.1-0.7-0.2-1.1c0-0.2-0.1-0.4-0.1-0.5c-0.1-0.2-0.1-0.3-0.2-0.5c-0.1-0.3-0.3-0.5-0.5-0.8
			c-0.1-0.1-0.2-0.2-0.2-0.3c-0.1-0.1-0.1-0.1-0.2-0.2c0,0-0.1-0.1-0.1-0.1h0L80.5,76.4z"/>
		<path class="st2" d="M82.4,76.5L82.4,76.5c0.1,0.1,0.1,0.2,0.2,0.3c0.1,0.2,0.2,0.5,0.3,0.8c0,0.2,0.1,0.3,0.1,0.5
			c0,0.2,0.1,0.4,0.1,0.6c0,0.2,0,0.4,0,0.6c0,0.2,0,0.4,0,0.6c0,0.2,0,0.4-0.1,0.6c-0.1,0.2-0.1,0.4-0.1,0.6c0,0.2-0.1,0.4-0.1,0.5
			l-0.1,0.5c-0.1,0.2-0.1,0.5-0.2,0.7l-0.1,0.3l0.1-0.3c0-0.2,0.1-0.4,0.1-0.7c0-0.1,0-0.3,0.1-0.5c0-0.2,0-0.4,0-0.6
			c0-0.2,0-0.4,0-0.6c0-0.2,0-0.4,0-0.6c0-0.2-0.1-0.4-0.1-0.6c0-0.2-0.1-0.4-0.1-0.5c0-0.2-0.1-0.3-0.2-0.5
			c-0.1-0.2-0.1-0.3-0.2-0.4c-0.1-0.2-0.2-0.4-0.3-0.6l-0.1-0.1l0,0L82.4,76.5z"/>
		<path class="st2" d="M91.1,93.3c0,0,0.6-0.3,1.6-0.6c0.5-0.2,1-0.3,1.6-0.5c0.6-0.2,1.3-0.3,1.9-0.5c0.3-0.1,0.7-0.1,1-0.2
			c0.3,0,0.6-0.1,1-0.1c0.3,0,0.6-0.1,0.9-0.1c0.3,0,0.6,0,0.8,0l0.7,0c0.2,0,0.4,0,0.5,0.1l0.4,0.1H101c-0.1,0-0.3,0-0.5,0h-0.7
			c-0.2,0-0.5,0-0.8,0.1c-0.3,0-0.6,0.1-0.9,0.1c-0.3,0-0.6,0.1-0.9,0.2c-0.3,0.1-0.6,0.1-1,0.2c-0.6,0.2-1.3,0.4-1.8,0.6
			c-0.6,0.2-1.1,0.4-1.6,0.6C92,93.7,91.4,94,91.4,94L91.1,93.3z"/>
		<path class="st2" d="M93.5,98.4c0,0,0.5,0.1,1.3,0.1c0.8,0.1,1.8,0.2,2.9,0.2c1.1,0,2.1,0.1,2.9,0c0.4,0,0.7,0,1,0h0.4l-0.4,0.1
			c-0.2,0-0.6,0.1-0.9,0.2c-0.8,0.1-1.8,0.2-2.9,0.3c-1.1,0.1-2.1,0.1-2.9,0.2c-0.8,0-1.3,0-1.3,0L93.5,98.4z"/>
		<path class="st2" d="M102.2,88.8l0.1,0.1l0.3,0.2c0.3,0.2,0.7,0.5,1.3,0.8c0.6,0.4,1.3,0.7,1.9,0.9c0.4,0.1,0.8,0.3,1.2,0.4
			c0.4,0.1,0.8,0.2,1.2,0.2c0.4,0,0.8,0.1,1.2,0.1c0.2,0,0.4,0,0.6,0c0.2,0,0.4,0,0.6-0.1c0.2,0,0.4-0.1,0.6-0.1
			c0.2,0,0.4-0.1,0.6-0.1c0.4-0.1,0.7-0.2,1-0.3c0.3-0.1,0.6-0.2,0.8-0.3c0.2-0.1,0.5-0.2,0.6-0.3l0.5-0.3c0,0-0.2,0.1-0.5,0.4
			c-0.1,0.1-0.3,0.3-0.6,0.4c-0.2,0.2-0.5,0.3-0.8,0.5c-0.3,0.2-0.6,0.3-1,0.5c-0.2,0.1-0.4,0.1-0.6,0.2c-0.2,0.1-0.4,0.1-0.6,0.2
			c-0.2,0.1-0.4,0.1-0.6,0.1c-0.2,0-0.4,0.1-0.7,0.1c-0.5,0-0.9,0-1.4,0c-0.5,0-0.9-0.1-1.4-0.2c-0.4-0.1-0.9-0.2-1.3-0.3
			c-0.7-0.3-1.5-0.6-2.1-1c-0.5-0.3-1-0.6-1.4-0.9c-0.2-0.1-0.3-0.2-0.3-0.3c0,0-0.1-0.1-0.1-0.1L102.2,88.8z"/>
		<path class="st2" d="M106.8,110.7l8-14.1l-7.3,14.4L106.8,110.7z"/>
		<path class="st2" d="M112.6,105.3l-2.4,4l2.3,0.5L112.6,105.3z"/>
		<path class="st2" d="M114.5,86.4c0,0-0.1-0.1-0.2-0.3c-0.1-0.2-0.3-0.5-0.6-0.8c-0.7-1-1.4-1.9-2.2-2.7c-0.5-0.5-1-1.1-1.7-1.6
			c-0.6-0.6-1.3-1.1-2-1.7c-0.7-0.5-1.5-1-2.3-1.5c-0.8-0.5-1.7-0.9-2.6-1.2c-0.9-0.3-1.8-0.6-2.7-0.8l-0.7-0.2l-0.7-0.1
			c-0.5-0.1-0.9-0.1-1.4-0.2s-0.9-0.1-1.3-0.1c-0.4,0-0.8,0-1.3,0h-0.6c-0.2,0-0.4,0-0.6,0.1c-0.4,0-0.8,0.1-1.2,0.1
			c-0.7,0.1-1.4,0.2-1.9,0.3c-0.6,0.1-1.1,0.2-1.5,0.3c-0.8,0.2-1.3,0.3-1.3,0.3l1.3-0.5c0.4-0.2,0.9-0.3,1.5-0.5
			c0.6-0.2,1.2-0.3,2-0.5c0.4-0.1,0.7-0.1,1.2-0.2c0.2,0,0.4-0.1,0.6-0.1l0.6,0c0.4,0,0.9-0.1,1.3,0c0.5,0,0.9,0,1.4,0
			c0.5,0,0.9,0.1,1.4,0.1l0.7,0.1c0.2,0,0.5,0.1,0.7,0.1c1,0.2,1.9,0.5,2.8,0.9c1.8,0.7,3.5,1.7,5,2.9c0.7,0.5,1.4,1.1,2,1.8
			c0.6,0.5,1.1,1.1,1.6,1.7c0.5,0.6,0.9,1.1,1.2,1.6c0.3,0.5,0.6,0.9,0.8,1.3c0.2,0.4,0.4,0.7,0.5,0.9
			C114.4,86.3,114.5,86.4,114.5,86.4z"/>
		<path class="st2" d="M91.1,109.3c0,0-0.4-0.4-1.1-1c-0.6-0.6-1.5-1.5-2.2-2.4c-0.4-0.5-0.8-0.9-1.1-1.4l-0.5-0.7
			c-0.1-0.2-0.3-0.4-0.4-0.6c-0.1-0.2-0.2-0.4-0.3-0.5c-0.1-0.2-0.2-0.3-0.2-0.4l-0.2-0.4l0.2,0.4c0.1,0.1,0.1,0.2,0.2,0.4
			c0.1,0.2,0.2,0.3,0.3,0.5l0.4,0.6l0.5,0.6c0.4,0.4,0.8,0.9,1.2,1.3c0.8,0.8,1.7,1.7,2.4,2.2c0.7,0.6,1.2,1,1.2,1L91.1,109.3z"/>
		<path class="st2" d="M92.3,110c0,0,1.2,1.3,2.2,2.7c0.5,0.7,1.1,1.4,1.4,1.9c0.4,0.5,0.6,0.9,0.6,0.9s-0.3-0.3-0.7-0.8
			c-0.4-0.5-1-1.2-1.6-1.7c-1.2-1.3-2.4-2.5-2.4-2.5L92.3,110z"/>
		<path class="st2" d="M103.3,119.9c0,0,0.8,0.8,1.8,2c0.3,0.3,0.6,0.6,0.8,1c0.3,0.4,0.6,0.7,0.9,1.2c0.3,0.4,0.6,0.8,0.9,1.3
			c0.3,0.4,0.6,0.9,0.9,1.3c0.3,0.4,0.6,0.9,0.9,1.4c0.3,0.4,0.6,0.9,0.8,1.3c0.2,0.4,0.5,0.9,0.7,1.3c0.2,0.4,0.4,0.8,0.6,1.2
			c0.2,0.3,0.3,0.7,0.4,1c0.1,0.3,0.2,0.6,0.3,0.8c0.2,0.4,0.2,0.7,0.2,0.7l-0.4-0.7c-0.1-0.2-0.2-0.5-0.4-0.7l-0.5-1
			c-0.2-0.3-0.4-0.7-0.7-1.1l-0.8-1.2l-0.9-1.3c-0.3-0.4-0.6-0.9-0.9-1.3c-0.3-0.4-0.6-0.9-0.9-1.3c-0.3-0.4-0.6-0.9-0.9-1.3
			l-1.6-2.3C103.9,120.8,103.3,119.9,103.3,119.9z"/>
		<path class="st2" d="M113.6,144.3c-0.1,0-0.2,0-0.2-0.1c-0.8-0.5-1.7-0.9-2.6-0.9c0,0-0.1,0-0.1,0c0,0-0.1,0-0.1-0.1
			c-0.1-0.1-0.1-0.2-0.1-0.3c0-0.1,0.1-0.2,0.1-0.2c0.1-0.1,0.2-0.1,0.3-0.1c1.1,0.1,2.1,0.5,3,1.1c0,0,0.1,0.1,0.1,0.1
			c0,0,0,0.1,0,0.1c0,0,0,0.1,0,0.1c0,0,0,0.1-0.1,0.1c0,0-0.1,0.1-0.1,0.1C113.7,144.3,113.6,144.3,113.6,144.3z"/>
		<path class="st2" d="M114.7,143.1c-0.1,0-0.1,0-0.2-0.1c-0.9-0.7-1.9-1.1-3-1.2c0,0-0.1,0-0.1,0c0,0-0.1,0-0.1-0.1
			c0,0-0.1-0.1-0.1-0.1c0,0,0-0.1,0-0.1c0,0,0-0.1,0-0.1c0,0,0-0.1,0.1-0.1c0,0,0.1-0.1,0.1-0.1c0,0,0.1,0,0.1,0
			c1.2,0.1,2.4,0.6,3.4,1.3c0.1,0.1,0.1,0.1,0.1,0.2s0,0.2-0.1,0.3c0,0-0.1,0.1-0.1,0.1C114.8,143,114.8,143.1,114.7,143.1
			L114.7,143.1z"/>
		<path class="st2" d="M115.8,141.9c-0.1,0-0.2,0-0.2-0.1c-0.9-0.8-2.1-1.2-3.2-1.2c0,0-0.1,0-0.1,0c0,0-0.1,0-0.1-0.1
			c0,0-0.1-0.1-0.1-0.1c0,0,0-0.1,0-0.1c0,0,0-0.1,0-0.1c0,0,0-0.1,0.1-0.1c0,0,0.1-0.1,0.1-0.1c0,0,0.1,0,0.1,0
			c1.4,0,2.7,0.5,3.7,1.4c0,0,0.1,0.1,0.1,0.2c0,0.1,0,0.1,0,0.2c0,0.1-0.1,0.1-0.1,0.1C116,141.8,115.9,141.8,115.8,141.9
			L115.8,141.9z"/>
		<path class="st2" d="M83.9,113.1c0,0-1-1.1,0.9-1.6c0.4-0.1,0.7-0.1,1.1-0.2l11-0.5h2.8l1.2-2.8H81.2c-0.1,0-0.3,0-0.4-0.1
			c-0.1-0.1-0.2-0.1-0.3-0.2c-0.1-0.1-0.2-0.2-0.2-0.3c0-0.1-0.1-0.2,0-0.4v0c0.1-0.3,0.1-0.5,0-0.8c0-0.3-0.1-0.5-0.3-0.7
			c-0.1-0.2-0.3-0.4-0.6-0.5c-0.2-0.1-0.5-0.2-0.7-0.3l-13.5-1.6c-0.7-0.1-1.4-0.4-2-0.8l-0.3-0.2l-1.4,1l0.6,0.5
			c0.6,0.5,1.3,0.9,2.1,1l13,1.5c0.1,0,0.2,0,0.3,0.1c0.1,0.1,0.2,0.1,0.2,0.2c0.1,0.1,0.1,0.2,0.1,0.3c0,0.1,0,0.2,0,0.3l-8.2,25.6
			c0.8,0.1,1.5,0.5,2.1,1l6.3-16.7c0.1-0.3,0.3-0.5,0.5-0.7c0.2-0.2,0.5-0.3,0.8-0.4c0.3-0.1,0.6,0,0.8,0c0.3,0.1,0.5,0.2,0.7,0.4
			l19.4,20.2l4.1-1.6L83.9,113.1z M77.6,112.6c-0.2,0.7-0.4,1.5-0.7,2.3c-0.1,0.4-0.3,0.9-0.4,1.3c-0.1,0.4-0.3,0.9-0.4,1.3
			l-0.5,1.3c-0.1,0.4-0.3,0.9-0.5,1.3c-0.3,0.8-0.6,1.6-0.9,2.2c-0.5,1.3-0.9,2.2-0.9,2.2s0.2-0.9,0.6-2.3c0.2-0.7,0.4-1.5,0.7-2.3
			c0.1-0.4,0.3-0.9,0.4-1.3c0.1-0.4,0.3-0.9,0.4-1.3c0.1-0.4,0.3-0.9,0.5-1.3c0.2-0.4,0.3-0.9,0.5-1.3c0.3-0.8,0.6-1.6,0.9-2.2
			c0.5-1.3,1-2.2,1-2.2S78,111.2,77.6,112.6z M95,129c-0.8-0.8-1.8-1.7-2.8-2.6c-0.5-0.5-1-1-1.5-1.5l-1.6-1.6l-1.5-1.6
			c-0.5-0.5-1-1.1-1.5-1.6c-0.5-0.5-0.9-1-1.4-1.5c-0.4-0.5-0.8-0.9-1.2-1.4c-1.5-1.7-2.4-2.9-2.4-2.9s1.2,1,2.8,2.5
			c0.4,0.4,0.9,0.8,1.3,1.2c0.5,0.4,1,0.9,1.5,1.4c0.5,0.5,1,0.9,1.5,1.5l1.6,1.6c0.5,0.5,1,1.1,1.5,1.6c0.5,0.5,1,1.1,1.5,1.6
			c1,1,1.8,2,2.6,2.9c1.5,1.7,2.4,2.9,2.4,2.9S96.7,130.5,95,129z"/>
		<path class="st2" d="M77.5,117.8l-1.1,3c4.3,2,7.6,5.5,9.3,9.9c1.7,4.4,1.6,9.3-0.2,13.6c-1.8,4.3-5.2,7.8-9.6,9.7
			c-4.3,1.9-9.2,2-13.6,0.4c-4.4-1.6-8-4.9-10.1-9.2c-2-4.2-2.4-9.1-0.9-13.6c1.5-4.5,4.6-8.2,8.7-10.4c4.2-2.2,9-2.7,13.5-1.5l1-3
			c-5.3-1.6-11-1-16,1.5c-4.9,2.6-8.7,6.9-10.4,12.2c-1.8,5.3-1.4,11,1,16c2.4,5,6.6,8.9,11.8,10.9c5.2,2,10.9,1.8,16-0.4
			c5.1-2.2,9.1-6.3,11.3-11.4c2.1-5.1,2.2-10.9,0.2-16C86.5,124.4,82.6,120.2,77.5,117.8L77.5,117.8z"/>
		<path class="st2" d="M76.7,70.4L76.7,70.4c-19.9,8.1-7.2,16.4-7.2,16.4c1-3,2.7-5.8,4.9-8.1c0.3-0.3,0.7-0.7,1-1
			C76.1,77.1,79.5,73.8,76.7,70.4z M68,83.7c0,0-5.4-5.3,5.2-10.4C73.2,73.3,66.8,79.2,68,83.7L68,83.7z M76.7,74.2
			c0,0.1,0,0.2-0.1,0.4c-0.1,0.2-0.2,0.5-0.3,0.7l-0.2,0.3c-0.1,0.1-0.1,0.2-0.2,0.3c-0.1,0.2-0.3,0.4-0.5,0.6
			c-0.1,0.2-0.3,0.3-0.5,0.5c-0.2,0.1-0.3,0.3-0.5,0.4c-0.1,0.1-0.3,0.2-0.4,0.3c-0.1,0.1-0.2,0.1-0.3,0.2c-0.1,0.1-0.3,0.2-0.3,0.2
			l0.2-0.3c0.1-0.1,0.1-0.2,0.2-0.3c0.1-0.1,0.2-0.2,0.3-0.4c0.1-0.1,0.2-0.3,0.4-0.4c0.1-0.1,0.2-0.3,0.4-0.5
			c0.1-0.2,0.1-0.2,0.2-0.3l0.2-0.3c0.1-0.1,0.1-0.2,0.2-0.3l0.1-0.3c0.1-0.2,0.2-0.4,0.3-0.6c0.1-0.2,0.1-0.4,0.2-0.6
			c0-0.2,0.1-0.4,0.1-0.6c0-0.2,0-0.4,0-0.5c0-0.2,0-0.3,0-0.5c0-0.1,0-0.3-0.1-0.4c0-0.1-0.1-0.2-0.1-0.3c0.1,0.1,0.2,0.2,0.2,0.3
			c0.1,0.1,0.1,0.2,0.2,0.3c0.1,0.2,0.1,0.3,0.2,0.5c0.1,0.2,0.1,0.4,0.1,0.6c0,0.2,0,0.5,0,0.7C76.8,73.9,76.8,74,76.7,74.2z"/>
		<path class="st2" d="M87.8,87c-0.6,0.7-1.1,1.5-1.5,2.3c-0.4,0.8-0.7,1.7-1,2.6c-0.1,0.4-0.3,0.9-0.4,1.3l-0.3,1.3
			c-0.4,1.7-0.9,3.4-1.7,5c-0.3,0.8-0.8,1.5-1.3,2.2c-0.2,0.3-0.5,0.5-0.8,0.6c-0.1,0-0.2,0.1-0.2,0.1l-0.3,0h-0.6
			c-0.4,0-0.9,0-1.3,0c-0.4,0-0.9,0-1.3-0.1c-0.9-0.1-1.8-0.1-2.7-0.2c-0.9-0.1-1.8-0.2-2.7-0.3c-0.9-0.1-1.8-0.2-2.7-0.4
			c-0.9-0.1-1.8-0.3-2.7-0.4l-1.3-0.2l-0.3-0.1c-0.1,0-0.3,0-0.4,0c-0.3,0-0.6,0.1-0.8,0.2c-0.1,0.1-0.2,0.1-0.4,0.2l-0.2,0.1
			l-0.1,0.1c-0.1,0.2-0.3,0.3-0.5,0.4c-0.3,0.3-0.7,0.5-1.1,0.7c-0.2,0.1-0.4,0.2-0.6,0.3c-0.1,0-0.2,0.1-0.3,0.1
			c-0.1,0-0.2,0-0.2,0c-0.1,0-0.1,0-0.2,0c-0.1,0-0.1-0.1-0.2-0.1c-0.1-0.1-0.2-0.3-0.2-0.4l-0.1-0.3h-0.3c0,0-0.1,0-0.1,0
			c0,0-0.1,0-0.1,0c0,0,0,0-0.1,0c0,0,0,0,0-0.1c0-0.1-0.1-0.1-0.1-0.2c0,0,0-0.1,0-0.1c0,0,0,0,0-0.1v-0.1v-0.3l-0.3,0h-0.2l-0.1,0
			c0,0-0.1,0-0.1-0.1c0,0,0,0,0,0c0,0,0,0,0,0c0-0.1,0-0.1,0-0.2c0,0,0-0.1,0-0.1c0,0,0-0.1,0-0.1l0-0.1l0.4-0.8l-0.8,0.3
			c-0.1,0-0.1,0-0.2,0c-0.1,0-0.1,0-0.2,0c-0.1,0-0.1-0.1-0.1-0.1c0-0.1-0.1-0.1-0.1-0.2c0-0.1,0-0.3,0.1-0.4
			c0.1-0.2,0.3-0.3,0.4-0.5c0.1-0.2,0.3-0.3,0.5-0.5c0.2-0.1,0.3-0.3,0.5-0.4c0.4-0.2,0.7-0.4,1.2-0.6c0.4-0.1,0.8-0.2,1.3-0.2
			c0.4,0,0.9,0.1,1.4,0.1l2.9,0.2c1.9,0.1,3.8,0.2,5.7,0.3c1,0,1.9,0.1,2.9,0.1c0.5,0,1,0,1.5,0c0.2,0,0.5,0,0.7,0
			c0.3,0,0.5,0,0.8-0.1c0.3-0.1,0.6-0.2,0.9-0.4c0.3-0.2,0.5-0.4,0.6-0.7c0.2-0.3,0.3-0.6,0.3-0.9v-0.2v-0.2v-0.3
			c0-0.9,0.1-1.8,0.3-2.8c0.2-0.9,0.4-1.8,0.8-2.7h-0.9c-0.3,0.8-0.6,1.5-0.8,2.4c-0.2,0.9-0.4,1.9-0.5,2.9v0.4v0.2v0.2
			c0,0.2-0.1,0.5-0.3,0.6c-0.2,0.2-0.4,0.3-0.6,0.3c-0.1,0-0.4,0-0.6,0h-0.7H74c-0.9,0-1.9,0-2.8,0c-1.9,0-3.8-0.1-5.7-0.2l-2.9-0.1
			c-0.5,0-0.9-0.1-1.5-0.1c-0.5,0-1,0.1-1.5,0.3c-0.5,0.2-1,0.5-1.4,0.8c-0.2,0.2-0.4,0.3-0.6,0.5c-0.2,0.2-0.3,0.4-0.5,0.6
			l-0.2,0.3l-0.1,0.2c-0.1,0.1-0.1,0.1-0.1,0.2c-0.2,0.3-0.2,0.6-0.1,1c0,0.2,0.1,0.3,0.2,0.5c0.1,0.1,0.2,0.2,0.4,0.3
			c0.1,0.1,0.3,0.1,0.4,0.1c0,0.2,0,0.4,0.1,0.6c0,0,0.1,0.1,0.1,0.1c0,0,0.1,0.1,0.1,0.1c0.1,0.1,0.2,0.1,0.3,0.1l0.2,0
			c0,0,0,0.1,0,0.1c0,0.2,0.1,0.3,0.2,0.5c0.1,0.1,0.1,0.2,0.2,0.2c0.1,0.1,0.2,0.1,0.3,0.1c0.1,0,0.1,0,0.2,0.1
			c0.1,0.2,0.2,0.4,0.3,0.5c0.2,0.2,0.5,0.4,0.8,0.4c0.1,0,0.3,0,0.4,0c0.1,0,0.3-0.1,0.4-0.1c0.2-0.1,0.4-0.2,0.7-0.3
			c0.4-0.2,0.8-0.5,1.2-0.8c0.2-0.1,0.4-0.3,0.6-0.5l0.1-0.1l0.1-0.1c0.1,0,0.1-0.1,0.2-0.1c0.2-0.1,0.5-0.1,0.7-0.1l0.3,0.1
			l1.3,0.3c0.9,0.2,1.8,0.4,2.7,0.5c1.8,0.3,3.6,0.6,5.4,0.7c0.9,0.1,1.8,0.2,2.7,0.2c0.9,0,1.8,0.1,2.7,0l0.7,0
			c0.1,0,0.3,0,0.4-0.1c0.1,0,0.3-0.1,0.4-0.1c0.5-0.2,1-0.6,1.3-1c0.5-0.8,1-1.6,1.4-2.5c0.7-1.7,1.2-3.5,1.6-5.3
			c0.1-0.4,0.2-0.9,0.2-1.3s0.2-0.9,0.3-1.3c0.2-0.9,0.5-1.7,0.9-2.5c0.4-0.8,0.8-1.6,1.3-2.3c0.5-0.8,1-1.4,1.7-2.1
			C89.1,85.6,88.4,86.2,87.8,87L87.8,87z"/>
		<path class="st2" d="M72.7,88.4C72.7,88.4,72.7,88.5,72.7,88.4L72.7,88.4z"/>
		<path class="st2" d="M79.8,89.7c0.2-0.8,0.5-1.6,0.9-2.4c0.4-0.9,1-1.6,1.8-2.1l2.4-1.4l-2.5,0.9c-1,0.4-1.8,1.1-2.3,2.1
			c-0.8,1.5-1.3,3.2-1.7,4.8C77.8,94.2,79.8,89.7,79.8,89.7z"/>
		<path class="st2" d="M77.9,88.6c-0.2,0.1-0.5,0.1-0.7,0l-0.2,0h-0.1h0h-0.2l-0.1,0.1l-0.1,0.1c0,0,0,0-0.1,0c0,0-0.1,0-0.1,0
			c0,0-0.1,0-0.1-0.1c0,0,0-0.1-0.1-0.1c-0.1-0.1-0.2-0.2-0.3-0.2c-0.1,0-0.2-0.1-0.4,0s-0.2,0.1-0.3,0.2c0,0-0.1,0.1-0.1,0.1
			c0,0-0.1,0-0.1,0l0,0v0l0-0.1l-0.2-0.3l0-0.1c0,0-0.1-0.1-0.1-0.1c-0.1-0.1-0.2-0.1-0.3-0.2c-0.1,0-0.3,0-0.4,0
			c-0.1,0-0.1,0.1-0.2,0.1L73,88.2l-0.3,0.2l-0.1-0.1c-0.1-0.1-0.1-0.2-0.2-0.3c-0.1-0.2-0.3-0.4-0.4-0.6c-0.6-0.8-1.2-1.7-2.1-2
			l-0.3,0.6c0.9,0.3,1.3,1,1.9,1.8c0.1,0.2,0.3,0.4,0.4,0.6c0.1,0.1,0.1,0.2,0.1,0.3l0.1,0.2l0,0.1c0,0,0,0.1,0.1,0.1
			c0,0.1,0.1,0.1,0.1,0.1c0.1,0.1,0.2,0.1,0.4,0.1c0.1,0,0.1,0,0.2,0l0.1,0h0l0.3-0.2l0.5-0.4l0.1-0.1l0,0.1l0.2,0.3l0,0.1l0,0.1v0
			c0.1,0.1,0.1,0.2,0.2,0.2c0.2,0.1,0.3,0.2,0.5,0.2c0.2,0,0.4-0.1,0.5-0.2c0,0.1,0.1,0.1,0.1,0.2c0.1,0.1,0.3,0.2,0.5,0.3
			c0.2,0,0.4,0,0.6,0c0.1,0,0.2-0.1,0.2-0.1l0,0l0.1,0c0.1,0,0.3,0.1,0.4,0.1l0,0c0.3,0,0.6,0,0.9-0.2c0.3-0.1,0.5-0.3,0.7-0.6
			l0.7-1c1.1-2.3,5.2-3.8,5.2-3.8c-0.9,0.3-1.8,0.6-2.6,0.9c-1.4,0.6-2.5,1.5-3.3,2.7C78.7,87.9,78.3,88.3,77.9,88.6L77.9,88.6z"/>
		<path class="st2" d="M145.9,121.5l13.9,1.3l-13.9,1.3V121.5z"/>
		<path class="st2" d="M116.1,85.7l49,1.2l-49,1.2V85.7z"/>
		<path class="st2" d="M114.9,103.3l20.7,1.2l-20.7,1.2V103.3z"/>
		<path class="st2" d="M149,134.1l23,1.3l-23,1.3V134.1z"/>
		<path class="st2" d="M132.7,154.8l13.9,1.3l-13.9,1.3V154.8z"/>
	</g>
</g>
</svg>
