<?xml version="1.0" encoding="utf-8"?>
<!-- Generator: Adobe Illustrator 26.2.1, SVG Export Plug-In . SVG Version: 6.00 Build 0)  -->
<svg version="1.1" id="Layer_1" xmlns="http://www.w3.org/2000/svg" xmlns:xlink="http://www.w3.org/1999/xlink" x="0px" y="0px"
	 viewBox="0 0 160.9 35" style="enable-background:new 0 0 160.9 35;" xml:space="preserve">
<style type="text/css">
	.st0{fill:#2D2D2D;}
	.st1{fill:#FFFFFF;}
	.st2{fill:#0789B0;}
</style>
<path class="st0" d="M61.7,31.4c8.7,0,15.7-7,15.7-15.7S70.4,0,61.7,0C53.1,0,46,7,46,15.7S53.1,31.4,61.7,31.4z"/>
<path class="st1" d="M70.2,13.4l0.4,1L70.2,13.4l0.4,0.5l-0.3-0.8l0.3,0.5L70.4,13l-0.7-1.5l-0.5,0.1l0.4-0.1l-0.4,0.1l0.3-0.1h-0.3
	l0.2-0.1h-0.2l-0.3-0.7l-0.3-0.3l-0.3,0.8l0.1,2.2L68,13.7l-0.1,2.4l0.2-1.5v1.1l0.1-1.1v0.9l0.1-0.9v0.8l0.2-1.4l0.5,0.1l0.2,0.5
	l-0.1-0.8l0.2,0.6l-0.2-0.8l0.2,0.5l-0.1-0.8l0.6,0.2L70,14l-0.1-0.4l0.2,0.5l-0.2-0.3l0.3,0.5l-0.3-0.6l0.2-0.1L70.2,13.4z"/>
<path class="st1" d="M52.5,17.5l-1.1,4.9l1.1-2.9l0.6-0.5l0.8-1.5l1.2,1.5l-0.4,3l-1,5l1.5-3.4l0.8-0.4l-0.1,5.5l0.6-2.7l0.9-2.7
	l0.3-1l0.6-4.9l2.5-1.8l0.7-2.5l-3,1.6l-1.7-0.4l-2,1l0.2-0.6l1.8-1.8l0.3-1.5l2-1.2l-1.5,0.6l-1.3,0.8l-2.1,2l-0.5-0.4l-1.6,2
	l-1.8,0.8l1.3,0.5l-3,3L52.5,17.5z"/>
<path class="st1" d="M68.6,10.3l-0.5,0.3L68.6,10.3l-0.5,0.3l0.3-0.1l-0.3,0.2l0.3-0.1l-0.2,0.5L68.6,10.3z"/>
<path class="st1" d="M62.2,10.7l1.7,1L62.2,10.7l1.6,0.9L62,10.5l1.7,1l-1.8-1.1l1.8,1l-1.8-1.1l1.8,1l-1.8-1.1l1.9,1l-2-1.1
	l2.5,1.3v0.8l0.1-0.7l-0.1,0.9l0.1-0.8l-0.1,1l0.2-1.3l-2.9-1.6l-1.3,0.1L58.8,9L56,10l-0.6,0.6L54,11.1c-0.5,0.5-2.2,2.1-2.2,2.1
	l1.7-1.2l-0.9,0.9l1.3-1.3L53,12.5l1.2-1.2l0.5-0.1l0.3,0.1l-0.3,0.4l0.3-0.4l-0.3,0.5l0.3-0.4L54.7,12l0.9-1.1l0.5-0.5l-0.2,0.3
	l0.4-0.3L56,10.7l0.3-0.3l-0.2,0.2l0.3-0.3l2-0.8L58,9.7l0.4-0.2L58,9.7l0.4-0.2l-0.5,0.4l0.5-0.2L57.8,10l0.9-0.5h0.5l0.5,0.3
	l-0.5-0.4l0.7,0.5l-0.6-0.4l0.8,0.4l-0.8-0.5l1.2,0.6l0.9-0.1L60.9,10h0.4l-0.5,0.1h0.4l-0.5,0.1l0.8-0.1l0.1,0.2l-0.3,0.1l0.2-0.1
	l-0.3,0.1l0.2-0.1l-0.3,0.2l0.2-0.1L61,10.6l0.2-0.1L61,10.9L62.2,10.7z"/>
<path class="st1" d="M65.9,10.3l-0.5-0.8l0.4,0.7l-0.4-0.5l0.3,0.6l-0.3-0.4l0.3,0.4L65.5,10l0.2,0.3l-0.9,0.9L65.9,10.3z"/>
<path class="st1" d="M58.7,7.2l-2.3,1.9L57,8.7L56.8,9l0.4-0.4L56.9,9l0.6-0.4l0.3-0.1l0.5,0.1L58.4,9l-0.1-0.4l0.3,0.5l-0.1-0.4
	l0.2,0.4l-0.1-0.3l0.2,0.5l-0.1-0.4l0.4,0.6L58.9,9h0.2l0.9,1.1h0.5l0.7,0.7L60.7,10l0.2,0.3l-0.2-0.4l0.3,0.4l-0.4-0.6l-0.7-0.1
	L59,8.3l0.4,0.4L59,8.1l0.4,0.5L59,8l0.3,0.3l-0.4-0.7l0.2,0.1l-0.2-0.2l0.3,0.2l-0.3-0.3l0.4,0.3L58.7,7.2z"/>
<path class="st2" d="M75.5,15.5l1.9,1.4c0-0.4,0.1-0.8,0.1-1.2c0-2.1-0.4-4.1-1.2-6s-2-3.7-3.4-5.1c-1.5-1.5-3.2-2.6-5.1-3.4
	s-4-1.2-6-1.2c-2.1,0-4.1,0.4-6,1.2c-1.9,0.8-3.7,2-5.1,3.4c-1.6,1.4-2.8,3.1-3.6,5s-1.2,4-1.2,6c0,0.1,0,0.3,0,0.4l2.5-1.2l1.6-1.9
	l2.8-1.2c0.7-0.7,1.7-1.7,2.6-2.5c0.3-0.3,0.6-0.5,1-0.6c0.7-0.2,1.8-0.7,2.3-1.3h0.7l2.5-2.1l0.8,0.9L63,6.2l1.2,2l0.7,0.2l1.4,1.9
	l0.6-0.5l1.2,0.7l0.7-0.4l0.7,0.5l1.1,2.3l0.6-0.1l1.7,2.3L75.5,15.5z"/>
<path class="st2" d="M92.2,8.4c0.2,0.5,0.3,1.1,0.2,1.7c-0.1,0.6-0.4,1.2-0.8,1.6c-0.3,0.3-0.6,0.5-1,0.6c0.2,0.1,0.4,0.2,0.6,0.4
	s0.3,0.4,0.4,0.6c0.2,0.5,0.2,1.1,0.1,1.6c-0.1,0.6-0.4,1.2-0.9,1.7c-0.3,0.3-0.6,0.6-1,0.9s-0.9,0.5-1.4,0.6s-1.1,0.1-1.6,0.1h-5
	l2.3-10.9h5.3C91,7.3,91.8,7.7,92.2,8.4z M85.2,13.4l-0.6,2.9h2.7c0.4,0,0.8-0.1,1.2-0.2c0.3-0.1,0.5-0.3,0.7-0.6
	c0.2-0.2,0.3-0.5,0.3-0.8c0.1-0.2,0.1-0.5,0-0.7s-0.2-0.4-0.5-0.5c-0.3-0.1-0.7-0.2-1.1-0.2h-2.7V13.4z M86.1,9.1l-0.5,2.4h2.7
	c0.4,0,0.8-0.1,1.2-0.3c0.2-0.1,0.3-0.2,0.4-0.4c0.1-0.2,0.2-0.4,0.2-0.6c0.1-0.5,0-0.8-0.4-1C89.3,9.1,88.9,9,88.4,9L86.1,9.1z"/>
<path class="st2" d="M94.9,18.2h-2.1l2.3-10.9h2.1L94.9,18.2z"/>
<path class="st2" d="M100.8,10.1l-1,4.9c-0.1,0.3-0.1,0.7-0.1,1c0.1,0.4,0.4,0.6,1,0.6c0.3,0,0.7-0.1,1-0.2c0.3-0.2,0.5-0.4,0.7-0.7
	c0.2-0.4,0.4-0.8,0.5-1.3l0.9-4.4h2.1l-1.7,8.1h-2.1l0.2-1.1l-0.2,0.2c-0.1,0.1-0.2,0.2-0.3,0.3c-0.3,0.3-0.7,0.5-1.1,0.6
	s-0.7,0.2-1.1,0.2c-1.2,0-1.9-0.4-2.1-1.3c-0.1-0.7-0.1-1.4,0.1-2.1l1-4.9L100.8,10.1z"/>
<path class="st2" d="M114,11.4c0.2,0.5,0.3,1.1,0.3,1.7c0,0.5-0.1,1.1-0.3,1.6h-5.5c-0.1,0.8,0,1.4,0.4,1.7c0.3,0.2,0.6,0.3,1,0.3
	s0.8-0.1,1.1-0.4c0.2-0.2,0.4-0.3,0.5-0.6h2.2c-0.2,0.6-0.6,1.1-1.1,1.5c-0.9,0.8-2,1.2-3.2,1.2c-0.5,0-0.9-0.1-1.4-0.2
	c-0.4-0.2-0.8-0.4-1.2-0.8c-0.6-0.7-0.8-1.7-0.5-3.2c0.2-1.2,0.8-2.4,1.7-3.2c0.8-0.7,1.9-1.1,3-1.1c0.6,0,1.2,0.1,1.7,0.4
	C113.4,10.5,113.8,10.9,114,11.4L114,11.4z M108.8,13.3h3.3c0.1-0.2,0.1-0.4,0-0.7c0-0.2-0.1-0.4-0.3-0.6c-0.1-0.1-0.3-0.3-0.5-0.3
	c-0.2-0.1-0.4-0.1-0.6-0.1c-0.5,0-0.9,0.2-1.2,0.5C109.2,12.4,109,12.9,108.8,13.3L108.8,13.3z"/>
<path class="st2" d="M129.4,8.3c0.2,0.3,0.3,0.6,0.4,0.9c0.1,0.4,0.1,0.8,0,1.1c-0.1,0.6-0.4,1.1-0.7,1.5c-0.4,0.5-0.9,0.9-1.5,1.1
	c0.2,0.1,0.4,0.2,0.5,0.3c0.2,0.1,0.3,0.3,0.4,0.5c0.1,0.6,0.1,1.2,0,1.7l-0.2,0.7c-0.1,0.3-0.1,0.7-0.2,1c0,0.1,0,0.2,0.1,0.3
	c0,0.1,0.1,0.2,0.2,0.3l-0.1,0.3h-2.5c0-0.2,0-0.4,0-0.6c0-0.3,0-0.6,0.1-0.9l0.2-1c0.1-0.7,0.1-1.2-0.1-1.4s-0.6-0.3-1.3-0.3h-2.4
	l-0.9,4.3h-2.2l2.3-10.9h5.4c0.6,0,1.2,0.1,1.7,0.3C128.9,7.7,129.2,8,129.4,8.3z M123.3,9.2l-0.6,2.9h2.6c0.4,0,0.8,0,1.2-0.2
	c0.2-0.1,0.5-0.3,0.6-0.5c0.2-0.2,0.3-0.5,0.3-0.7c0.1-0.7,0-1.1-0.4-1.3c-0.3-0.2-0.7-0.2-1.1-0.2C125.9,9.2,123.3,9.2,123.3,9.2z"
	/>
<path class="st2" d="M131.6,10.1h2.1l-1.7,8.1h-2.1L131.6,10.1z M133.9,9.1h-2.1l0.4-1.9h2.1L133.9,9.1z"/>
<path class="st2" d="M140.8,11.1l0.8-3.9h2.1l-2.3,10.9h-2.1l0.2-1.1c-0.3,0.4-0.8,0.8-1.3,1s-1,0.3-1.5,0.3c-0.4,0-0.9-0.1-1.2-0.3
	c-0.4-0.2-0.7-0.5-0.9-0.9c-0.5-0.9-0.6-2-0.3-2.9c0.2-1.2,0.8-2.4,1.6-3.2c0.4-0.4,0.8-0.7,1.3-0.9s1-0.3,1.5-0.3
	c0.4,0,0.9,0.1,1.2,0.3C140.4,10.4,140.6,10.8,140.8,11.1L140.8,11.1z M140.2,14.2c0.2-1,0.1-1.7-0.3-2.1c-0.1-0.1-0.3-0.2-0.5-0.3
	s-0.4-0.1-0.5-0.1c-0.3,0-0.6,0-0.8,0.2c-0.3,0.1-0.5,0.3-0.7,0.5c-0.4,0.5-0.7,1.1-0.8,1.7c-0.2,0.6-0.1,1.2,0.1,1.8
	c0.1,0.2,0.3,0.4,0.5,0.5s0.5,0.2,0.7,0.1c0.3,0,0.6-0.1,0.8-0.2c0.3-0.1,0.5-0.3,0.7-0.5C139.8,15.5,140.1,14.9,140.2,14.2
	L140.2,14.2z"/>
<path class="st2" d="M149.1,10.1c0.2,0.1,0.5,0.3,0.6,0.5c0.2,0.2,0.3,0.4,0.4,0.7l0.2-1.2h2.1l-1.6,7.7c-0.1,0.9-0.5,1.7-1,2.4
	c-0.8,0.9-2,1.4-3.8,1.4c-0.8,0.1-1.7-0.2-2.4-0.6c-0.3-0.2-0.5-0.5-0.6-0.8c-0.1-0.3-0.2-0.7-0.1-1h2.3c0,0.2,0.1,0.4,0.2,0.5
	c0.3,0.2,0.7,0.3,1.1,0.3c0.3,0,0.6,0,0.9-0.2c0.3-0.1,0.6-0.3,0.7-0.6c0.3-0.5,0.5-1.1,0.6-1.6l0.1-0.5c-0.2,0.3-0.5,0.6-0.8,0.8
	c-0.5,0.3-1.1,0.5-1.7,0.5c-0.4,0-0.9,0-1.3-0.2c-0.4-0.2-0.7-0.5-1-0.9c-0.5-0.7-0.6-1.7-0.3-3c0.2-1.1,0.7-2.2,1.5-3
	c0.4-0.4,0.8-0.7,1.3-0.9s1-0.3,1.5-0.3C148.4,9.9,148.7,10,149.1,10.1z M149.4,14.1c0.2-0.6,0.1-1.2-0.1-1.7
	c-0.1-0.2-0.3-0.4-0.5-0.5s-0.4-0.2-0.7-0.1c-0.4,0-0.7,0.1-1,0.3s-0.6,0.4-0.7,0.8c-0.2,0.4-0.4,0.9-0.5,1.4
	c-0.1,0.4-0.1,0.8,0,1.2c0,0.3,0.2,0.6,0.5,0.8c0.2,0.2,0.6,0.3,0.9,0.2c0.5,0,1-0.2,1.4-0.6C149,15.4,149.3,14.8,149.4,14.1
	L149.4,14.1z"/>
<path class="st2" d="M160.4,11.4c0.2,0.5,0.3,1.1,0.3,1.7c0,0.5-0.1,1.1-0.3,1.6h-5.5c-0.1,0.8,0,1.4,0.4,1.7c0.3,0.2,0.6,0.3,1,0.3
	c0.4,0,0.8-0.1,1.1-0.4c0.2-0.2,0.4-0.3,0.5-0.6h2.2c-0.2,0.6-0.6,1.1-1.1,1.5c-0.9,0.8-2,1.2-3.2,1.2c-0.5,0-0.9-0.1-1.4-0.2
	c-0.4-0.2-0.8-0.4-1.2-0.8c-0.6-0.7-0.8-1.7-0.5-3.2c0.2-1.2,0.8-2.4,1.7-3.2c0.8-0.7,1.9-1.1,3-1.1c0.6,0,1.2,0.1,1.7,0.4
	C159.8,10.5,160.2,10.9,160.4,11.4L160.4,11.4z M155.2,13.3h3.3c0.1-0.2,0.1-0.4,0-0.7c-0.1-0.3-0.1-0.4-0.3-0.6
	c-0.1-0.1-0.3-0.3-0.5-0.3c-0.2-0.1-0.4-0.1-0.6-0.1c-0.5,0-0.9,0.2-1.2,0.5S155.3,12.9,155.2,13.3L155.2,13.3z"/>
<path class="st1" d="M69.2,34.1l3.2,0.3l-3.2,0.3V34.1z"/>
<path class="st1" d="M60.5,14.8c0,0-0.7,1.4-0.7,1.5s0,0.6,0,0.6c0.1,0.8,0,3.3,0,3.3l1.6-2.7l1.5,2l-0.1,6.4l1.7-1.9l1.6,1.7l1,1.8
	l-1.9-5.5l1.8-1.8c0,0,0.8,1.2,1.8,1.9c0,0,3.3,3,3.3,3.1l0,0l0.4-3.6l2-1.6l0.8-1.3l-1.1,0.3l-1.3,0.9c0,0-1.7-0.3-2-0.5l0.4,1.6
	c0,0-0.3,2.3,0.2,2.5l-0.2-2.5l-4-2.8L66,16.3l-1.1,1.2v-2.7l-2.2,1.5L60.5,14.8L60.5,14.8z"/>
</svg>
