<?xml version="1.0" encoding="utf-8"?>
<!-- Generator: Adobe Illustrator 26.2.1, SVG Export Plug-In . SVG Version: 6.00 Build 0)  -->
<svg version="1.1" id="layer" xmlns="http://www.w3.org/2000/svg" xmlns:xlink="http://www.w3.org/1999/xlink" x="0px" y="0px"
	 viewBox="0 0 508 102" style="enable-background:new 0 0 508 102;" xml:space="preserve">
<style type="text/css">
	.st0{fill:#999999;}
</style>
<path class="st0" d="M153.1,51.5c0,22.5-18.3,40.7-40.7,40.7l0,0c-6.7,0-72-8.5-75.9-9C20.7,81.3,8.4,67.8,8.4,51.5
	c0-16.3,12.2-29.7,28-31.7l0,0c0,0,67.9-8.9,75.8-9h0.2C134.9,10.8,153.1,29,153.1,51.5 M112.5,21.6c-5.3,0.1-48.6,5.5-74.7,8.9l0,0
	l0,0C26.2,31.9,18,42.5,19.5,54c1.2,9.6,8.8,17.2,18.4,18.3H38h0.1c33.6,4.4,70,8.9,74.5,9h0.1c16.4-0.1,29.8-13.4,29.8-29.9
	c0-16.3-13.2-29.7-29.5-29.9C112.7,21.6,112.6,21.6,112.5,21.6"/>
<path class="st0" d="M29.6,51.6c0,7.8,6.3,14.1,14.1,14.1l0,0c7.8,0,14.1-6.3,14.1-14.1c0-7.8-6.3-14.1-14.1-14.1
	S29.6,43.8,29.6,51.6L29.6,51.6 M91,51.6c0,11.2,9.1,20.4,20.3,20.4l0,0c11.2,0,20.4-9.1,20.4-20.4l0,0c0-11.2-9.1-20.4-20.4-20.4
	S91,40.3,91,51.6 M192.2,71.7c-7.8,0-13-5.7-13-14.7c0-9.2,5.2-15,13.2-15c6.6,0,10.8,3.5,11.5,9.4h-2.3c-1-4.9-4.1-7.6-9.3-7.6
	c-6.6,0-10.9,5.1-10.9,13c0,7.8,4.2,13,10.6,13c5.4,0,9.1-3.3,9.8-8.9h2.3C203.3,67.9,198.8,71.7,192.2,71.7 M223.1,44.8h-0.8
	c-3.2,0-6,1.4-7.8,3.8c-1.8,2.5-2.3,4.7-2.3,10.2V71h-2.3V42.9h2.2v7.4c1.2-3,2.3-4.6,4.3-6c1.8-1.2,3.8-1.7,6.5-1.7h0.2
	C223.1,42.6,223.1,44.8,223.1,44.8z M250.8,70.8c-0.8,0.2-1.5,0.3-2.3,0.3c-2.6,0-3.3-1.1-3.3-5V65c-2.3,4.7-5.7,6.7-11,6.7
	c-5.9,0-9.4-2.9-9.4-7.8c0-5.2,3.6-8.1,10.8-8.7l5.4-0.5c3.1-0.3,4-1.1,4-3.8c0-4.9-2.5-7.2-8-7.2c-5.3,0-8.1,2.5-8.5,7.6h-2
	c0.4-6.1,4.2-9.4,10.9-9.4c3.5,0,6.7,1.2,8.4,3.1c1.3,1.5,1.6,2.8,1.6,6.6v14.5c0,2.4,0.4,3.1,2,3.1c0.5,0,0.8-0.1,1.5-0.2
	L250.8,70.8L250.8,70.8z M238.9,56.9c-5.1,0.5-6.4,0.8-8.3,1.6c-2.1,1-3.3,2.9-3.3,5.2c0,3.8,2.8,6.2,7.2,6.2
	c6.1,0,10.6-4.1,10.6-9.9v-5C244.1,56.1,242.8,56.4,238.9,56.9 M257.3,49c0.9-2,1.4-2.6,2.3-3.7c2-2,4.8-3.2,8.1-3.2
	c3.4,0,6.3,1.3,8.1,3.6c1.4,2,1.9,3.5,1.9,7.4v18h-2.3V53.7c-0.1-2.9-0.3-4.4-0.9-5.7c-1.2-2.5-3.9-3.9-7.2-3.9
	c-3.6,0-6.7,1.7-8.3,4.6c-1.1,2.1-1.5,4.1-1.5,7.8v14.6h-2.3V42.9h2.2L257.3,49z M295.1,53.3L308.3,71h-2.8l-12.1-16.1l-6.4,5.4V71
	h-2.1V31.8h2.1v26c0.6-0.5,1-0.9,1.3-1.2c0.5-0.4,0.8-0.7,1-0.9l15.1-13h3.1C307.5,42.9,295.1,53.3,295.1,53.3z M313.8,49.5
	c1.9-5,5.5-7.6,10.7-7.6c7.6,0,12.4,5.8,12.4,15c0,9.2-4.8,14.9-12.4,14.9c-5.5,0-8.9-2.3-10.8-7.6V71h-2V31.8h2.2
	C313.8,31.8,313.8,49.5,313.8,49.5z M313.7,56.8c0,8,4.1,13.2,10.6,13.2c6.3,0,10.3-5.1,10.3-13c0-8.1-4-13.2-10.5-13.2
	C317.8,43.8,313.7,49,313.7,56.8 M356.3,44.8h-0.8c-3.2,0-6,1.4-7.8,3.8c-1.8,2.5-2.3,4.7-2.3,10.2V71h-2.3V42.9h2.2v7.4
	c1.2-3,2.3-4.6,4.3-6c1.8-1.2,3.8-1.7,6.6-1.7h0.2L356.3,44.8L356.3,44.8z M384.4,57c0,9.1-5.1,14.8-13,14.8c-7.9,0-13-5.8-13-14.9
	c0-9,5.2-14.9,13.1-14.9C379.2,42,384.4,48,384.4,57 M360.5,56.9c0,7.9,4.2,13,10.9,13c6.6,0,10.7-5.1,10.7-12.9
	c0-7.9-4.2-13.1-10.8-13.1C364.8,43.9,360.5,49.1,360.5,56.9 M400.7,44.7h-6v19.1c-0.1,4.4,0.6,5.4,3.7,5.4c0.6,0,1.2-0.1,2.3-0.2v2
	c-1.2,0.2-1.7,0.2-2.7,0.2c-4.7,0-5.6-1.3-5.6-8.1V44.7h-5.1v-1.9h5.1V34h2.3v8.8h6L400.7,44.7L400.7,44.7z M408,45.9l-0.1,1.5v1.8
	c0.8-2,1.4-3.1,2.6-4.2c2-1.9,4.5-2.9,7.5-2.9c3.7,0,6.6,1.4,8.4,4.1c1.2,1.7,1.7,3.5,1.7,6.8v18h-2.3V53.3
	c-0.1-3.6-0.7-5.4-2.3-7.1c-1.5-1.4-3.5-2.2-6-2.2c-3.7,0-6.7,1.9-8.3,5.3c-0.9,2-1.3,4-1.3,7.4v14.3h-2.3V31.8h2.3L408,45.9
	L408,45.9z M447,71.9c-7.8,0-12.9-5.7-12.9-14.7S439.3,42,447,42c7.5,0,12.4,5.7,12.4,14.9v0.4h-22.8c0,8.1,3.9,12.7,10.5,12.7
	c5.2,0,8.7-3.1,9.8-8.6h2.2C457.8,68.1,453.4,71.9,447,71.9 M446.9,44c-3.5,0-6.8,1.8-8.6,4.8c-1.2,2.1-1.5,3.3-1.9,6.6H457
	C456.7,48.3,452.8,44,446.9,44 M478.2,44.8h-0.8c-3.2,0-6,1.4-7.8,3.8c-1.8,2.5-2.3,4.7-2.3,10.2V71H465V42.9h2.2v7.4
	c1.2-3,2.3-4.6,4.3-6c1.8-1.2,3.8-1.7,6.5-1.7h0.2L478.2,44.8L478.2,44.8z M499.8,51.1c-0.4-4.9-3.1-7.1-8.6-7.1
	c-4.8,0-7.8,2-7.8,5.5c0,3.3,1.4,4.2,9,6c3.8,0.9,5.6,1.4,7.2,2.3c2,1.2,3.3,3.5,3.3,5.8c0,4.9-4.5,8.2-11.1,8.2
	c-7.3,0-11.4-3.6-11.6-10.3h2.3c0.2,2.6,0.4,3.6,1.4,5c1.5,2.1,4.4,3.3,7.9,3.3c5.4,0,8.9-2.5,8.9-6.3c0-3.3-1.8-4.6-8.7-6.2
	c-4.9-1.1-6.2-1.5-7.6-2.3c-2-1.1-3.1-3.1-3.1-5.5c0-4.8,3.8-7.6,10.1-7.6c6.9,0,10.3,2.9,10.8,9L499.8,51.1L499.8,51.1z"/>
</svg>
