<?xml version="1.0" encoding="utf-8"?>
<!-- Generator: Adobe Illustrator 26.3.1, SVG Export Plug-In . SVG Version: 6.00 Build 0)  -->
<svg version="1.1" id="Layer_1" xmlns="http://www.w3.org/2000/svg" xmlns:xlink="http://www.w3.org/1999/xlink" x="0px" y="0px"
	 viewBox="0 0 400 70" style="enable-background:new 0 0 400 70;" xml:space="preserve">
<style type="text/css">
	.st0{fill:#F0EFEF;}
</style>
<g>
	<path class="st0" d="M249.5,10.4c-1.7,0-3.5,0.7-4.8,2c-2.1,2.1-2.9,4.9-4.9,6.9s-4.8,2.8-6.9,4.9l0,0c-2.1,2.1-3.7,5.8-5.7,7.8
		s-5.7,3.6-7.8,5.7l0,0c-2.1,2.1-2.9,4.9-4.9,6.9s-4.8,2.8-6.9,4.9c-2.6,2.6-2.6,6.9,0,9.5s6.9,2.6,9.5,0c2.1-2.1,2.6-4.7,4.9-6.9
		c2.3-2.3,4.8-2.8,6.9-4.9l0,0c2.1-2.1,3.4-5.6,5.7-7.8c2.3-2.3,5.7-3.6,7.8-5.7l0,0c2.1-2.1,2.6-4.7,4.9-6.9
		c2.3-2.2,4.8-2.8,6.9-4.9c2.6-2.6,2.6-6.9,0-9.5l0,0C253,11.1,251.3,10.4,249.5,10.4z M249.5,12.1c1.3,0,2.6,0.5,3.6,1.5
		c2,2,2,5.2,0,7.2c-1.6,1.6-4.3,2.3-6.9,4.9c-2.6,2.6-3.2,5.3-4.9,6.9c-2,2-5.2,2-7.2,0s-2-5.2,0-7.2c1.6-1.6,4.5-2.5,6.9-4.9
		s3.2-5.3,4.9-6.9C247,12.6,248.2,12.1,249.5,12.1z M249.5,14.6c-1.4,0-2.5,1.1-2.5,2.5s1.1,2.5,2.5,2.5s2.5-1.1,2.5-2.5
		S250.9,14.6,249.5,14.6z M249.5,16.3c0.5,0,0.8,0.4,0.8,0.8s-0.4,0.8-0.8,0.8c-0.5,0-0.8-0.4-0.8-0.8S249.1,16.3,249.5,16.3z
		 M246.2,19.7c-0.5,0-0.8,0.4-0.8,0.8c0,0.5,0.4,0.8,0.8,0.8c0.5,0,0.8-0.4,0.8-0.8C247,20,246.6,19.7,246.2,19.7z M243.6,22.2
		c-0.5,0-0.8,0.4-0.8,0.8c0,0.5,0.4,0.8,0.8,0.8c0.5,0,0.8-0.4,0.8-0.8C244.5,22.6,244.1,22.2,243.6,22.2z M241.1,24.7
		c-0.5,0-0.8,0.4-0.8,0.8c0,0.5,0.4,0.8,0.8,0.8c0.5,0,0.8-0.4,0.8-0.8S241.6,24.7,241.1,24.7z M237.7,26.4c-1.4,0-2.5,1.1-2.5,2.5
		s1.1,2.5,2.5,2.5s2.5-1.1,2.5-2.5S239.1,26.4,237.7,26.4z M237.7,28.1c0.5,0,0.8,0.4,0.8,0.8s-0.4,0.8-0.8,0.8
		c-0.5,0-0.8-0.4-0.8-0.8S237.2,28.1,237.7,28.1z M231,29.7c0.1,1.2,0.6,2.4,1.4,3.4l-4,4c-1-0.8-2.2-1.2-3.4-1.4
		c1.2-0.8,2.4-1.6,3.4-2.6C229.4,32.2,230.2,30.9,231,29.7z M233.6,34.3c1,0.8,2.1,1.2,3.3,1.4c-1.2,0.8-2.3,1.6-3.4,2.6
		s-1.9,2.2-2.6,3.4c-0.1-1.2-0.6-2.3-1.4-3.3L233.6,34.3z M224.2,37.4c1.3,0,2.6,0.5,3.6,1.5c2,2,2,5.2,0,7.2
		c-1.6,1.6-4.3,2.3-6.9,4.9s-3.2,5.3-4.9,6.9c-2,2-5.2,2-7.2,0c-2-2-2-5.2,0-7.2c1.6-1.6,4.5-2.5,6.9-4.9s3.2-5.3,4.9-6.9
		C221.6,37.9,222.9,37.4,224.2,37.4z M224.2,39.9c-1.4,0-2.5,1.1-2.5,2.5s1.1,2.5,2.5,2.5s2.5-1.1,2.5-2.5
		C226.8,41.1,225.6,39.9,224.2,39.9z M224.2,41.6c0.5,0,0.8,0.4,0.8,0.8s-0.4,0.8-0.8,0.8c-0.5,0-0.8-0.4-0.8-0.8
		S223.7,41.6,224.2,41.6z M220.8,45c-0.5,0-0.8,0.4-0.8,0.8c0,0.5,0.4,0.8,0.8,0.8c0.5,0,0.8-0.4,0.8-0.8
		C221.7,45.4,221.3,45,220.8,45z M218.3,47.5c-0.5,0-0.8,0.4-0.8,0.8c0,0.5,0.4,0.8,0.8,0.8c0.5,0,0.8-0.4,0.8-0.8
		C219.2,47.9,218.8,47.5,218.3,47.5z M215.8,50.1c-0.5,0-0.8,0.4-0.8,0.8c0,0.5,0.4,0.8,0.8,0.8s0.8-0.4,0.8-0.8
		C216.6,50.4,216.2,50.1,215.8,50.1z M212.4,51.7c-1.4,0-2.5,1.1-2.5,2.5s1.1,2.5,2.5,2.5s2.5-1.1,2.5-2.5S213.8,51.7,212.4,51.7z
		 M212.4,53.4c0.5,0,0.8,0.4,0.8,0.8s-0.4,0.8-0.8,0.8c-0.5,0-0.8-0.4-0.8-0.8S211.9,53.4,212.4,53.4z"/>
	<path class="st0" d="M289.1,3.2v4.4h-0.9v0.9c0,2.3-1,3.3-2.2,3.8c-0.5,0.2-1,0.4-1.4,0.5v-1.7h-8.8V12v11.4h0.9v13.2h-0.9v24.5
		h0.9c1.5,0,2.6,1.2,2.6,2.6v0.9h5.3v-28h-0.9V23.4h0.9v-2.3l0.9-0.6c1.6-1.1,4.5-2.3,8.7-2.3c4.2,0,7.1,1.3,8.7,2.3l0.9,0.6v2.3
		h0.9v13.2h-0.9v28.1h5.3v-0.9c0-1.5,1.2-2.6,2.6-2.6h0.9v-0.9V36.6h-0.9V23.4h0.9V11.1h-8.8V12v0.8c-0.4-0.1-0.9-0.2-1.4-0.5
		c-1.1-0.6-2.2-1.5-2.2-3.8V7.6h-0.9V3.2h-1.8v4.4H294h-3.5V3.2H289.1z M289.8,9.3h4.5h4.5c0.3,2.4,1.6,3.8,3,4.5
		c0.8,0.4,1.6,0.6,2.2,0.7v4.4c-1.9-1.2-5.1-2.6-9.7-2.6s-7.8,1.4-9.7,2.6v-4.4c0.6-0.1,1.3-0.3,2.2-0.7
		C288.2,13.2,289.6,11.7,289.8,9.3z M277.7,12.9h5.3l0,0v8.7h-5.3V12.9z M305.8,12.9h5.3v8.8h-5.3V12.9z M278.6,23.4h3.5v13.2h-3.5
		V23.4z M306.6,23.4h3.5v13.2h-3.5V23.4z M296,29.5c-0.1,0-0.2,0-0.3,0.1c-0.1,0-0.2,0.1-0.3,0.2c-0.2,0.2-0.3,0.4-0.3,0.6
		c0,0.1,0,0.1,0,0.2c0,0.1,0,0.1,0.1,0.2c0,0.1,0,0.1,0.1,0.2l0.1,0.1c0.2,0.2,0.4,0.3,0.6,0.3s0.5-0.1,0.6-0.3l0.1-0.1
		c0-0.1,0.1-0.1,0.1-0.2c0-0.1,0-0.1,0.1-0.2c0-0.1,0-0.1,0-0.2c0-0.2-0.1-0.5-0.3-0.6C296.6,29.6,296.3,29.5,296,29.5z M292.7,29.5
		c-0.3,0-0.5,0.1-0.7,0.2c-0.2,0.2-0.3,0.4-0.3,0.6s0.1,0.5,0.3,0.6c0.2,0.2,0.4,0.3,0.6,0.3c0.1,0,0.2,0,0.3-0.1s0.2-0.1,0.3-0.2
		c0.2-0.2,0.3-0.4,0.3-0.6c0-0.2-0.1-0.5-0.3-0.6c-0.1-0.1-0.2-0.1-0.3-0.2C292.9,29.6,292.8,29.5,292.7,29.5z M289.2,30.2
		c-0.1,0-0.2,0-0.3,0.1c-0.4,0.2-0.6,0.7-0.5,1.2c0.1,0.3,0.5,0.5,0.8,0.5c0.1,0,0.2,0,0.3-0.1c0.4-0.2,0.6-0.7,0.5-1.2
		C289.9,30.4,289.6,30.2,289.2,30.2z M299.5,30.2c-0.3,0-0.7,0.2-0.8,0.5c-0.2,0.4,0,1,0.5,1.1c0.1,0,0.2,0.1,0.3,0.1
		c0.3,0,0.7-0.2,0.8-0.5c0.2-0.4,0-1-0.5-1.2C299.7,30.2,299.6,30.2,299.5,30.2z M286.4,32.2c-0.1,0-0.2,0-0.2,0.1
		c-0.1,0-0.2,0.1-0.3,0.2c-0.1,0.1-0.1,0.2-0.2,0.3c0,0.1-0.1,0.2-0.1,0.3c0,0.2,0.1,0.5,0.3,0.6c0.1,0.1,0.2,0.1,0.3,0.2
		c0.1,0,0.2,0.1,0.3,0.1c0.2,0,0.5-0.1,0.6-0.3c0.2-0.2,0.3-0.4,0.3-0.6s-0.1-0.5-0.3-0.6C286.9,32.2,286.6,32.1,286.4,32.2z
		 M302.2,32.2c-0.1,0-0.2,0-0.3,0.1c-0.1,0-0.2,0.1-0.3,0.2c-0.1,0.1-0.1,0.2-0.2,0.3c0,0.1-0.1,0.2-0.1,0.3c0,0.2,0.1,0.5,0.3,0.6
		c0.1,0.1,0.2,0.1,0.3,0.2c0.1,0,0.2,0.1,0.3,0.1c0.2,0,0.5-0.1,0.6-0.3c0.2-0.2,0.3-0.4,0.3-0.6c0-0.1,0-0.2-0.1-0.3
		c0-0.1-0.1-0.2-0.2-0.3C302.7,32.2,302.4,32.1,302.2,32.2z M277.7,38.3h5.3v24.6h-1.9c-0.4-1.7-1.6-3-3.3-3.3V38.3
		C277.8,38.3,277.7,38.3,277.7,38.3z M305.8,38.3h5.3v21.2c-1.7,0.4-3,1.6-3.3,3.3h-1.9V38.3H305.8z"/>
	<path class="st0" d="M358.3,5.2l-0.9,0.1c-0.6,0.1-1.3,0.1-1.9,0.3l-0.9,0.1l0.2,0.9c0.2,0.9-0.4,1.8-1.3,2.1
		c-0.9,0.2-1.8-0.3-2.1-1.2l-0.3-0.9l-0.9,0.3c-0.6,0.2-1.2,0.5-1.8,0.7l-0.8,0.5l0.4,0.8c0.4,0.8,0.1,1.9-0.7,2.3
		c-0.8,0.5-1.8,0.2-2.3-0.6l-0.5-0.8l-0.7,0.5c-0.6,0.4-1.1,0.8-1.5,1.2l-0.7,0.6l0.6,0.7c0.6,0.7,0.6,1.8-0.1,2.4
		c-0.7,0.7-1.7,0.7-2.4,0.1l-0.7-0.6l-0.6,0.7c-0.4,0.5-0.7,0.9-1.2,1.5l-0.5,0.7l0.8,0.5c0.8,0.5,1,1.5,0.6,2.3
		c-0.5,0.8-1.5,1.1-2.3,0.7l-0.8-0.4l-0.4,0.8c-0.3,0.6-0.5,1.2-0.7,1.8l-0.3,0.9l0.9,0.3c0.9,0.3,1.4,1.2,1.2,2.1
		c-0.2,0.9-1.1,1.5-2.1,1.3l-0.9-0.2l-0.1,0.9c-0.1,0.7-0.2,1.3-0.3,1.9l-0.1,0.9h0.9c0.9,0,1.7,0.8,1.7,1.7s-0.7,1.7-1.7,1.7h-0.9
		l0.1,0.9c0.1,0.6,0.1,1.3,0.3,1.9l0.2,0.9l0.9-0.2c0.9-0.2,1.8,0.4,2.1,1.3c0.2,0.9-0.3,1.8-1.2,2.1l-0.9,0.3l0.3,0.9
		c0.2,0.6,0.5,1.2,0.7,1.8l0.4,0.8l0.8-0.4c0.8-0.4,1.9-0.1,2.3,0.7c0.5,0.8,0.2,1.8-0.6,2.3l-0.8,0.5l0.5,0.7
		c0.4,0.6,0.8,1.1,1.2,1.5l0.6,0.7l0.7-0.6c0.7-0.6,1.8-0.6,2.4,0.1c0.7,0.7,0.7,1.7,0.1,2.4l-0.6,0.7l0.7,0.6
		c0.4,0.4,1,0.8,1.5,1.2l0.7,0.5l0.5-0.8c0.5-0.8,1.5-1,2.3-0.6c0.8,0.5,1.1,1.5,0.7,2.3l-0.4,0.8l0.8,0.4c0.6,0.3,1.2,0.5,1.8,0.7
		l0.9,0.3l0.3-0.9c0.3-0.9,1.2-1.4,2.1-1.2c0.9,0.2,1.4,1.1,1.3,2.1l-0.2,0.9l0.9,0.2c0.7,0.1,1.3,0.2,1.9,0.3l0.9,0.1v-0.9
		c0-0.9,0.8-1.7,1.7-1.7s1.7,0.7,1.7,1.7V61l0.9-0.1c0.6-0.1,1.3-0.1,1.9-0.3l0.9-0.2l-0.2-0.9c-0.2-0.9,0.4-1.8,1.3-2.1
		c0.9-0.2,1.8,0.3,2.1,1.2l0.3,0.9l0.9-0.3c0.6-0.2,1.2-0.5,1.8-0.7l0.8-0.4l-0.4-0.8c-0.4-0.7-0.2-1.5,0.3-2l-1.2-1.2
		c-0.8,0.8-1.2,2-1,3.2c-0.1,0-0.1,0.1-0.2,0.1c-0.8-1.2-2.3-1.9-3.8-1.5s-2.5,1.7-2.6,3.2c-0.1,0-0.1,0-0.2,0
		c-0.5-1.4-1.8-2.4-3.3-2.4s-2.9,1-3.3,2.4c-0.1,0-0.1,0-0.2,0c-0.1-1.5-1.1-2.8-2.6-3.2s-3,0.2-3.8,1.5c-0.1,0-0.1-0.1-0.2-0.1
		c0.3-1.5-0.3-3-1.7-3.8c-1.3-0.8-3-0.6-4.1,0.4c-0.1,0-0.1-0.1-0.2-0.1c0.7-1.3,0.5-3-0.6-4.1s-2.7-1.3-4.1-0.6
		c0-0.1-0.1-0.1-0.1-0.2c1-1.1,1.2-2.8,0.4-4.1c-0.8-1.3-2.3-2-3.8-1.7c0-0.1-0.1-0.1-0.1-0.2c1.2-0.8,1.9-2.3,1.5-3.8
		s-1.7-2.5-3.2-2.6c0-0.1,0-0.1,0-0.2c1.4-0.5,2.4-1.8,2.4-3.3c0-1.6-1-2.9-2.4-3.3c0-0.1,0-0.1,0-0.2c1.5-0.1,2.8-1.1,3.2-2.6
		c0.4-1.5-0.2-3-1.5-3.8c0-0.1,0.1-0.1,0.1-0.2c1.5,0.3,3-0.3,3.8-1.7c0.8-1.3,0.6-3-0.4-4.1c0-0.1,0.1-0.1,0.1-0.2
		c1.3,0.7,3,0.5,4.1-0.6s1.3-2.7,0.6-4.1c0.1,0,0.1-0.1,0.2-0.1c1.1,1,2.8,1.2,4.1,0.4c1.3-0.8,2-2.3,1.7-3.8c0.1,0,0.1-0.1,0.2-0.1
		c0.8,1.2,2.3,1.9,3.8,1.5s2.5-1.7,2.6-3.2c0.1,0,0.1,0,0.2,0c0.5,1.4,1.8,2.4,3.3,2.4s2.9-1,3.3-2.4c0.1,0,0.1,0,0.2,0
		c0.1,1.5,1.1,2.8,2.6,3.2c1.5,0.4,3-0.2,3.8-1.5c0.1,0,0.1,0.1,0.2,0.1c-0.3,1.5,0.3,3,1.7,3.8c1.3,0.8,3,0.6,4.1-0.4
		c0.1,0,0.1,0.1,0.2,0.1c-0.7,1.3-0.5,3,0.6,4.1s2.7,1.3,4.1,0.6c0,0.1,0.1,0.1,0.1,0.2c-1,1.1-1.2,2.8-0.4,4.1
		c0.8,1.3,2.3,2,3.8,1.7c0,0.1,0.1,0.1,0.1,0.2c-1.2,0.8-1.9,2.3-1.5,3.8s1.7,2.5,3.2,2.6c0,0.1,0,0.1,0,0.2
		c-1.4,0.5-2.4,1.8-2.4,3.3c0,1.6,1,2.9,2.4,3.3c0,0.1,0,0.1,0,0.2c-1.5,0.1-2.8,1.1-3.2,2.6c-0.4,1.5,0.2,3,1.5,3.8
		c0,0.1-0.1,0.1-0.1,0.2c-1.2-0.3-2.4,0.1-3.2,1l1.2,1.2c0.5-0.5,1.3-0.7,2-0.3l0.8,0.4l0.4-0.8c0.3-0.6,0.5-1.2,0.7-1.8l0.3-0.9
		l-0.9-0.3c-0.9-0.3-1.4-1.2-1.2-2.1c0.2-0.9,1.1-1.4,2.1-1.3l0.9,0.2l0.2-0.9c0.1-0.7,0.2-1.3,0.3-1.9l0.1-0.9h-0.9
		c-0.9,0-1.7-0.8-1.7-1.7s0.7-1.7,1.7-1.7h0.9l-0.1-0.9c-0.1-0.6-0.1-1.3-0.3-1.9l-0.2-0.9l-0.9,0.2c-0.9,0.2-1.8-0.4-2.1-1.3
		c-0.2-0.9,0.3-1.8,1.2-2.1l0.9-0.3l-0.3-0.9c-0.2-0.6-0.5-1.2-0.7-1.8l-0.4-0.8l-0.8,0.4c-0.8,0.4-1.9,0.1-2.3-0.7
		c-0.5-0.8-0.2-1.8,0.6-2.3l0.8-0.5l-0.5-0.7c-0.4-0.6-0.8-1.1-1.2-1.5l-0.6-0.7l-0.7,0.6c-0.7,0.6-1.8,0.6-2.4-0.1
		s-0.7-1.7-0.1-2.4l0.6-0.7l-0.7-0.6c-0.5-0.4-0.9-0.7-1.5-1.2l-0.7-0.5l-0.5,0.8c-0.5,0.8-1.5,1-2.3,0.6c-0.8-0.5-1.1-1.5-0.7-2.3
		l0.4-0.8l-0.8-0.4c-0.6-0.3-1.2-0.5-1.8-0.7l-0.9-0.3l-0.3,0.9c-0.3,0.9-1.2,1.4-2.1,1.2c-0.9-0.2-1.4-1.1-1.3-2.1l0.2-0.9
		l-0.9-0.1c-0.7-0.1-1.3-0.2-1.9-0.3l-0.9-0.1v0.9c0,0.9-0.8,1.7-1.7,1.7s-1.8-0.7-1.9-1.6V5.2z M360.1,11.3c-0.5,0-0.9,0.4-0.9,0.9
		s0.4,0.9,0.9,0.9s0.9-0.4,0.9-0.9S360.6,11.3,360.1,11.3z M354.6,12.1c-0.5,0-0.9,0.4-0.9,0.9s0.4,0.9,0.9,0.9s0.9-0.4,0.9-0.9
		S355.1,12.1,354.6,12.1z M365.5,12.1c-0.5,0-0.9,0.4-0.9,0.9s0.4,0.9,0.9,0.9s0.9-0.4,0.9-0.9S366,12.1,365.5,12.1z M349.5,14.2
		c-0.5,0-0.9,0.4-0.9,0.9s0.4,0.9,0.9,0.9s0.9-0.4,0.9-0.9C350.4,14.5,350,14.2,349.5,14.2z M370.6,14.2c-0.5,0-0.9,0.4-0.9,0.9
		s0.4,0.9,0.9,0.9s0.9-0.4,0.9-0.9C371.5,14.5,371.1,14.2,370.6,14.2z M358.3,14.9c-6.8,0.6-12.5,5-15.1,11l11,3.6
		c0.3-0.5,0.8-1,1.2-1.4l-9.7-3.2c2.3-4,6.2-6.9,10.9-7.9v10.2c0.5-0.3,1.1-0.6,1.8-0.7L358.3,14.9L358.3,14.9z M361.8,14.9v11.5
		c0.6,0.2,1.2,0.4,1.8,0.7V17c4.6,1,8.6,3.9,10.9,7.9l-9.7,3.2c0.1,0.1,0.2,0.2,0.3,0.2c0.2,0.2,0.6,0.6,1.1,1.1l10.8-3.5
		C374.4,19.9,368.6,15.6,361.8,14.9z M345.2,17.5c-0.5,0-0.9,0.4-0.9,0.9s0.4,0.9,0.9,0.9s0.9-0.4,0.9-0.9S345.7,17.5,345.2,17.5z
		 M375,17.5c-0.5,0-0.9,0.4-0.9,0.9s0.4,0.9,0.9,0.9s0.9-0.4,0.9-0.9S375.5,17.5,375,17.5z M341.8,21.9c-0.5,0-0.9,0.4-0.9,0.9
		s0.4,0.9,0.9,0.9s0.9-0.4,0.9-0.9S342.3,21.9,341.8,21.9z M378.3,21.9c-0.5,0-0.9,0.4-0.9,0.9s0.4,0.9,0.9,0.9s0.9-0.4,0.9-0.9
		S378.8,21.9,378.3,21.9z M339.7,26.9c-0.5,0-0.9,0.4-0.9,0.9s0.4,0.9,0.9,0.9s0.9-0.4,0.9-0.9S340.2,26.9,339.7,26.9z M380.4,26.9
		c-0.5,0-0.9,0.4-0.9,0.9s0.4,0.9,0.9,0.9s0.9-0.4,0.9-0.9S380.9,26.9,380.4,26.9z M360.1,28c-1.4,0-2.7,0.6-3.7,1.5
		c-1,1-1.5,2.3-1.5,3.7c0,1.4,0.6,2.7,1.5,3.7l0,0c1.6,1.6,26.5,26.5,28.1,28.1l0,0c1,1,2.3,1.5,3.7,1.5s2.7-0.6,3.7-1.5
		c1-1,1.5-2.3,1.5-3.7s-0.6-2.7-1.5-3.7l0,0c-1.6-1.5-26.5-26.5-28.1-28l0,0C362.8,28.6,361.5,28,360.1,28z M378.1,29.3l-9.1,3
		c0.4,0.4,0.9,0.9,1.4,1.4l6.3-2c0.1,0.6,0.1,1.1,0.1,1.7c0,2-0.4,3.9-1,5.7l1.4,1.4c0.9-2.2,1.4-4.6,1.4-7.1
		C378.5,31.9,378.3,30.6,378.1,29.3z M342.1,29.3c-0.3,1.3-0.5,2.6-0.5,4c0,5.5,2.4,10.4,6.2,13.8l6.8-9.3l0,0
		c-0.2-0.2-0.4-0.5-0.5-0.7c0,0,0-0.1-0.1-0.1c-0.2-0.3-0.3-0.5-0.4-0.8l-6,8.3c-2.6-3-4.3-6.8-4.3-11.1c0-0.6,0-1.1,0.1-1.7
		l9.7,3.2c-0.1-0.5-0.2-1-0.2-1.5c0-0.1,0-0.3,0-0.4L342.1,29.3z M360.1,29.8c0.9,0,1.8,0.4,2.5,1c1.6,1.6,26.5,26.5,28.1,28.1
		c0.7,0.7,1,1.5,1,2.5c0,0.9-0.4,1.8-1,2.5c-0.7,0.7-1.5,1-2.5,1c-0.9,0-1.8-0.4-2.5-1l0,0c-1.6-1.6-26.5-26.5-28.1-28.1l0,0
		c-0.7-0.7-1-1.5-1-2.5c0-0.9,0.4-1.8,1-2.5C358.3,30.1,359.1,29.8,360.1,29.8z M360.1,31.5c-1,0-1.8,0.8-1.8,1.8s0.8,1.8,1.8,1.8
		s1.8-0.8,1.8-1.8C361.8,32.3,361,31.5,360.1,31.5z M339,32.4c-0.5,0-0.9,0.4-0.9,0.9s0.4,0.9,0.9,0.9s0.9-0.4,0.9-0.9
		S339.5,32.4,339,32.4z M381.1,32.4c-0.5,0-0.9,0.4-0.9,0.9s0.4,0.9,0.9,0.9s0.9-0.4,0.9-0.9C382,32.8,381.6,32.4,381.1,32.4z
		 M339.7,37.9c-0.5,0-0.9,0.4-0.9,0.9s0.4,0.9,0.9,0.9s0.9-0.4,0.9-0.9S340.2,37.9,339.7,37.9z M380.4,37.9c-0.5,0-0.9,0.4-0.9,0.9
		s0.4,0.9,0.9,0.9s0.9-0.4,0.9-0.9S380.9,37.9,380.4,37.9z M357.2,40.3l-6.4,8.9c2.7,1.6,5.9,2.6,9.4,2.6c2.5,0,4.9-0.5,7.1-1.4
		c-0.5-0.5-0.9-0.9-1.4-1.4c-1.8,0.7-3.7,1-5.7,1c-2.4,0-4.7-0.5-6.7-1.4l5.1-7C358,41.1,357.5,40.7,357.2,40.3z M341.8,42.9
		c-0.5,0-0.9,0.4-0.9,0.9s0.4,0.9,0.9,0.9s0.9-0.4,0.9-0.9S342.3,42.9,341.8,42.9z M345.2,47.3c-0.5,0-0.9,0.4-0.9,0.9
		s0.4,0.9,0.9,0.9s0.9-0.4,0.9-0.9S345.7,47.3,345.2,47.3z M349.5,50.6c-0.5,0-0.9,0.4-0.9,0.9s0.4,0.9,0.9,0.9s0.9-0.4,0.9-0.9
		S350,50.6,349.5,50.6z M354.6,52.7c-0.5,0-0.9,0.4-0.9,0.9s0.4,0.9,0.9,0.9s0.9-0.4,0.9-0.9S355.1,52.7,354.6,52.7z M365.5,52.7
		c-0.5,0-0.9,0.4-0.9,0.9s0.4,0.9,0.9,0.9s0.9-0.4,0.9-0.9S366,52.7,365.5,52.7z M360.1,53.5c-0.5,0-0.9,0.4-0.9,0.9
		s0.4,0.9,0.9,0.9s0.9-0.4,0.9-0.9C361,53.9,360.6,53.5,360.1,53.5z M388.2,59.6c-1,0-1.8,0.8-1.8,1.8s0.8,1.8,1.8,1.8
		s1.8-0.8,1.8-1.8C389.9,60.4,389.1,59.6,388.2,59.6z"/>
	<path class="st0" d="M95.9,5.4c-16,0-29,13-29,29s13,29,29,29s29-13,29-29S111.9,5.4,95.9,5.4z M95.9,7.2c15,0,27.2,12.2,27.2,27.2
		s-12.2,27.2-27.2,27.2S68.7,49.4,68.7,34.4S80.9,7.2,95.9,7.2z M95.9,8.9c-14,0-25.5,11.4-25.5,25.5s11.4,25.5,25.5,25.5
		s25.4-11.5,25.4-25.5S109.9,8.9,95.9,8.9z M95.9,10.7c13.1,0,23.7,10.6,23.7,23.7S109,58.1,95.9,58.1S72.2,47.5,72.2,34.4
		S82.8,10.7,95.9,10.7z M95.9,12.5c-0.5,0-0.9,0.4-0.9,0.9s0.4,0.9,0.9,0.9s0.9-0.4,0.9-0.9C96.8,12.8,96.4,12.5,95.9,12.5z
		 M88.7,13.7c-0.5,0-0.9,0.4-0.9,0.9s0.4,0.9,0.9,0.9s0.9-0.4,0.9-0.9S89.2,13.7,88.7,13.7z M103.1,13.7c-0.5,0-0.9,0.4-0.9,0.9
		s0.4,0.9,0.9,0.9s0.9-0.4,0.9-0.9S103.6,13.7,103.1,13.7z M95.9,16c-0.5,0-0.9,0.4-0.9,0.9s0.4,0.9,0.9,0.9s0.9-0.4,0.9-0.9
		S96.4,16,95.9,16z M89.9,17c-0.5,0-0.9,0.4-0.9,0.9s0.4,0.9,0.9,0.9s0.9-0.4,0.9-0.9S90.4,17,89.9,17z M101.9,17
		c-0.5,0-0.9,0.4-0.9,0.9s0.4,0.9,0.9,0.9s0.9-0.4,0.9-0.9S102.4,17,101.9,17z M82.4,17.4c-0.5,0-0.9,0.4-0.9,0.9s0.4,0.9,0.9,0.9
		s0.9-0.4,0.9-0.9C83.2,17.8,82.8,17.4,82.4,17.4z M109.4,17.4c-0.5,0-0.9,0.4-0.9,0.9s0.4,0.9,0.9,0.9s0.9-0.4,0.9-0.9
		S109.9,17.4,109.4,17.4z M95.9,19.5c-0.5,0-0.9,0.4-0.9,0.9s0.4,0.9,0.9,0.9s0.9-0.4,0.9-0.9S96.4,19.5,95.9,19.5z M84.6,20.1
		c-0.5,0-0.9,0.4-0.9,0.9s0.4,0.9,0.9,0.9s0.9-0.4,0.9-0.9S85.1,20.1,84.6,20.1z M107.2,20.1c-0.5,0-0.9,0.4-0.9,0.9
		s0.4,0.9,0.9,0.9s0.9-0.4,0.9-0.9S107.7,20.1,107.2,20.1z M91.1,20.3c-0.5,0-0.9,0.4-0.9,0.9s0.4,0.9,0.9,0.9s0.9-0.4,0.9-0.9
		S91.6,20.3,91.1,20.3z M100.7,20.3c-0.5,0-0.9,0.4-0.9,0.9s0.4,0.9,0.9,0.9s0.9-0.4,0.9-0.9S101.2,20.3,100.7,20.3z M86.9,22.8
		c-0.5,0-0.9,0.4-0.9,0.9s0.4,0.9,0.9,0.9s0.9-0.4,0.9-0.9C87.7,23.2,87.3,22.8,86.9,22.8z M104.9,22.8c-0.5,0-0.9,0.4-0.9,0.9
		s0.4,0.9,0.9,0.9s0.9-0.4,0.9-0.9S105.4,22.8,104.9,22.8z M77.6,23c-0.5,0-0.9,0.4-0.9,0.9s0.4,0.9,0.9,0.9s0.9-0.4,0.9-0.9
		S78.1,23,77.6,23z M95.9,23c-0.5,0-0.9,0.4-0.9,0.9s0.4,0.9,0.9,0.9s0.9-0.4,0.9-0.9S96.4,23,95.9,23z M114.1,23
		c-0.5,0-0.9,0.4-0.9,0.9s0.4,0.9,0.9,0.9s0.9-0.4,0.9-0.9C115,23.4,114.6,23,114.1,23z M92.3,23.6c-0.5,0-0.9,0.4-0.9,0.9
		s0.4,0.9,0.9,0.9s0.9-0.4,0.9-0.9S92.8,23.6,92.3,23.6z M99.5,23.6c-0.5,0-0.9,0.4-0.9,0.9s0.4,0.9,0.9,0.9s0.9-0.4,0.9-0.9
		C100.4,24,100,23.6,99.5,23.6z M80.7,24.7c-0.5,0-0.9,0.4-0.9,0.9s0.4,0.9,0.9,0.9s0.9-0.4,0.9-0.9S81.2,24.7,80.7,24.7z
		 M111.1,24.7c-0.5,0-0.9,0.4-0.9,0.9s0.4,0.9,0.9,0.9s0.9-0.4,0.9-0.9C112,25.1,111.6,24.7,111.1,24.7z M89.1,25.4
		c-0.5,0-0.9,0.4-0.9,0.9s0.4,0.9,0.9,0.9s0.9-0.4,0.9-0.9S89.6,25.4,89.1,25.4z M102.7,25.4c-0.5,0-0.9,0.4-0.9,0.9
		s0.4,0.9,0.9,0.9s0.9-0.4,0.9-0.9C103.5,25.8,103.1,25.4,102.7,25.4z M83.7,26.5c-0.5,0-0.9,0.4-0.9,0.9s0.4,0.9,0.9,0.9
		s0.9-0.4,0.9-0.9C84.6,26.9,84.2,26.5,83.7,26.5z M95.9,26.5c-4.4,0-7.9,3.5-7.9,7.9s3.5,7.9,7.9,7.9s7.9-3.5,7.9-7.9
		S100.2,26.5,95.9,26.5z M108.1,26.5c-0.5,0-0.9,0.4-0.9,0.9s0.4,0.9,0.9,0.9s0.9-0.4,0.9-0.9C108.9,26.9,108.5,26.5,108.1,26.5z
		 M86.8,28.3c-0.5,0-0.9,0.4-0.9,0.9s0.4,0.9,0.9,0.9s0.9-0.4,0.9-0.9C87.6,28.6,87.3,28.3,86.8,28.3z M95.9,28.3
		c3.4,0,6.1,2.7,6.1,6.1s-2.7,6.1-6.1,6.1c-3.4,0-6.1-2.7-6.1-6.1S92.5,28.3,95.9,28.3z M105,28.3c-0.5,0-0.9,0.4-0.9,0.9
		s0.4,0.9,0.9,0.9s0.9-0.4,0.9-0.9C105.9,28.6,105.5,28.3,105,28.3z M75.1,29.9c-0.5,0-0.9,0.4-0.9,0.9s0.4,0.9,0.9,0.9
		s0.9-0.4,0.9-0.9S75.6,29.9,75.1,29.9z M116.6,29.9c-0.5,0-0.9,0.4-0.9,0.9s0.4,0.9,0.9,0.9s0.9-0.4,0.9-0.9
		C117.5,30.3,117.1,29.9,116.6,29.9z M78.6,30.5c-0.5,0-0.9,0.4-0.9,0.9s0.4,0.9,0.9,0.9s0.9-0.4,0.9-0.9
		C79.5,30.9,79.1,30.5,78.6,30.5z M113.2,30.5c-0.5,0-0.9,0.4-0.9,0.9s0.4,0.9,0.9,0.9s0.9-0.4,0.9-0.9
		C114.1,30.9,113.7,30.5,113.2,30.5z M95.9,30.9c-1.9,0-3.5,1.6-3.5,3.5s1.6,3.5,3.5,3.5s3.5-1.6,3.5-3.5
		C99.4,32.5,97.8,30.9,95.9,30.9z M82.1,31.1c-0.5,0-0.9,0.4-0.9,0.9c0,0.5,0.4,0.9,0.9,0.9S83,32.5,83,32
		C83,31.5,82.5,31.1,82.1,31.1z M109.7,31.1c-0.5,0-0.9,0.4-0.9,0.9c0,0.5,0.4,0.9,0.9,0.9s0.9-0.4,0.9-0.9
		C110.6,31.5,110.2,31.1,109.7,31.1z M85.5,31.7c-0.5,0-0.9,0.4-0.9,0.9s0.4,0.9,0.9,0.9s0.9-0.4,0.9-0.9
		C86.4,32.1,86,31.7,85.5,31.7z M106.3,31.7c-0.5,0-0.9,0.4-0.9,0.9s0.4,0.9,0.9,0.9s0.9-0.4,0.9-0.9
		C107.1,32.1,106.8,31.7,106.3,31.7z M95.9,32.6c1,0,1.8,0.8,1.8,1.8s-0.8,1.8-1.8,1.8s-1.8-0.8-1.8-1.8S94.9,32.6,95.9,32.6z
		 M85.5,35.3c-0.5,0-0.9,0.4-0.9,0.9s0.4,0.9,0.9,0.9s0.9-0.4,0.9-0.9C86.4,35.7,86,35.3,85.5,35.3z M106.3,35.3
		c-0.5,0-0.9,0.4-0.9,0.9s0.4,0.9,0.9,0.9s0.9-0.4,0.9-0.9C107.1,35.7,106.8,35.3,106.3,35.3z M82.1,36c-0.5,0-0.9,0.4-0.9,0.9
		s0.4,0.9,0.9,0.9s0.9-0.4,0.9-0.9S82.5,36,82.1,36z M109.7,36c-0.5,0-0.9,0.4-0.9,0.9s0.4,0.9,0.9,0.9s0.9-0.4,0.9-0.9
		S110.2,36,109.7,36z M78.6,36.6c-0.5,0-0.9,0.4-0.9,0.9s0.4,0.9,0.9,0.9s0.9-0.4,0.9-0.9S79.1,36.6,78.6,36.6z M113.2,36.6
		c-0.5,0-0.9,0.4-0.9,0.9s0.4,0.9,0.9,0.9s0.9-0.4,0.9-0.9S113.7,36.6,113.2,36.6z M75.1,37.2c-0.5,0-0.9,0.4-0.9,0.9
		s0.4,0.9,0.9,0.9s0.9-0.4,0.9-0.9S75.6,37.2,75.1,37.2z M116.6,37.2c-0.5,0-0.9,0.4-0.9,0.9s0.4,0.9,0.9,0.9s0.9-0.4,0.9-0.9
		S117.1,37.2,116.6,37.2z M86.8,38.8c-0.5,0-0.9,0.4-0.9,0.9s0.4,0.9,0.9,0.9s0.9-0.4,0.9-0.9S87.3,38.8,86.8,38.8z M105,38.8
		c-0.5,0-0.9,0.4-0.9,0.9s0.4,0.9,0.9,0.9s0.9-0.4,0.9-0.9S105.5,38.8,105,38.8z M83.7,40.5c-0.5,0-0.9,0.4-0.9,0.9s0.4,0.9,0.9,0.9
		s0.9-0.4,0.9-0.9C84.6,40.9,84.2,40.5,83.7,40.5z M108.1,40.5c-0.5,0-0.9,0.4-0.9,0.9s0.4,0.9,0.9,0.9s0.9-0.4,0.9-0.9
		C108.9,40.9,108.5,40.5,108.1,40.5z M89.1,41.6c-0.5,0-0.9,0.4-0.9,0.9s0.4,0.9,0.9,0.9S90,43,90,42.5S89.6,41.6,89.1,41.6z
		 M102.7,41.6c-0.5,0-0.9,0.4-0.9,0.9s0.4,0.9,0.9,0.9s0.9-0.4,0.9-0.9S103.1,41.6,102.7,41.6z M80.7,42.3c-0.5,0-0.9,0.4-0.9,0.9
		s0.4,0.9,0.9,0.9s0.9-0.4,0.9-0.9C81.6,42.7,81.2,42.3,80.7,42.3z M111.1,42.3c-0.5,0-0.9,0.4-0.9,0.9s0.4,0.9,0.9,0.9
		s0.9-0.4,0.9-0.9C112,42.7,111.6,42.3,111.1,42.3z M92.3,43.4c-0.5,0-0.9,0.4-0.9,0.9s0.4,0.9,0.9,0.9s0.9-0.4,0.9-0.9
		S92.8,43.4,92.3,43.4z M99.5,43.4c-0.5,0-0.9,0.4-0.9,0.9s0.4,0.9,0.9,0.9s0.9-0.4,0.9-0.9C100.4,43.8,100,43.4,99.5,43.4z
		 M77.6,44.1c-0.5,0-0.9,0.4-0.9,0.9s0.4,0.9,0.9,0.9s0.9-0.4,0.9-0.9S78.1,44.1,77.6,44.1z M95.9,44.1c-0.5,0-0.9,0.4-0.9,0.9
		s0.4,0.9,0.9,0.9s0.9-0.4,0.9-0.9S96.4,44.1,95.9,44.1z M114.1,44.1c-0.5,0-0.9,0.4-0.9,0.9s0.4,0.9,0.9,0.9s0.9-0.4,0.9-0.9
		S114.6,44.1,114.1,44.1z M86.9,44.3c-0.5,0-0.9,0.4-0.9,0.9s0.4,0.9,0.9,0.9s0.9-0.4,0.9-0.9S87.3,44.3,86.9,44.3z M104.9,44.3
		c-0.5,0-0.9,0.4-0.9,0.9s0.4,0.9,0.9,0.9s0.9-0.4,0.9-0.9S105.4,44.3,104.9,44.3z M91.1,46.7c-0.5,0-0.9,0.4-0.9,0.9
		s0.4,0.9,0.9,0.9s0.9-0.4,0.9-0.9S91.6,46.7,91.1,46.7z M100.7,46.7c-0.5,0-0.9,0.4-0.9,0.9s0.4,0.9,0.9,0.9s0.9-0.4,0.9-0.9
		S101.2,46.7,100.7,46.7z M84.6,47c-0.5,0-0.9,0.4-0.9,0.9s0.4,0.9,0.9,0.9s0.9-0.4,0.9-0.9S85.1,47,84.6,47z M107.2,47
		c-0.5,0-0.9,0.4-0.9,0.9s0.4,0.9,0.9,0.9s0.9-0.4,0.9-0.9S107.7,47,107.2,47z M95.9,47.6c-0.5,0-0.9,0.4-0.9,0.9s0.4,0.9,0.9,0.9
		s0.9-0.4,0.9-0.9S96.4,47.6,95.9,47.6z M82.4,49.7c-0.5,0-0.9,0.4-0.9,0.9s0.4,0.9,0.9,0.9s0.9-0.4,0.9-0.9S82.8,49.7,82.4,49.7z
		 M109.4,49.7c-0.5,0-0.9,0.4-0.9,0.9s0.4,0.9,0.9,0.9s0.9-0.4,0.9-0.9S109.9,49.7,109.4,49.7z M89.9,50c-0.5,0-0.9,0.4-0.9,0.9
		s0.4,0.9,0.9,0.9s0.9-0.4,0.9-0.9S90.4,50,89.9,50z M101.9,50c-0.5,0-0.9,0.4-0.9,0.9s0.4,0.9,0.9,0.9s0.9-0.4,0.9-0.9
		S102.4,50,101.9,50z M95.9,51.1c-0.5,0-0.9,0.4-0.9,0.9s0.4,0.9,0.9,0.9s0.9-0.4,0.9-0.9S96.4,51.1,95.9,51.1z M88.7,53.3
		c-0.5,0-0.9,0.4-0.9,0.9s0.4,0.9,0.9,0.9s0.9-0.4,0.9-0.9C89.6,53.7,89.2,53.3,88.7,53.3z M103.1,53.3c-0.5,0-0.9,0.4-0.9,0.9
		s0.4,0.9,0.9,0.9s0.9-0.4,0.9-0.9C104,53.7,103.6,53.3,103.1,53.3z M95.9,54.6c-0.5,0-0.9,0.4-0.9,0.9s0.4,0.9,0.9,0.9
		s0.9-0.4,0.9-0.9S96.4,54.6,95.9,54.6z"/>
	<path class="st0" d="M158.4,14.2l-5.8,16.7h-2.3v-0.7h-6v0.7v1.3h-4v0.7v4.7h4v2h6v-0.7h2.2l5.8,16.7h0.5h29l6-17.3v-6.9l-6-17.3
		L158.4,14.2L158.4,14.2z M159.3,15.5h27.6l5.6,16.2v6.4l-5.6,16.2h-27.6l-5.6-16.2v-6.5L159.3,15.5z M161,17.5
		c-0.4,0-0.7,0.3-0.7,0.7s0.3,0.7,0.7,0.7s0.7-0.3,0.7-0.7S161.4,17.5,161,17.5z M173.1,17.5c-0.4,0-0.7,0.3-0.7,0.7
		s0.3,0.7,0.7,0.7s0.7-0.3,0.7-0.7S173.5,17.5,173.1,17.5z M185.1,17.5c-0.4,0-0.7,0.3-0.7,0.7s0.3,0.7,0.7,0.7s0.7-0.3,0.7-0.7
		S185.5,17.5,185.1,17.5z M163.1,20.9l-2.6,7.4h0.9h24.1l-2.6-7.4H163.1z M164.1,22.2h18l1.6,4.7h-21.3L164.1,22.2z M159,23.5
		c-0.4,0-0.7,0.3-0.7,0.7s0.3,0.7,0.7,0.7s0.7-0.3,0.7-0.7C159.7,23.8,159.4,23.5,159,23.5z M187.2,23.5c-0.4,0-0.7,0.3-0.7,0.7
		s0.3,0.7,0.7,0.7s0.7-0.3,0.7-0.7C187.8,23.8,187.5,23.5,187.2,23.5z M155.7,30.9c-0.4,0-0.7,0.3-0.7,0.7s0.3,0.7,0.7,0.7
		s0.7-0.3,0.7-0.7C156.3,31.2,156,30.9,155.7,30.9z M158.4,30.9c-0.4,0-0.7,0.3-0.7,0.7s0.3,0.7,0.7,0.7s0.7-0.3,0.7-0.7
		C159,31.2,158.7,30.9,158.4,30.9z M161,30.9c-0.4,0-0.7,0.3-0.7,0.7s0.3,0.7,0.7,0.7s0.7-0.3,0.7-0.7
		C161.7,31.2,161.4,30.9,161,30.9z M163.7,30.9c-0.4,0-0.7,0.3-0.7,0.7s0.3,0.7,0.7,0.7s0.7-0.3,0.7-0.7S164.1,30.9,163.7,30.9z
		 M166.4,30.9c-0.4,0-0.7,0.3-0.7,0.7s0.3,0.7,0.7,0.7s0.7-0.3,0.7-0.7S166.8,30.9,166.4,30.9z M169.1,30.9c-0.4,0-0.7,0.3-0.7,0.7
		s0.3,0.7,0.7,0.7s0.7-0.3,0.7-0.7C169.7,31.2,169.4,30.9,169.1,30.9z M171.8,30.9c-0.4,0-0.7,0.3-0.7,0.7s0.3,0.7,0.7,0.7
		s0.7-0.3,0.7-0.7C172.4,31.2,172.1,30.9,171.8,30.9z M174.4,30.9c-0.4,0-0.7,0.3-0.7,0.7s0.3,0.7,0.7,0.7s0.7-0.3,0.7-0.7
		S174.8,30.9,174.4,30.9z M177.1,30.9c-0.4,0-0.7,0.3-0.7,0.7s0.3,0.7,0.7,0.7s0.7-0.3,0.7-0.7S177.5,30.9,177.1,30.9z M179.8,30.9
		c-0.4,0-0.7,0.3-0.7,0.7s0.3,0.7,0.7,0.7s0.7-0.3,0.7-0.7S180.2,30.9,179.8,30.9z M182.5,30.9c-0.4,0-0.7,0.3-0.7,0.7
		s0.3,0.7,0.7,0.7s0.7-0.3,0.7-0.7C183.1,31.2,182.8,30.9,182.5,30.9z M185.1,30.9c-0.4,0-0.7,0.3-0.7,0.7s0.3,0.7,0.7,0.7
		s0.7-0.3,0.7-0.7S185.5,30.9,185.1,30.9z M187.8,30.9c-0.4,0-0.7,0.3-0.7,0.7s0.3,0.7,0.7,0.7s0.7-0.3,0.7-0.7
		S188.2,30.9,187.8,30.9z M190.5,30.9c-0.4,0-0.7,0.3-0.7,0.7s0.3,0.7,0.7,0.7s0.7-0.3,0.7-0.7S190.9,30.9,190.5,30.9z M145.6,31.6
		h3.3v6.7h-3.3v-0.7v-5.4V31.6z M150.3,32.2h2v5.4h-2V32.2z M141.6,33.6h2.7v2.7h-2.7V33.6z M155.7,37.6c-0.4,0-0.7,0.3-0.7,0.7
		s0.3,0.7,0.7,0.7s0.7-0.3,0.7-0.7S156,37.6,155.7,37.6z M158.4,37.6c-0.4,0-0.7,0.3-0.7,0.7s0.3,0.7,0.7,0.7s0.7-0.3,0.7-0.7
		S158.7,37.6,158.4,37.6z M161,37.6c-0.4,0-0.7,0.3-0.7,0.7s0.3,0.7,0.7,0.7s0.7-0.3,0.7-0.7S161.4,37.6,161,37.6z M163.7,37.6
		c-0.4,0-0.7,0.3-0.7,0.7s0.3,0.7,0.7,0.7s0.7-0.3,0.7-0.7S164.1,37.6,163.7,37.6z M166.4,37.6c-0.4,0-0.7,0.3-0.7,0.7
		s0.3,0.7,0.7,0.7s0.7-0.3,0.7-0.7S166.8,37.6,166.4,37.6z M169.1,37.6c-0.4,0-0.7,0.3-0.7,0.7s0.3,0.7,0.7,0.7s0.7-0.3,0.7-0.7
		S169.4,37.6,169.1,37.6z M171.8,37.6c-0.4,0-0.7,0.3-0.7,0.7s0.3,0.7,0.7,0.7s0.7-0.3,0.7-0.7S172.1,37.6,171.8,37.6z M174.4,37.6
		c-0.4,0-0.7,0.3-0.7,0.7s0.3,0.7,0.7,0.7s0.7-0.3,0.7-0.7S174.8,37.6,174.4,37.6z M177.1,37.6c-0.4,0-0.7,0.3-0.7,0.7
		s0.3,0.7,0.7,0.7s0.7-0.3,0.7-0.7S177.5,37.6,177.1,37.6z M179.8,37.6c-0.4,0-0.7,0.3-0.7,0.7s0.3,0.7,0.7,0.7s0.7-0.3,0.7-0.7
		S180.2,37.6,179.8,37.6z M182.5,37.6c-0.4,0-0.7,0.3-0.7,0.7s0.3,0.7,0.7,0.7s0.7-0.3,0.7-0.7S182.8,37.6,182.5,37.6z M185.1,37.6
		c-0.4,0-0.7,0.3-0.7,0.7s0.3,0.7,0.7,0.7s0.7-0.3,0.7-0.7S185.5,37.6,185.1,37.6z M187.8,37.6c-0.4,0-0.7,0.3-0.7,0.7
		s0.3,0.7,0.7,0.7s0.7-0.3,0.7-0.7S188.2,37.6,187.8,37.6z M190.5,37.6c-0.4,0-0.7,0.3-0.7,0.7s0.3,0.7,0.7,0.7s0.7-0.3,0.7-0.7
		S190.9,37.6,190.5,37.6z M160.6,41.6l2.6,7.4h0.5h19.5l2.6-7.4H160.6z M162.4,43h21.3l-1.6,4.7h-18L162.4,43z M159,45
		c-0.4,0-0.7,0.3-0.7,0.7s0.3,0.7,0.7,0.7s0.7-0.3,0.7-0.7C159.7,45.3,159.4,45,159,45z M187.2,45c-0.4,0-0.7,0.3-0.7,0.7
		s0.3,0.7,0.7,0.7s0.7-0.3,0.7-0.7C187.8,45.3,187.5,45,187.2,45z M161,51c-0.4,0-0.7,0.3-0.7,0.7s0.3,0.7,0.7,0.7s0.7-0.3,0.7-0.7
		C161.7,51.3,161.4,51,161,51z M173.1,51c-0.4,0-0.7,0.3-0.7,0.7s0.3,0.7,0.7,0.7s0.7-0.3,0.7-0.7S173.5,51,173.1,51z M185.1,51
		c-0.4,0-0.7,0.3-0.7,0.7s0.3,0.7,0.7,0.7s0.7-0.3,0.7-0.7S185.5,51,185.1,51z"/>
</g>
<path class="st0" d="M273.8,152.2h-8.3c-3.4,0-6.2-2.8-6.2-6.2v-44.7c0-3.4,2.8-6.2,6.2-6.2h22.4c3.4,0,6.2,2.8,6.2,6.2v36
	c0,0.7-0.6,1.2-1.2,1.2c-0.6,0-1.2-0.6-1.2-1.2v-36c0-2-1.7-3.7-3.7-3.7h-22.4c-2,0-3.7,1.7-3.7,3.7V146c0,2,1.7,3.7,3.7,3.7h8.3
	c0.7,0,1.2,0.6,1.2,1.2S274.5,152.2,273.8,152.2z"/>
<path class="st0" d="M281.7,102.5h-9.9c-2.1,0-3.7-1.7-3.7-3.7v-2.5c0-0.7,0.6-1.2,1.2-1.2h14.9c0.7,0,1.2,0.6,1.2,1.2v2.5
	C285.4,100.8,283.8,102.5,281.7,102.5z M270.5,97.5v1.2c0,0.7,0.6,1.2,1.2,1.2h9.9c0.7,0,1.2-0.6,1.2-1.2v-1.2H270.5z"/>
<path class="st0" d="M286.7,143.5c-0.7,0-1.2-0.6-1.2-1.2v-5c0-0.7-0.6-1.2-1.2-1.2c-0.7,0-1.2,0.6-1.2,1.2v5c0,0.7-0.6,1.2-1.2,1.2
	c-0.6,0-1.2-0.6-1.2-1.2v-5c0-2.1,1.7-3.7,3.7-3.7c2.1,0,3.7,1.7,3.7,3.7v5C287.9,142.9,287.4,143.5,286.7,143.5z"/>
<path class="st0" d="M291.6,143.5c-0.7,0-1.2-0.6-1.2-1.2v-3.7c0-0.7-0.6-1.2-1.2-1.2c-0.7,0-1.2,0.6-1.2,1.2v3.7
	c0,0.7-0.6,1.2-1.2,1.2c-0.6,0-1.2-0.6-1.2-1.2v-3.7c0-2.1,1.7-3.7,3.7-3.7c2.1,0,3.7,1.7,3.7,3.7v3.7
	C292.9,142.9,292.3,143.5,291.6,143.5z"/>
<path class="st0" d="M296.6,143.5c-0.7,0-1.2-0.6-1.2-1.2v-2.5c0-0.7-0.6-1.2-1.2-1.2c-0.6,0-1.2,0.6-1.2,1.2v2.5
	c0,0.7-0.6,1.2-1.2,1.2c-0.6,0-1.2-0.6-1.2-1.2v-2.5c0-2.1,1.7-3.7,3.7-3.7c2,0,3.7,1.7,3.7,3.7v2.5
	C297.9,142.9,297.3,143.5,296.6,143.5z"/>
<path class="st0" d="M276.7,154.7c-0.3,0-0.6-0.1-0.8-0.3l-7.5-6.4c-1.1-1-1.5-2.5-1.1-3.9c0.3-0.9,0.9-1.7,1.8-2.1
	c0.9-0.4,1.8-0.5,2.8-0.2l3.6,1.2v-14.4c0-2.1,1.7-3.7,3.7-3.7s3.7,1.7,3.7,3.7v13.7c0,0.7-0.6,1.2-1.2,1.2c-0.6,0-1.2-0.6-1.2-1.2
	v-13.7c0-0.7-0.6-1.2-1.2-1.2c-0.6,0-1.2,0.6-1.2,1.2v16.1c0,0.4-0.2,0.8-0.5,1c-0.3,0.2-0.7,0.3-1.1,0.2l-5.2-1.7
	c-0.6-0.2-1.2,0.1-1.4,0.7c-0.1,0.4,0,0.9,0.3,1.2l7.5,6.4c0.5,0.4,0.6,1.2,0.1,1.8C277.4,154.5,277.1,154.7,276.7,154.7z"/>
<path class="st0" d="M296.6,154.7c-0.7,0-1.2-0.6-1.2-1.2v-11.3c0-0.7,0.6-1.2,1.2-1.2s1.2,0.6,1.2,1.2v11.2
	C297.9,154.1,297.3,154.7,296.6,154.7z"/>
<path class="st0" d="M286.7,129.8h-5c-0.7,0-1.2-0.6-1.2-1.2c0-0.6,0.6-1.2,1.2-1.2h3.7v-1.3c0-2.3-0.9-4.5-2.5-6.1
	s-3.8-2.5-6.1-2.5c-4.8,0-8.7,3.9-8.7,8.7v1.2h8.7c0.7,0,1.2,0.6,1.2,1.2c0,0.6-0.6,1.2-1.2,1.2h-9.9c-0.7,0-1.2-0.6-1.2-1.2v-2.5
	c0-6.2,5-11.2,11.2-11.2c3,0,5.8,1.2,7.9,3.3c2.1,2.1,3.3,4.9,3.3,7.9v2.5C287.9,129.3,287.4,129.8,286.7,129.8z"/>
<path class="st0" d="M276.7,117.4c-0.7,0-1.2-0.6-1.2-1.2v-2.5c0-0.7,0.6-1.2,1.2-1.2c0.6,0,1.2,0.6,1.2,1.2v2.5
	C278,116.8,277.4,117.4,276.7,117.4z"/>
<path class="st0" d="M287.9,129.8h-6.2c-0.7,0-1.2-0.6-1.2-1.2c0-0.6,0.6-1.2,1.2-1.2h6.2c0.7,0,1.2,0.6,1.2,1.2
	C289.1,129.2,288.6,129.8,287.9,129.8z"/>
<path class="st0" d="M276.7,129.8h-11.2c-0.7,0-1.2-0.6-1.2-1.2c0-0.6,0.6-1.2,1.2-1.2h11.2c0.7,0,1.2,0.6,1.2,1.2
	C277.9,129.2,277.4,129.8,276.7,129.8z"/>
<path class="st0" d="M324.8,95.9c-2.2,0-3.9,1.8-3.9,3.9v3.7c0,0.1,0,0.3,0,0.4v18.2h-6.6c-0.7,0-1.3,0.6-1.3,1.3
	c0,0.7,0.6,1.3,1.3,1.3l0,0h47.3c0.7,0,1.3-0.6,1.3-1.3c0-0.7-0.6-1.3-1.3-1.3l0,0H355V104c0-0.1,0-0.3,0-0.4v-3.7
	c0-2.2-1.8-3.9-3.9-3.9L324.8,95.9L324.8,95.9z M324.8,98.6h26.3c0.7,0,1.3,0.6,1.3,1.3v2.6h-28.9v-2.6
	C323.5,99.2,324.1,98.6,324.8,98.6z M323.5,105.1h28.9v17.1h-3.9v-7.9c0-2.2-1.8-3.9-3.9-3.9h-13.1c-2.2,0-3.9,1.8-3.9,3.9v7.9h-3.9
	v-17.1H323.5z M331.4,113h1.3v9.2h-2.6v-7.9C330.1,113.6,330.6,113,331.4,113z M335.3,113h9.2c0.7,0,1.3,0.6,1.3,1.3v7.9h-10.5V113z
	 M320.9,127.5v16.9c0,0.1,0,0.3,0,0.4v5c0,2.2,1.8,3.9,3.9,3.9h26.3c2.2,0,3.9-1.8,3.9-3.9v-5c0-0.1,0-0.3,0-0.4v-16.9h-2.6v15.8
	h-28.9v-15.8H320.9z M327.4,127.5v6.6c0,2.2,1.8,3.9,3.9,3.9h13.1c2.2,0,3.9-1.8,3.9-3.9v-6.6h-2.6v6.6c0,0.7-0.6,1.3-1.3,1.3h-9.1
	v-7.9h-2.6v7.9h-1.3c-0.7,0-1.3-0.6-1.3-1.3v-6.6H327.4z M323.5,145.9h28.9v3.9c0,0.7-0.6,1.3-1.3,1.3h-26.3c-0.7,0-1.3-0.6-1.3-1.3
	L323.5,145.9L323.5,145.9z M334,147.2c-0.7,0-1.3,0.6-1.3,1.3c0,0.7,0.6,1.3,1.3,1.3l0,0h7.9c0.7,0,1.3-0.6,1.3-1.3
	c0-0.7-0.6-1.3-1.3-1.3l0,0H334z"/>
<path class="st0" d="M405.8,95.7c-0.6,0-1,0.4-1.1,1l-0.6,3.5c-0.5,0.2-1.1,0.4-1.6,0.6l-2.9-2.1c-0.5-0.3-1.1-0.3-1.5,0.1l-2.5,2.4
	c-0.4,0.4-0.5,1-0.1,1.5l2,2.9c-0.3,0.5-0.5,1-0.7,1.6l-3.5,0.6c-0.6,0.1-1,0.6-1,1.1v3.5c0,0.6,0.4,1,1,1.1l3.5,0.6
	c0.2,0.5,0.4,1.1,0.6,1.6l-2.1,2.9c-0.3,0.5-0.3,1.1,0.1,1.5l2.4,2.5c0.4,0.4,1,0.5,1.5,0.1l2.9-2c0.5,0.3,1,0.5,1.6,0.6l0.6,3.5
	c0.1,0.6,0.6,1,1.1,1h3.5c0.6,0,1.1-0.4,1.2-1l0.6-3.5c0.5-0.2,1-0.4,1.6-0.6l2.9,2.1c0.5,0.3,1.1,0.3,1.5-0.1l2.5-2.4
	c0.4-0.4,0.5-1,0.1-1.5l-2.1-2.9c0.3-0.5,0.5-1,0.7-1.5l3.5-0.6c0.6-0.1,1-0.6,1-1.1v-3.5c0-0.6-0.4-1.1-1-1.1l-3.5-0.6
	c-0.2-0.5-0.4-1.1-0.6-1.6l2.1-2.9c0.3-0.5,0.3-1.1-0.1-1.5L417,99c-0.4-0.4-1-0.5-1.5-0.1l-2.9,2c-0.5-0.3-1-0.5-1.6-0.7l-0.6-3.5
	c-0.1-0.6-0.6-1-1.1-1L405.8,95.7z M406.7,98h1.5l0.5,3.1c0.1,0.5,0.4,0.8,0.9,0.9c0.9,0.2,1.7,0.6,2.4,1c0.4,0.2,0.9,0.2,1.3,0
	l2.6-1.8l1.1,1.1l-1.9,2.6c-0.3,0.4-0.3,0.9,0,1.3c0.5,0.8,0.8,1.6,1,2.4c0.1,0.5,0.5,0.8,0.9,0.9l3.2,0.5v1.5L417,112
	c-0.5,0.1-0.8,0.4-0.9,0.9c-0.2,0.8-0.6,1.7-1,2.4c-0.2,0.4-0.2,0.9,0,1.3l1.9,2.6l-1.1,1.1l-2.6-1.9c-0.4-0.3-0.9-0.3-1.3,0
	c-0.8,0.5-1.6,0.8-2.4,1c-0.5,0.1-0.8,0.5-0.9,0.9l-0.5,3.2h-1.5l-0.5-3.2c-0.1-0.5-0.4-0.8-0.9-0.9c-0.8-0.2-1.7-0.6-2.4-1
	c-0.4-0.2-0.9-0.2-1.3,0l-2.6,1.8l-1.1-1.1l1.9-2.6c0.3-0.4,0.3-0.9,0.1-1.3c-0.5-0.8-0.8-1.6-1-2.5c-0.1-0.4-0.5-0.8-0.9-0.9
	l-3.1-0.6v-1.5l3.1-0.5c0.5-0.1,0.8-0.4,0.9-0.9c0.2-0.9,0.6-1.7,1-2.5c0.2-0.4,0.2-0.9,0-1.3l-1.8-2.6l1.1-1.1l2.6,1.9
	c0.4,0.3,0.9,0.3,1.3,0.1c0.8-0.5,1.6-0.8,2.5-1c0.4-0.1,0.8-0.5,0.9-0.9L406.7,98z M407.4,105c-1.5,0-3,0.5-4.1,1.7
	c-2.3,2.2-2.3,6,0,8.2c2.2,2.3,6,2.3,8.2,0c2.3-2.2,2.3-6,0-8.2C410.4,105.6,408.9,105,407.4,105z M407.4,107.3c0.9,0,1.8,0.4,2.5,1
	c1.4,1.4,1.4,3.6,0,4.9c-1.4,1.4-3.6,1.4-5,0c-1.4-1.4-1.4-3.6,0-5C405.6,107.6,406.5,107.3,407.4,107.3z M395.1,125.9
	c-3,0-4.4,0.7-5.9,1.3l0,0c-2.9,1.1-7.8,3.5-7.8,3.5c-0.6,0.3-0.8,1-0.6,1.5c0.3,0.6,1,0.8,1.6,0.6c0,0,5-2.3,7.7-3.4
	c1.7-0.6,2.4-1.2,5.1-1.2c6,0,5.7,2.6,8.2,4.1c0,0,0.1,0,0.1,0.1c3.1,1.4,6.5,1.7,9.2,1.7c1.2,0,1.9,0.3,2.4,0.6
	c0.4,0.3,0.5,0.6,0.5,1.2c0,0.6-0.2,0.9-0.6,1.2c-0.4,0.3-1.2,0.5-2.3,0.5h-6.1c-2.6,0-7-1.1-7-1.1c-0.4-0.1-0.8,0-1.1,0.3
	c-0.3,0.3-0.4,0.7-0.3,1.1c0.1,0.4,0.4,0.7,0.8,0.8c0,0,4.4,1.2,7.6,1.2h6.1c1.2,0,2.2-0.2,3.1-0.6c0.1,0,0.2-0.1,0.3-0.1l11-7.2
	c1.7-1,2.8-1.2,3.4-1.2c0.7,0,0.9,0.2,1.1,0.5c0.3,0.4,0.3,0.5,0.1,1c-0.2,0.4-0.8,1.1-1.8,1.8l0,0c-1.3,0.9-15.4,10.1-17,11
	c-1.2,0.7-2.2,1.4-3.3,1.7c-1.1,0.3-2.4,0.3-4.6-0.7c-1.4-0.7-7.6-3.9-9.6-4.9c-1.1-0.6-2.1-0.9-3-0.8c-1,0.1-1.8,0.5-2.6,1l0,0
	l-2.9,1.8c-0.4,0.2-0.6,0.6-0.6,1c0,0.4,0.3,0.8,0.6,1c0.4,0.2,0.8,0.2,1.2-0.1l2.9-1.8c0.7-0.5,1.2-0.6,1.5-0.7
	c0.3-0.1,0.9,0.1,1.9,0.6c2,1,8,4.1,9.7,4.9c2.5,1.2,4.6,1.3,6.2,0.9c1.6-0.5,2.8-1.4,3.8-2c2.2-1.3,15.6-10,17.2-11.1
	c1.2-0.9,2.1-1.8,2.6-2.8c0.5-1.1,0.3-2.4-0.4-3.3l0,0c-0.6-0.7-1.6-1.3-2.9-1.4c-0.7,0-1.5,0.2-2.4,0.5c-0.2-0.2-0.4-0.5-0.8-0.8
	c-0.7-0.5-1.8-1-3.2-1c-0.7,0-1.4,0.2-1.9,0.4c-0.7-0.7-1.9-1.5-3.7-1.5c-1.5,0-2.8,0.5-3.8,1.1c-0.2,0.1-0.6,0.4-1.3,0.8
	c-0.7,0.5-1.7,1-2.6,1.6c-1.5,0.9-2.4,1.5-3,1.8c-1.1-0.2-2.3-0.5-3.4-1C403.6,129.6,401.8,125.9,395.1,125.9z M418.5,128.2
	c0.7,0,1.3,0.2,1.6,0.4l-5.4,3.3c-0.6-0.2-1.4-0.3-2.1-0.3c-0.3,0-0.7,0-1.1,0c0.2-0.1,0.2-0.1,0.4-0.3c0.9-0.6,1.9-1.2,2.6-1.6
	c0.7-0.4,1.3-0.8,1.3-0.8C416.5,128.6,417.7,128.2,418.5,128.2z M424.1,129.3c0.9,0,1.5,0.2,1.8,0.5l0,0l-8,5.3
	c-0.1-0.6-0.4-1.3-0.8-1.8l5.6-3.5l0,0C422.6,129.8,423.6,129.3,424.1,129.3z"/>
</svg>
