<?xml version="1.0" encoding="utf-8"?>
<!-- Generator: Adobe Illustrator 26.3.1, SVG Export Plug-In . SVG Version: 6.00 Build 0)  -->
<svg version="1.1" id="Layer_1" xmlns="http://www.w3.org/2000/svg" xmlns:xlink="http://www.w3.org/1999/xlink" x="0px" y="0px"
	 viewBox="0 0 400 70" style="enable-background:new 0 0 400 70;" xml:space="preserve">
<style type="text/css">
	.st0{fill:#F0EFEF;}
</style>
<path class="st0" d="M235.5,63.1h-8.3c-3.4,0-6.2-2.8-6.2-6.2V12.2c0-3.4,2.8-6.2,6.2-6.2h22.4c3.4,0,6.2,2.8,6.2,6.2v36
	c0,0.7-0.6,1.2-1.2,1.2s-1.2-0.6-1.2-1.2v-36c0-2-1.7-3.7-3.7-3.7h-22.4c-2,0-3.7,1.7-3.7,3.7v44.7c0,2,1.7,3.7,3.7,3.7h8.3
	c0.7,0,1.2,0.6,1.2,1.2S236.2,63.1,235.5,63.1z"/>
<path class="st0" d="M243.4,13.4h-9.9c-2.1,0-3.7-1.7-3.7-3.7V7.2c0-0.7,0.6-1.2,1.2-1.2h14.9c0.7,0,1.2,0.6,1.2,1.2v2.5
	C247.1,11.7,245.5,13.4,243.4,13.4z M232.2,8.4v1.2c0,0.7,0.6,1.2,1.2,1.2h9.9c0.7,0,1.2-0.6,1.2-1.2V8.4H232.2z"/>
<path class="st0" d="M248.4,54.4c-0.7,0-1.2-0.6-1.2-1.2v-5c0-0.7-0.6-1.2-1.2-1.2c-0.7,0-1.2,0.6-1.2,1.2v5c0,0.7-0.6,1.2-1.2,1.2
	s-1.2-0.6-1.2-1.2v-5c0-2.1,1.7-3.7,3.7-3.7c2.1,0,3.7,1.7,3.7,3.7v5C249.6,53.8,249.1,54.4,248.4,54.4z"/>
<path class="st0" d="M253.3,54.4c-0.7,0-1.2-0.6-1.2-1.2v-3.7c0-0.7-0.6-1.2-1.2-1.2c-0.7,0-1.2,0.6-1.2,1.2v3.7
	c0,0.7-0.6,1.2-1.2,1.2s-1.2-0.6-1.2-1.2v-3.7c0-2.1,1.7-3.7,3.7-3.7c2.1,0,3.7,1.7,3.7,3.7v3.7C254.6,53.8,254,54.4,253.3,54.4z"/>
<path class="st0" d="M258.3,54.4c-0.7,0-1.2-0.6-1.2-1.2v-2.5c0-0.7-0.6-1.2-1.2-1.2s-1.2,0.6-1.2,1.2v2.5c0,0.7-0.6,1.2-1.2,1.2
	s-1.2-0.6-1.2-1.2v-2.5c0-2.1,1.7-3.7,3.7-3.7s3.7,1.7,3.7,3.7v2.5C259.6,53.8,259,54.4,258.3,54.4z"/>
<path class="st0" d="M238.4,65.6c-0.3,0-0.6-0.1-0.8-0.3l-7.5-6.4c-1.1-1-1.5-2.5-1.1-3.9c0.3-0.9,0.9-1.7,1.8-2.1
	c0.9-0.4,1.8-0.5,2.8-0.2l3.6,1.2V39.5c0-2.1,1.7-3.7,3.7-3.7s3.7,1.7,3.7,3.7v13.7c0,0.7-0.6,1.2-1.2,1.2s-1.2-0.6-1.2-1.2V39.5
	c0-0.7-0.6-1.2-1.2-1.2s-1.2,0.6-1.2,1.2v16.1c0,0.4-0.2,0.8-0.5,1c-0.3,0.2-0.7,0.3-1.1,0.2l-5.2-1.7c-0.6-0.2-1.2,0.1-1.4,0.7
	c-0.1,0.4,0,0.9,0.3,1.2l7.5,6.4c0.5,0.4,0.6,1.2,0.1,1.8C239.1,65.4,238.8,65.6,238.4,65.6z"/>
<path class="st0" d="M258.3,65.6c-0.7,0-1.2-0.6-1.2-1.2V53.1c0-0.7,0.6-1.2,1.2-1.2s1.2,0.6,1.2,1.2v11.2
	C259.6,65,259,65.6,258.3,65.6z"/>
<path class="st0" d="M248.4,40.7h-5c-0.7,0-1.2-0.6-1.2-1.2s0.6-1.2,1.2-1.2h3.7V37c0-2.3-0.9-4.5-2.5-6.1c-1.6-1.6-3.8-2.5-6.1-2.5
	c-4.8,0-8.7,3.9-8.7,8.7v1.2h8.7c0.7,0,1.2,0.6,1.2,1.2s-0.6,1.2-1.2,1.2h-9.9c-0.7,0-1.2-0.6-1.2-1.2V37c0-6.2,5-11.2,11.2-11.2
	c3,0,5.8,1.2,7.9,3.3c2.1,2.1,3.3,4.9,3.3,7.9v2.5C249.6,40.2,249.1,40.7,248.4,40.7z"/>
<path class="st0" d="M238.4,28.3c-0.7,0-1.2-0.6-1.2-1.2v-2.5c0-0.7,0.6-1.2,1.2-1.2s1.2,0.6,1.2,1.2v2.5
	C239.7,27.7,239.1,28.3,238.4,28.3z"/>
<path class="st0" d="M249.6,40.7h-6.2c-0.7,0-1.2-0.6-1.2-1.2s0.6-1.2,1.2-1.2h6.2c0.7,0,1.2,0.6,1.2,1.2S250.3,40.7,249.6,40.7z"/>
<path class="st0" d="M238.4,40.7h-11.2c-0.7,0-1.2-0.6-1.2-1.2s0.6-1.2,1.2-1.2h11.2c0.7,0,1.2,0.6,1.2,1.2S239.1,40.7,238.4,40.7z"
	/>
<path class="st0" d="M289.3,6.8c-2.2,0-3.9,1.8-3.9,3.9v3.7c0,0.1,0,0.3,0,0.4v18.2h-6.6c-0.7,0-1.3,0.6-1.3,1.3
	c0,0.7,0.6,1.3,1.3,1.3c0,0,0,0,0,0h47.3c0.7,0,1.3-0.6,1.3-1.3c0-0.7-0.6-1.3-1.3-1.3c0,0,0,0,0,0h-6.6V14.9c0-0.1,0-0.3,0-0.4
	v-3.7c0-2.2-1.8-3.9-3.9-3.9H289.3z M289.3,9.5h26.3c0.7,0,1.3,0.6,1.3,1.3v2.6H288v-2.6C288,10.1,288.6,9.5,289.3,9.5z M288,16
	h28.9v17.1H313v-7.9c0-2.2-1.8-3.9-3.9-3.9h-13.1c-2.2,0-3.9,1.8-3.9,3.9v7.9H288V16z M295.9,23.9h1.3v9.2h-2.6v-7.9
	C294.6,24.5,295.2,23.9,295.9,23.9z M299.9,23.9h9.2c0.7,0,1.3,0.6,1.3,1.3v7.9h-10.5V23.9z M285.4,38.4v16.9c0,0.1,0,0.3,0,0.4v5
	c0,2.2,1.8,3.9,3.9,3.9h26.3c2.2,0,3.9-1.8,3.9-3.9v-5c0-0.1,0-0.3,0-0.4V38.4h-2.6v15.8H288V38.4H285.4z M292,38.4v6.6
	c0,2.2,1.8,3.9,3.9,3.9H309c2.2,0,3.9-1.8,3.9-3.9v-6.6h-2.6v6.6c0,0.7-0.6,1.3-1.3,1.3h-9.2v-7.9h-2.6v7.9h-1.3
	c-0.7,0-1.3-0.6-1.3-1.3v-6.6H292z M288,56.8h28.9v3.9c0,0.7-0.6,1.3-1.3,1.3h-26.3c-0.7,0-1.3-0.6-1.3-1.3V56.8z M298.5,58.1
	c-0.7,0-1.3,0.6-1.3,1.3s0.6,1.3,1.3,1.3c0,0,0,0,0,0h7.9c0.7,0,1.3-0.6,1.3-1.3c0-0.7-0.6-1.3-1.3-1.3c0,0,0,0,0,0H298.5z"/>
<path class="st0" d="M367.5,6.6c-0.6,0-1,0.4-1.1,1l-0.6,3.5c-0.5,0.2-1.1,0.4-1.6,0.6l-2.9-2.1c-0.5-0.3-1.1-0.3-1.5,0.1l-2.5,2.4
	c-0.4,0.4-0.5,1-0.1,1.5l2,2.9c-0.3,0.5-0.5,1-0.7,1.6l-3.5,0.6c-0.6,0.1-1,0.6-1,1.1l0,3.5c0,0.6,0.4,1,1,1.1l3.5,0.6
	c0.2,0.5,0.4,1.1,0.6,1.6l-2.1,2.9c-0.3,0.5-0.3,1.1,0.1,1.5l2.4,2.5c0.4,0.4,1,0.5,1.5,0.1l2.9-2c0.5,0.3,1,0.5,1.6,0.6l0.6,3.5
	c0.1,0.6,0.6,1,1.1,1l3.5,0c0.6,0,1.1-0.4,1.2-1l0.6-3.5c0.5-0.2,1-0.4,1.6-0.6l2.9,2.1c0.5,0.3,1.1,0.3,1.5-0.1l2.5-2.4
	c0.4-0.4,0.5-1,0.1-1.5l-2.1-2.9c0.3-0.5,0.5-1,0.7-1.5l3.5-0.6c0.6-0.1,1-0.6,1-1.1l0-3.5c0-0.6-0.4-1.1-1-1.1l-3.5-0.6
	c-0.2-0.5-0.4-1.1-0.6-1.6l2.1-2.9c0.3-0.5,0.3-1.1-0.1-1.5l-2.4-2.5c-0.4-0.4-1-0.5-1.5-0.1l-2.9,2c-0.5-0.3-1-0.5-1.6-0.7
	l-0.6-3.5c-0.1-0.6-0.6-1-1.1-1L367.5,6.6z M368.4,8.9l1.5,0l0.5,3.1c0.1,0.5,0.4,0.8,0.9,0.9c0.9,0.2,1.7,0.6,2.4,1
	c0.4,0.2,0.9,0.2,1.3,0l2.6-1.8l1.1,1.1l-1.9,2.6c-0.3,0.4-0.3,0.9,0,1.3c0.5,0.8,0.8,1.6,1,2.4c0.1,0.5,0.5,0.8,0.9,0.9l3.2,0.5
	l0,1.5l-3.2,0.5c-0.5,0.1-0.8,0.4-0.9,0.9c-0.2,0.8-0.6,1.7-1,2.4c-0.2,0.4-0.2,0.9,0,1.3l1.9,2.6l-1.1,1.1l-2.6-1.9
	c-0.4-0.3-0.9-0.3-1.3,0c-0.8,0.5-1.6,0.8-2.4,1c-0.5,0.1-0.8,0.5-0.9,0.9l-0.5,3.2l-1.5,0l-0.5-3.2c-0.1-0.5-0.4-0.8-0.9-0.9
	c-0.8-0.2-1.7-0.6-2.4-1c-0.4-0.2-0.9-0.2-1.3,0l-2.6,1.8l-1.1-1.1l1.9-2.6c0.3-0.4,0.3-0.9,0.1-1.3c-0.5-0.8-0.8-1.6-1-2.5
	c-0.1-0.4-0.5-0.8-0.9-0.9l-3.1-0.6l0-1.5l3.1-0.5c0.5-0.1,0.8-0.4,0.9-0.9c0.2-0.9,0.6-1.7,1-2.5c0.2-0.4,0.2-0.9,0-1.3l-1.8-2.6
	l1.1-1.1l2.6,1.9c0.4,0.3,0.9,0.3,1.3,0.1c0.8-0.5,1.6-0.8,2.5-1c0.4-0.1,0.8-0.5,0.9-0.9L368.4,8.9z M369.1,15.9
	c-1.5,0-3,0.5-4.1,1.7c-2.3,2.2-2.3,6,0,8.2c2.2,2.3,6,2.3,8.2,0c2.3-2.2,2.3-6,0-8.2C372.1,16.5,370.6,15.9,369.1,15.9z
	 M369.1,18.2c0.9,0,1.8,0.4,2.5,1c1.4,1.4,1.4,3.6,0,4.9c-1.4,1.4-3.6,1.4-5,0c-1.4-1.4-1.4-3.6,0-5
	C367.3,18.5,368.2,18.2,369.1,18.2z M356.8,36.8c-3,0-4.4,0.7-5.9,1.3c0,0,0,0,0,0c-2.9,1.1-7.8,3.5-7.8,3.5c-0.6,0.3-0.8,1-0.6,1.5
	c0.3,0.6,1,0.8,1.6,0.6c0,0,5-2.3,7.7-3.4c1.7-0.6,2.4-1.2,5.1-1.2c6,0,5.7,2.6,8.2,4.1c0,0,0.1,0,0.1,0.1c3.1,1.4,6.5,1.7,9.2,1.7
	c1.2,0,1.9,0.3,2.4,0.6c0.4,0.3,0.5,0.6,0.5,1.2c0,0.6-0.2,0.9-0.6,1.2c-0.4,0.3-1.2,0.5-2.3,0.5h-6.1c-2.6,0-7-1.1-7-1.1
	c-0.4-0.1-0.8,0-1.1,0.3c-0.3,0.3-0.4,0.7-0.3,1.1c0.1,0.4,0.4,0.7,0.8,0.8c0,0,4.4,1.2,7.6,1.2h6.1c1.2,0,2.2-0.2,3.1-0.6
	c0.1,0,0.2-0.1,0.3-0.1l11-7.2c1.7-1,2.8-1.2,3.4-1.2c0.7,0,0.9,0.2,1.1,0.5c0.3,0.4,0.3,0.5,0.1,1c-0.2,0.4-0.8,1.1-1.8,1.8
	c0,0,0,0,0,0c-1.3,0.9-15.4,10.1-17,11c-1.2,0.7-2.2,1.4-3.3,1.7c-1.1,0.3-2.4,0.3-4.6-0.7c-1.4-0.7-7.6-3.9-9.6-4.9
	c-1.1-0.6-2.1-0.9-3-0.8c-1,0.1-1.8,0.5-2.6,1c0,0,0,0,0,0l-2.9,1.8c-0.4,0.2-0.6,0.6-0.6,1c0,0.4,0.3,0.8,0.6,1
	c0.4,0.2,0.8,0.2,1.2-0.1l2.9-1.8c0.7-0.5,1.2-0.6,1.5-0.7s0.9,0.1,1.9,0.6c2,1,8,4.1,9.7,4.9c2.5,1.2,4.6,1.3,6.2,0.9
	c1.6-0.5,2.8-1.4,3.8-2c2.2-1.3,15.6-10,17.2-11.1c1.2-0.9,2.1-1.8,2.6-2.8c0.5-1.1,0.3-2.4-0.4-3.3c0,0,0,0,0,0
	c-0.6-0.7-1.6-1.3-2.9-1.4c-0.7,0-1.5,0.2-2.4,0.5c-0.2-0.2-0.4-0.5-0.8-0.8c-0.7-0.5-1.8-1-3.2-1c-0.7,0-1.4,0.2-1.9,0.4
	c-0.7-0.7-1.9-1.5-3.7-1.5c-1.5,0-2.8,0.5-3.8,1.1c-0.2,0.1-0.6,0.4-1.3,0.8c-0.7,0.5-1.7,1-2.6,1.6c-1.5,0.9-2.4,1.5-3,1.8
	c-1.1-0.2-2.3-0.5-3.4-1C365.3,40.5,363.5,36.8,356.8,36.8z M380.2,39.1c0.7,0,1.3,0.2,1.6,0.4l-5.4,3.3c-0.6-0.2-1.4-0.3-2.1-0.3
	c-0.3,0-0.7,0-1.1,0c0.2-0.1,0.2-0.1,0.4-0.3c0.9-0.6,1.9-1.2,2.6-1.6c0.7-0.4,1.3-0.8,1.3-0.8C378.2,39.5,379.4,39.1,380.2,39.1z
	 M385.8,40.2c0.9,0,1.5,0.2,1.8,0.5c0,0,0,0,0,0l-8,5.3c-0.1-0.6-0.4-1.3-0.8-1.8l5.6-3.5l0,0C384.3,40.7,385.3,40.2,385.8,40.2z"/>
</svg>
