<?xml version="1.0" encoding="utf-8"?>
<!-- Generator: Adobe Illustrator 26.2.1, SVG Export Plug-In . SVG Version: 6.00 Build 0)  -->
<svg version="1.1" id="Layer_1" xmlns="http://www.w3.org/2000/svg" xmlns:xlink="http://www.w3.org/1999/xlink" x="0px" y="0px"
	 viewBox="0 0 2500 972" style="enable-background:new 0 0 2500 972;" xml:space="preserve">
<style type="text/css">
	.st0{fill-rule:evenodd;clip-rule:evenodd;fill:#999999;}
</style>
<g>
	<path class="st0" d="M339,25.3c10-4.9,26.1-1.5,19.4,9.7c-4.9,17.3-7.9,36.7-2.7,54c2.7,14.9,25.5,20,7.6,44.3
		c-42.2,40.9-79.5,85.5-113.1,132.3c20,4.6,104.7-53.7,149.9-69.5c9.4-7.6,18.2-7.9,26.1-0.9L464,261c7.9,12.4,3.3,25.2-7.3,37.6
		C232.5,595,175.8,796.4,245.3,926.6c10.3,20-6.1,29.7-14.3,19.7c-71.9-89.2-125-174.4-106.5-229.9C167,584.1,222.8,477,281.4,380.5
		l-146.2,99.2c-19.1,12.4-33.4,9.4-43.4-7l-47-59.2c-9.7-10.9-12.1-24,1.5-41.9C133.7,256.5,228.6,140.6,339,25.3L339,25.3z
		 M2252.8,571v-35.5c0.9,0.6,2.4,0.9,3.9,1.2h56.1c21.2-2.4,32.5-12.1,33.7-29.1l59.5-204.8c5.5-18.2,2.4-28.8-14.2-29.7
		c0,0-69.5-1.2-68.9-0.6l-70.1,236.9V335l25.5-92.8l158-0.6c20.3,2.4,29.1,12.1,26.4,28.8l-71,263.6c-5.2,23-19.4,35.5-42.5,37
		L2252.8,571L2252.8,571z M2252.8,254.7l3.9-13.7h-3.9V254.7z M2252.8,241v13.7l-6.7,21.2h-24V241H2252.8L2252.8,241z M2252.8,335
		v174.4l-2.7,9.1c-2.4,7-2.4,14.3,2.7,17V571h-30.6V445.8L2252.8,335L2252.8,335z M2222.2,241v34.9l-60.4-0.6
		c-11.2,1.2-19.1,7-23,17.3l-20,74.3c-4,10.9-2.1,19.1,6.1,24.6h69.5l-9.4,28.5h-67.4c-8.5,1.2-14,7-17.3,17l-20.3,80.4
		c-3,15.8,2.7,17,9.1,21.8h87.4l-9.4,33.7h-115.6c-2.1-0.6-3.9-0.9-5.7-1.5V460.6l48.8-191.4c8.5-21.8,24.3-28.5,43.7-27.6
		L2222.2,241L2222.2,241z M2222.2,445.8L2187.3,571h34.9V445.8z M2045.7,297.7l12.7-16.4c15.4-21.2,9.4-38.2-12.7-38.8V297.7z
		 M2045.7,242.5v55.2l-169,215.1c-8.5,8.2-7.9,22.1,3.9,22.4h115l-9.7,37.6h-152.3v-72.8l161.1-211.7c7.9-10.3,0.9-16.4-10.9-16.4
		h-94.3l1.5-29.4h153.8L2045.7,242.5L2045.7,242.5z M2045.7,460.6l-19.1,75.2c-5.1,17-1.8,30.3,19.1,35.5V460.6z M1833.6,365.1
		l33.4-122.6h-33.4V365.1z M1833.6,242.5v122.6l-57,208.1h-53.4l90.7-330.6H1833.6z M1833.6,500.1l-27.3,36.1
		c-11.2,16.7-7,29.1,12.7,36.7h14.5L1833.6,500.1L1833.6,500.1z M1312.4,574.1v-4.6l174.1-326.4l54.9-0.9l20,329.7l-46.4-0.6
		l-8.8-123.2c0.6-8.2-3.3-12.7-11.2-13.6l-45.5-1.8l6.7-27.9h38.8c3.3-0.9,15.5,0.3,10.3-17l-6.4-73.1l-11.8-1.2l-137.1,260.6
		L1312.4,574.1L1312.4,574.1z M1312.4,536.2l80.1-293.6h-53.1l-27,98.9V536.2z M1312.4,248.9l2.1-7.9h-2.1V248.9z M1653.1,242.5
		h52.8l-73.4,270c-3.6,14.2-0.3,21.8,10,22.1l74.6,1.8l-11.2,36.1l-105,0.6c-21.5-5.1-28.8-22.7-27.3-39.4L1653.1,242.5
		L1653.1,242.5z M1312.4,241v7.9l-8.2,27h-22.4V241H1312.4z M1312.4,341.4v194.8l-10.3,37h-20.3V453L1312.4,341.4L1312.4,341.4z
		 M1312.4,569.5l-2.4,4.6h2.4V569.5z M1281.8,241v34.9l-61.9-0.6c-11.2,1.2-18.8,7-23,17.3c-41,153.5-13.7,47.6-58.9,224.8
		c-3,15.8,2.7,17,9.4,21.8h87.1l-9.4,33.7h-113.4V430l41-160.8c8.5-21.8,24.6-28.5,43.7-27.6L1281.8,241L1281.8,241z M1281.8,453
		l-32.8,120.1h32.8V453z M1111.6,275.9h18.5l10.6-34.9h-29.1V275.9z M1111.6,241v34.9l-66.1-0.6c-11.2,1.2-18.8,7-23,17.3
		l-19.7,74.3c-4.2,10.9-2.1,19.1,6.1,24.6h69.2l-9.1,28.5h-67.4c-8.5,1.2-14.3,7-17.3,17l-20.3,80.4c-3.3,15.8,2.4,17,9.1,21.8h87.1
		l-9.1,33.7H935.4c-2.1-0.6-4.2-0.9-6.1-1.5V461.2l48.8-192c8.8-21.8,24.6-28.5,43.7-27.6L1111.6,241L1111.6,241z M1111.6,430
		l-27,105.9c-5.5,18.5-1.2,32.5,25.2,37h1.8L1111.6,430L1111.6,430z M929.3,363.5l20.6-83.1c2.7-21.2-3.9-33.7-20.6-37.3V363.5
		L929.3,363.5z M767,242.2l-8.5,33.1H734v-32.8L767,242.2z M929.3,243.1c-3-0.6-6-0.9-9.1-0.9l-129.5-0.6L734,451.2v121.6h11.8
		l80.7-297l53.4,0.6c11.2,2.1,17.3,8.5,17.9,19.1l-21.8,89.8c-2.7,14.6-12.4,24.3-29.1,29.7l-40.9,8.8l-7.3,32.2l88.6-15.8
		c17.3-4.9,29.1-16.1,32.5-37l9.7-39.7L929.3,243.1L929.3,243.1z M929.3,461.2v110.1c-20.9-5.5-24-18.5-19.1-35.5L929.3,461.2z
		 M734,275.3h-73.1c-27.9,2.4-41.9,64-28.5,79.8l65.2,57.6c11.5,10.6,17.9,23.7,13.3,41.6l-21.2,82.8c-3,21.2-14.9,32.5-35.5,34.3
		H521.3l8.8-31l89.8-0.6c12.7,1.2,24.3,0.3,28.2-15.8l18.5-65.2c-0.3-10.6-1.8-21.2-11.2-31.5l-66.7-60.4
		c-15.2-38.5,16.7-117.7,54.9-124.1l90.4-0.3L734,275.3L734,275.3L734,275.3z M734,451.2l-33.1,121.6H734V451.2z"/>
</g>
</svg>
